<svg xmlns="http://www.w3.org/2000/svg" id="Layer_1" viewBox="0 0 50 50"><style type="text/css">.st0{fill:#d7d9db}</style><g transform="matrix( 1, 0, 0, 1, 547.05,367.45) matrix( 1, 0, 0, 1, 0.35,-0.05) matrix( 1, 0, 0, 1, 0,0)"><path class="st0" d="M-522.418-363.993c-5.982 0-11.083 2.109-15.301 6.328-4.219 4.242-6.328 9.331-6.328 15.265 0 5.958 2.109 11.047 6.328 15.265s9.319 6.328 15.301 6.328 11.082-2.109 15.301-6.328c4.242-4.219 6.363-9.307 6.363-15.265 0-5.934-2.121-11.023-6.363-15.265-4.218-4.219-9.319-6.328-15.301-6.328m-14.657 7.043c4.028-4.052 8.902-6.078 14.622-6.078s10.594 2.026 14.622 6.078c4.076 4.052 6.113 8.914 6.113 14.586 0 5.696-2.038 10.558-6.113 14.586-4.028 4.028-8.902 6.042-14.622 6.042s-10.594-2.014-14.622-6.042-6.042-8.89-6.042-14.586c0-5.673 2.014-10.535 6.042-14.586m14.621-6.078c-5.72 0-10.594 2.026-14.622 6.078s-6.042 8.914-6.042 14.586c0 5.696 2.014 10.558 6.042 14.586s8.902 6.042 14.622 6.042 10.594-2.014 14.622-6.042c4.076-4.028 6.113-8.89 6.113-14.586 0-5.672-2.038-10.534-6.113-14.586-4.028-4.052-8.902-6.078-14.622-6.078z" id="nickel_0_Layer1_0_FILL"/></g><g transform="matrix( 1, 0, 0, 1, 547.05,367.45) matrix( 1, 0, 0, 1, 0.35,-0.05) matrix( 1, 0, 0, 1, 0,0)"><path id="nickel_0_Layer1_0_1_STROKES" d="M-522.418-363.993c5.982 0 11.082 2.109 15.301 6.328 4.242 4.242 6.363 9.331 6.363 15.265 0 5.958-2.121 11.047-6.363 15.265-4.219 4.219-9.319 6.328-15.301 6.328s-11.083-2.109-15.301-6.328-6.328-9.307-6.328-15.265c0-5.934 2.109-11.023 6.328-15.265 4.219-4.219 9.319-6.328 15.301-6.328z" fill="none" stroke="#707071" stroke-width=".715" stroke-linecap="round" stroke-linejoin="round"/></g><g transform="matrix( 1, 0, 0, 1, 547.05,367.45) matrix( 1, 0, 0, 1, 0.35,-0.05) matrix( 1, 0, 0, 1, 0,0)"><path id="nickel_0_Layer1_0_2_STROKES" d="M-522.454-363.028c5.72 0 10.594 2.026 14.622 6.078 4.076 4.052 6.113 8.914 6.113 14.586 0 5.696-2.038 10.558-6.113 14.586-4.028 4.028-8.902 6.042-14.622 6.042s-10.594-2.014-14.622-6.042-6.042-8.89-6.042-14.586c0-5.672 2.014-10.534 6.042-14.586s8.902-6.078 14.622-6.078z" fill="none" stroke="#707071" stroke-width=".357" stroke-linecap="round" stroke-linejoin="round"/></g><g><g transform="matrix( 1, 0, 0, 1, 547.05,367.45) matrix( 1, 0, 0, 1, 0.35,-0.05) matrix( 1, 0, 0, 1, 0,0)"><g id="nickel_0_Layer0_0_FILL"><path d="M-538.005-329.78c-.477-.62-.918-1.061-1.323-1.323-.06.082-.108.166-.143.25.456.67.968 1.29 1.537 1.859.455.435.884.888 1.287 1.359.169-.3.122-.539-.143-.715-.19-.191-.595-.668-1.215-1.43m-.715-5.792c.191-.262.274-.512.25-.751l-2.252 2.789c.15.325.245.671.286 1.037.024 0 .036.012.036.036a.636.636 0 0 0 .071-.143c-.048-.143-.024-.298.071-.465.119-.143.203-.262.25-.357.263-.716.692-1.431 1.288-2.146m2.574 8.509c.192-.003.299-.039.322-.107.024-.048.012-.095-.036-.143a1.134 1.134 0 0 1-.143-.107c-.192-.192-.383-.24-.572-.143l.179.214c.078.098.162.193.25.286m10.475-19.055l.107.107.071-.143-.107-.179-.071.215m.286-.965c-.071-.358-.203-.584-.393-.679-.071.024-.119.06-.143.107-.048.048-.048.083 0 .107.095.048.155.179.179.393.024.191.107.298.25.322.072.024.119 0 .143-.072.023-.071.012-.131-.036-.178m-9.188 1.287c0 .167.072.286.215.358.095-.024.143-.048.143-.072.095-.215-.024-.465-.357-.751l-.001.465m-2.038-2.539c.119 0 .191-.072.214-.215-.167-.024-.31.036-.429.179.049.001.12.013.215.036m4.97-2.967l-.036.107.107.072.036-.107-.107-.072m-3.754-1.251c-.048-.095-.095-.155-.143-.179-.143-.024-.286.048-.429.214-.024.024-.048.131-.072.322-.024.143-.095.226-.214.25l-.286.072c-.095.048-.107.119-.036.214l.072.322c.048.143.131.215.25.215.143 0 .191-.048.143-.143-.048-.143-.048-.238 0-.286l.286-.25c.095-.071.167-.191.214-.357.072-.215.143-.346.215-.394m-.179-1.18l.071-.107-.107-.036-.071.107.107.036m.751-2.967l.107.179.179-.214-.072-.143-.214.178m.822-1.573c-.048-.024-.107-.012-.179.036-.048.048-.071.095-.071.143 0 .143.107.262.322.358.119.048.203-.024.25-.215-.024-.167-.131-.274-.322-.322m-.608.25l-.143-.107c-.238.286-.298.596-.179.93.191-.215.298-.346.322-.393.072-.12.072-.263 0-.43m1.573.215l.107-.072-.036-.036-.107.036.036.072m.429-1.788l-.25.25a.394.394 0 0 0-.071.393l.107.036c.143-.095.214-.321.214-.679m3.754 6.364c-.119.119-.06.393.179.822.143-.596.453-.989.93-1.18-.644.119-1.014.239-1.109.358m.215-1.287l.036.036h.107l-.036-.107-.107.071m0-2.753l-.143.214c0 .072.048.107.143.107s.143-.072.143-.215l-.143-.106m1.43-2.467c0 .024.024.036.072.036.048.024.083.024.107 0 .071-.167.036-.381-.107-.643-.168.19-.192.393-.072.607m-11.548 9.045l-.107-.429a.428.428 0 0 0-.322-.25c-.071-.024-.131.012-.179.107-.048.048-.06.107-.036.179 0 .191.071.298.214.322.097.023.24.047.43.071m.394-.179c.524.095.894.06 1.108-.107-.31-.238-.679-.203-1.108.107m-.465-2.788l-.215.036-.143.643.179.215c.31.024.56-.06.751-.25.072-.095.203-.334.393-.715-.143-.072-.465-.048-.965.071m.679-1.859h-.179a.317.317 0 0 0-.25.072.988.988 0 0 0-.143.286.243.243 0 0 0-.036.072h-.036a.38.38 0 0 1-.036.071 1.411 1.411 0 0 1-.107.179l.036.036c.072.429.131.679.179.751.214 0 .393-.095.536-.286.143-.238.262-.417.357-.536.191-.191.262-.346.214-.465-.07-.144-.249-.204-.535-.18m1.108-1.144c.048.238-.095.477-.429.715-.095.095-.107.167-.036.214l.107-.143c.906-.31 1.418-.751 1.537-1.323-.071.024-.25.155-.536.393-.214.144-.428.191-.643.144m25.419 28.886c-.072-.143-.107-.238-.107-.286.048-.334.167-.512.357-.536.143 0 .215.143.215.429.048.262.155.393.322.393.119-.024.191-.083.215-.179.024-.119.036-.215.036-.286-.095-.238-.083-.417.036-.536h-.036c-.262.143-.393.06-.393-.25l-.322-.143-.572-.036c-.095.048-.143.155-.143.322-.31.429-.298.751.036.965.048.024.083.072.107.143v.143c.189.024.272-.024.249-.143m-1.502.035c.071-.405.119-.715.143-.929.024-.358-.131-.632-.465-.822-.095.31-.143.679-.143 1.108v.358c0 .119-.072.203-.215.25.072.262.179.346.322.25.215-.143.334-.215.358-.215m-5.577-1.287c0 .119-.012.298-.036.536.572-.072.763-.346.572-.822-.119-.405-.405-.465-.858-.179a.56.56 0 0 1 .322.465m3.218.572v-.572c-.071-.191-.25-.298-.536-.322v1.466c0 .048.107.143.322.286h.036c-.048-.119-.036-.262.036-.429.094-.238.142-.381.142-.429m1.179-3.396v.25l.036.143c.071-.072.083-.203.036-.393h-.072m2.002-.286l-.072.429c-.024.143.048.215.215.215.167.024.322-.06.465-.25.167-.214.31-.334.429-.357.048-.405-.119-.608-.501-.608-.405-.001-.583.19-.536.571m-.286-.786h-.429c0 .119-.06.262-.179.429-.095.167-.119.31-.072.429h-.036l.036.036c.119.024.238-.012.357-.107.167-.143.274-.214.322-.214v-.573m-7.077 1.322h-.357a.496.496 0 0 1 .036.215c0 .072.048.107.143.107.071-.143.13-.25.178-.322m5.863-.25l.107.072.107-.072-.107-.036-.107.036m-2.002 1.108c.334-.095.417-.274.25-.536l-.465.286a.396.396 0 0 1 .036.179c.024.071.084.095.179.071m-2.431-.858c-.095-.167-.131-.274-.107-.322-.262-.429-.489-.417-.679.036l.036.572c.119-.024.31-.036.572-.036.19-.047.249-.13.178-.25m1.537-.035c.165.047.248.107.25.179v-.036c.095.024.143.083.143.179.429-.048.763-.346 1.001-.894h-.429c-.072-.024-.107.024-.107.143 0 .024.012.072.036.143.024.072 0 .119-.071.143-.119.024-.203-.024-.25-.143.095-.31.036-.5-.179-.572-.214.072-.405.262-.572.572-.024.143.035.238.178.286m-3.182-.572l.036-.25-.465-.036v.572l.286-.143c.048.191.143.274.286.25.072 0 .107-.048.107-.143v-.036c0-.095-.072-.167-.215-.215h-.035m1.252-2.788l-.679.643c.191-.048.381.048.572.286.334-.238.691-.715 1.073-1.43.167-.214.167-.357 0-.429-.143-.095-.274-.024-.393.215a3.45 3.45 0 0 1-.573.715m9.473 3.468c.167.072.334.048.5-.072.095-.072.179-.072.25 0 .072.048.107.131.107.25-.072.119-.024.262.143.429.381-.453.584-.906.608-1.359-.167-.214-.298-.262-.393-.143-.072.214-.143.334-.215.357-.167.262-.334.369-.5.322-.191 0-.262-.131-.215-.393.024-.214-.06-.334-.25-.357-.143.024-.25.119-.322.286-.048.191-.095.322-.143.393.097.072.24.168.43.287m4.255-.107v-.036c-.048.03-.072.078-.072.143a2.5 2.5 0 0 0 .072-.107m-.358-3.039c.119-.095.203-.131.25-.107a1.482 1.482 0 0 1-.072-.25c-.048-.072-.131-.072-.25 0-.214.119-.274.238-.179.358.072.094.156.094.251-.001m.608-.322c-.048.143-.012.238.107.286.167.072.369-.071.608-.429l.036-.286-.608-.143-.036.214-.107.358m-1.216-1.609c.143-.048.417-.036.822.036.334.095.596.06.786-.107l-.143-.107c-.167.024-.381-.012-.643-.107-.286-.119-.489-.179-.608-.179a.578.578 0 0 0-.214.464m2.324-2.895l-.072-.143h-.465l-.929.965c-.143.072-.143.155 0 .25.095.072.179.095.25.072a.99.99 0 0 0 .214-.179c.095-.072.25-.25.465-.536.144-.239.323-.382.537-.429m.608-.93c.191-.071.262-.203.215-.393-.024-.143-.143-.191-.358-.143l-1.001.036-.036.322c.429.309.822.369 1.18.178m-1.573-1.358l.143-.036h1.466c-.524-.262-1.049-.31-1.573-.143l-.036.179m1.358-1.931c.167 0 .238-.06.215-.179.024-.262-.048-.393-.215-.393-.238 0-.322.083-.25.25.024.048.048.119.072.215s.083.131.178.107m-1.43-.179a.935.935 0 0 1-.143.25.302.302 0 0 0 0 .286h.072l.072.036c.119 0 .179-.048.179-.143h-.036l.179-.143h-.036l.179-.143.107-.286-.214-.179c-.096.025-.216.132-.359.322m-.107-1.251c-.143-.024-.238.072-.286.286l.286.25h.429c.191-.024.334.024.429.143.524.095.81-.143.858-.715-.191-.095-.477-.107-.858-.036-.405.096-.691.12-.858.072m.072-1.537c-.215.119-.393.083-.536-.107-.143.119-.191.262-.143.429.024.095.083.226.179.393 0 .072.048.143.143.215.095.071.167.071.215 0 .119-.167.346-.274.679-.322.31-.048.524-.131.644-.25-.335-.477-.729-.596-1.181-.358m-2.074-3.968c.024.072.072.179.143.322.191-.024.429-.107.715-.25-.024-.238-.131-.346-.322-.322-.238.024-.381 0-.429-.072a.34.34 0 0 0-.107.322m1.108-.036c.095-.072.286-.155.572-.25.167-.095.119-.286-.143-.572-.405.047-.548.321-.429.822m-21.736 28.707c.187.068.378.128.572.179.547.014 1.095.026 1.644.036-1.171-.121-1.91-.193-2.216-.215m-12.798-19.734l.072-.036v-.322c-.072.048-.107.155-.107.322l.035.036m4.576 5.72c-.143-.31-.322-.536-.536-.679.262.644.643 1.776 1.144 3.396.477 1.43.882 2.55 1.216 3.361h-.036a.755.755 0 0 1 .357.25l.072.107c.095.167.119.31.071.429-.167.31-.167.596 0 .858.119.143.298.346.536.608.024.072.083.179.179.322 0 .072.119.238.357.501.167.191.131.393-.107.608.095 0 .238.143.429.429.167.238.369.262.608.072.143.286.107.489-.107.608-.334.191-.512.322-.536.393-.024.048-.095.012-.215-.107-.143-.167-.25-.262-.322-.286-.453-.238-.786-.512-1.001-.822-.119-.167-.369-.393-.751-.679-.357-.262-.584-.512-.679-.751-.357.286-.572.465-.643.536a.844.844 0 0 0-.107.322 7.075 7.075 0 0 0 2.145 1.323l.25.179c.095.167.238.322.429.465.238.143.489.215.751.215l1.359.786c.262.119.548.226.858.322h.036c.395.143.776.25 1.144.322-1.859-3.17-3.098-5.422-3.718-6.757-.143.095-.25.107-.322.036-.262-.334-.512-.763-.751-1.287a24.753 24.753 0 0 0-.572-1.394c-.31-.834-.489-1.287-.536-1.358a.597.597 0 0 1 .071-.679.316.316 0 0 0-.036-.143c-.024-.072-.06-.119-.107-.143l-.143-.143c-.119 0-.215-.06-.286-.179a.819.819 0 0 0-.107-.286 16.35 16.35 0 0 0-.394-.755m6.542 3.575l.036-.072-.036-.036-.072.072.072.036m.286-.751l.143-.072-.107-.072-.107.072.071.072m-5.756-3.467c.191.381.477.572.858.572h.036a13.013 13.013 0 0 0-.608-.93 1.33 1.33 0 0 0-.965-.5l-.036.143c.334.214.572.453.715.715m-1.036-2.217c-.048-.143-.167-.346-.357-.608-.191.191-.238.405-.143.643.072.143.167.358.286.643.19-.213.261-.439.214-.678m7.114 2.395c-.214-.238-.357-.572-.429-1.001-.071-.572-.131-.906-.179-1.001-.048 0-.083.143-.107.429-.024.215-.179.203-.465-.036-.095.453-.06.798.107 1.037.191.215.549.406 1.073.572m.643-3.003v.143c-.024.429.167.715.572.858.214.071.322.012.322-.179.072-.381-.119-.655-.572-.822h-.322m4.147-7.865c0 .143.036.238.107.286.215-.19.179-.286-.107-.286m-.178-.429l.072.25c.381 0 .512-.107.393-.322-.048-.119-.119-.143-.215-.072-.143.097-.227.144-.25.144m-12.513 4.541l-.286.143c0 .214-.083.572-.25 1.072.262-.119.453-.203.572-.25a.65.65 0 0 0 .322-.393c.119-.286 0-.477-.358-.572m0-1.001l.072.179a.23.23 0 0 0 .179-.179v-.072l-.251.072m1.287-1.109l-.429-.036-.465.214c-.334.215-.381.477-.143.786.143.024.274.167.393.429.095.262.25.369.465.322.095-.143.107-.369.036-.679-.048-.286 0-.5.143-.643v-.393m.215-3.289c.095-.024.167-.167.214-.429-.167 0-.274.036-.322.107l.108.322m.214-2.502l.072.393c.191.048.286.012.286-.107a.243.243 0 0 0-.107-.215 1.064 1.064 0 0 1-.251-.071m2.324 3.396c-.358.191-.56.441-.608.751-.071.31.048.572.357.786.834.667 1.394 1.073 1.68 1.216.977.548 1.418 1.204 1.323 1.966 0 .095.06.238.179.429.095.167.107.31.036.429-.167.31-.143.512.071.608.31.143.524.036.644-.322-.167-.453-.179-.798-.036-1.037.119-.238.417-.405.894-.5 0-.358-.012-.572-.036-.644-.286-.62-.381-1.442-.286-2.467l-.286.072-.179.107c-.071.048-.155.048-.25 0a.299.299 0 0 1-.036-.25.544.544 0 0 0 .072-.215c.095-.381.143-.667.143-.858-.024-.262-.048-.417-.072-.465-.071-.119-.262-.203-.572-.25a1.23 1.23 0 0 0-.5.036h-.107c.048.048.06.107.036.179l-.179.143-.036-.179.107-.072a.785.785 0 0 0-.25.036c-.381.119-.679.143-.894.072-.024 0-.071.119-.143.358l.93.036c.072.024.179.012.322-.036.119 0 .155.119.107.357-.024.119.048.191.214.215.191.024.298.072.322.143-.167.095-.274.298-.322.608-.048.31-.143.512-.286.608-.238.167-.453.155-.644-.036-.167-.238-.31-.393-.429-.465a8.81 8.81 0 0 1-.358.429c-.143.119-.274.131-.393.036-.572-.501-.81-.953-.715-1.359l.18-.465m1.644-.715c.167-.143.381-.238.643-.286.334-.095.548-.167.643-.215a.587.587 0 0 0 .179-.036c.071-.048.083-.119.036-.215l-.107-.215c-.024-.072-.071-.083-.143-.036a13.52 13.52 0 0 0-.751.286c-.285.121-.452.36-.5.717m.036-1.287l-.143-.322c-.262 0-.465-.012-.608-.036l-.179.286-.072-.072c.024-.095.107-.167.25-.215-.214-.429-.393-.667-.536-.715-.167-.048-.393.048-.679.286-.167.167-.238.465-.215.894-.167.453-.203.727-.107.822.095.119.357.119.786 0h.143l-.071.608c.167-.095.381-.369.643-.822.216-.404.478-.642.788-.714m4.326-9.366c.071-.071.083-.155.036-.25s-.143-.155-.286-.179c-.143.024-.25.036-.322.036l-.465.107-.036.322c.071.667.083 1.061.036 1.18a.634.634 0 0 0 .179.608c.119.143.25.203.393.179.167-.024.381.072.643.286.072-.262.119-.453.143-.572.024-.214-.083-.369-.322-.465-.5-.167-.56-.512-.179-1.037.049-.048.108-.12.18-.215m-10.654 14.335l.071.465.215-.036v-.465l-.286.036m-2.538 2.145c-.167-.191-.286-.215-.357-.072-.072.191-.119.286-.143.286l.465.036.035-.25m.787-.393c-.214-.072-.393.048-.536.357 0 .191-.083.286-.25.286 0 .238.048.381.143.429.072 0 .155-.072.25-.214.072-.119.179-.131.322-.036.381 0 .5.203.357.608-.024.119-.191.477-.5 1.073-.191.072-.31.036-.357-.107-.072-.238-.131-.369-.179-.393-.072.095-.143.346-.214.751-.048.62-.358.918-.93.894-.119.119-.155.226-.107.322.024.048.095.131.215.25.119.119.31.274.572.465.191.191.298.346.322.465.024.286.107.501.25.644.119.071.322.131.608.179.381.072.465.298.25.679.119 0 .214-.06.286-.179l.215-.322c.095-.143.167-.357.214-.643.048-.31.107-.524.179-.643.048-.095.048-.155 0-.179l-.107.072-.286.036c-.095-.048-.274-.012-.536.107-.215.072-.393.036-.536-.107-.262 0-.381-.036-.357-.107.071-.072.095-.226.071-.465-.024-.191.036-.322.179-.393.119-.024.238-.095.357-.214l.25-.25h.214v-.036c-.024-.072 0-.119.072-.143l.071.25.179.393c.286-.119.417-.024.393.286l1.144-.894c-.048-.167 0-.346.143-.536.143-.262.215-.441.215-.536a.384.384 0 0 0-.036-.358.336.336 0 0 0-.25-.179c-.262-.048-.524-.191-.786-.429l-.715-.536c-.262.048-.357-.048-.286-.286l-.503-.361m1.144 2.431l.143.072c.024.262-.119.572-.429.929l-.072-.25c.048-.381.167-.632.358-.751m-1.001-4.326c-.095.024-.143.095-.143.215l.357.036c-.048-.167-.119-.251-.214-.251m-1.037 1.574c.095.214.143.334.143.357.167-.143.262-.226.286-.25.071-.119.06-.238-.036-.358-.095-.167-.203-.203-.322-.107-.119.095-.143.214-.071.358m-.608-1.538l.071.143.179-.072-.107-.179-.143.108m-1.144-.036l-.286.107-.072.322c-.024.119-.071.322-.143.608-.024.238.024.381.143.429.143.048.25-.024.322-.215.119-.31.203-.489.25-.536.167-.119.226-.25.179-.393-.023-.143-.155-.25-.393-.322m3.861-3.11c.119-.095.226-.119.322-.072-.167.405-.584.703-1.251.894-.167.095-.322.274-.465.536a3.712 3.712 0 0 0-.358.608l-.071 1.645c.572-.858 1.216-1.263 1.93-1.216-.071-.167-.048-.393.072-.679.143-.31.167-.548.071-.715l-.25.072c-.071-.072-.036-.143.107-.215l.393-.25c.143-.095.238-.119.286-.072s.048.095 0 .143a.384.384 0 0 1-.143.072l-.107.107c.048.095.155.215.322.357.119.143.131.31.036.501-.048.072-.024.155.072.25.071.072.143.095.214.072a.531.531 0 0 1 .5.036c.072.072.191.179.357.322l.25-.572c-.31-.262-.501-.441-.572-.536-.119-.262-.143-.441-.072-.536.072-.072.143-.072.215 0 .095.095.155.143.179.143l.429-.036c-.334-.167-.465-.381-.393-.643.143-.286.226-.501.25-.644a.539.539 0 0 0-.429.036c-.143.072-.25.119-.322.143-.238.095-.417.143-.536.143-.167.024-.322-.048-.465-.214h-1.18c.214.167.322.31.322.429a.632.632 0 0 0 .287-.109m1.073.501c-.048-.048-.072-.083-.072-.107.048-.095.119-.143.215-.143l.107.072c-.048.118-.131.178-.25.178m-3.504-.429l-.214.25c-.143.143-.25.167-.322.072-.143-.143-.107-.262.107-.358.143-.072.238-.203.286-.393l-.322-.143c-.048-.024-.203 0-.465.072-.167.048-.286-.024-.358-.214l-.179.858c.048.214.131.31.25.286.334-.095.536-.048.608.143l.036.608c.095.024.167.06.214.107.119.119.095.262-.071.429-.143.167-.238.477-.286.929.024.072.107.107.25.107l.071-.608c.238.167.393.238.465.215.071-.024.191-.191.357-.501v-.965c.191-.048.274-.167.25-.357-.024-.095-.083-.131-.179-.107l-.215.036-.036.036v-.072c.051-.216-.032-.359-.247-.43m11.833-13.013h-.393c-.095.191-.06.286.107.286.239.047.334-.048.286-.286m-1.108.071c.048-.215.179-.334.393-.358.238 0 .477.095.715.286.262.262.465.381.608.357a.218.218 0 0 0 .143-.143v-.179c.191-.048.286-.179.286-.393-.286-.119-.465-.179-.536-.179l-1.895-.107c-.745.634-1.639 1.087-2.681 1.358a5.877 5.877 0 0 0-.643.143c.119.079.179.234.179.465.429.262.417.572-.036.929-.286.215-.357.393-.214.536.095.095.191.095.286 0 .048-.048.119-.131.214-.25.119-.119.203-.179.25-.179.072 0 .107.048.107.143.095.381.238.417.429.107.31-.358.62-.322.93.107-.477 0-.775.226-.894.679-.524-.167-.918.072-1.18.715-.286.715-.703 1.18-1.251 1.394-.31.119-.56.322-.751.608-.119.167-.286.417-.5.751.334.072.536.143.608.215.167.119.191.334.072.643-.024.048-.083.119-.179.215s-.143.167-.143.215c-.024.167.024.226.143.179.167-.095.262-.107.286-.036.048.119.048.274 0 .465-.167.429-.215.727-.143.894.143-.024.31-.167.5-.429.167-.238.357-.346.572-.322l.751-2.717c.095-.31.286-.56.572-.751.262-.191.536-.286.822-.286.953-.048 1.597.143 1.931.572.071 0 .095-.107.071-.322-.024-.143.072-.167.286-.072a.99.99 0 0 0 .25.5l.322.286h.036c.453.262.727.489.822.679.048-.095.024-.25-.071-.465-.072-.167-.024-.262.143-.286.31-.024.465-.131.465-.322 0-.143-.071-.262-.214-.358-.143-.143-.215-.298-.215-.465.048-.215.072-.381.072-.5a.807.807 0 0 0 .071-.25c.024-.119-.024-.203-.143-.25-.095-.024-.274.012-.536.107-.119.072-.238.226-.357.465-.119.238-.25.381-.393.429-.071-.048-.095-.155-.071-.322 0-.143-.036-.238-.107-.286-.072.024-.107.083-.107.179.024.119-.012.179-.107.179-.214-.143-.346-.358-.393-.643 0-.334-.024-.596-.071-.786a.577.577 0 0 0-.215.465c.024.262.024.417 0 .465-.095.238-.203.393-.322.465-.286.167-.489.167-.608 0l-.214-.536c-.071.024-.131.131-.179.322-.048.143-.131.191-.25.143-.119-.048-.179-.143-.179-.286.024-.167.036-.286.036-.358l.179-.393c.214-.119.405-.071.572.143.214.262.369.405.465.429l.036-.608c-.215-.167-.286-.393-.215-.679.477-.262.703-.584.679-.965 0-.286.131-.369.393-.25.167.072.215.131.143.179l-.214.107c-.048.143-.036.322.036.536.048.072.083.191.107.358.048.143.131.191.25.143.238-.048.25-.238.036-.572-.072-.095-.072-.179 0-.25l.143-.215c.024-.048.071-.083.143-.107.072 0 .131.024.179.072.214.238.405.31.572.215.071-.048.214-.203.429-.465l-.179-.358c.048-.072.06-.107.036-.107-.024-.048-.072-.048-.143 0-.072-.024-.226-.179-.465-.465-.191-.215-.393-.31-.608-.286-.028.024-.075-.071-.147-.286m.25 5.22h-.107l.071-.072.036.072m-4.182.286a3.867 3.867 0 0 0-.072.429.447.447 0 0 1-.25.358c-.048.024-.107.012-.179-.036-.095-.048-.131-.119-.107-.214.095-.381.215-.632.358-.751.262-.048.345.023.25.214m11.869 33.676a48.546 48.546 0 0 0 2.36-.071l.25-.286c-.851.168-1.721.287-2.61.357m3.896-22.773l.143-.143-.107-.072-.036.215m-1.144 1.43c-.072.095-.048.203.071.322.095.143.143.262.143.358l.071.25c.024.048.048.167.072.358 0 .143.036.25.107.322.119.191.131.31.036.357a.179.179 0 0 1-.215 0 1.608 1.608 0 0 0-.214-.143c-.214.024-.334.048-.357.072-.119.048-.143.167-.072.358.453.405.572.989.358 1.752.095.215.191.238.286.072.048-.095.215-.322.501-.679.214-.286.346-.548.393-.787.095-.214.226-.31.393-.286.262.072.393.036.393-.107a1.509 1.509 0 0 1-.072-.357c-.31.048-.548-.012-.715-.179-.191-.191-.358-.548-.501-1.073.31.048.501-.012.572-.179.024-.072.036-.274.036-.608-.215.024-.465.131-.751.322l-.214-.179c-.118-.097-.225-.085-.321.034m-3.753 0c.214-.262.25-.596.107-1.001-.143-.5-.191-.846-.143-1.037l-.107-.072c-.214-.072-.381-.226-.5-.465a5.264 5.264 0 0 0-.25-.643 1.94 1.94 0 0 1-.107-.25.346.346 0 0 0-.215-.143c.167 1.216.477 2.157.93 2.824.07.144.165.406.285.787m2.86-2.466c-.238.119-.357.334-.357.643l-.036.358c-.214.167-.441.524-.679 1.072-.214.501-.465.834-.751 1.001-.119.095-.155.226-.107.393.381-.215.62-.107.715.322.095.643.143 1.084.143 1.323.024.5-.071.941-.286 1.323-.119.262-.238.298-.358.107-.238-.429-.334-.763-.286-1.001.024-.167.024-.489 0-.965-.048-.405-.024-.727.071-.965-.238.048-.429-.048-.572-.286-.214-.286-.369-.441-.465-.465l-.107.179c.071.191.131.715.179 1.573.024.643.179 1.132.465 1.466.024.024.036.119.036.286v.357c-.215-.048-.298-.179-.25-.393-.286-.214-.512-.131-.679.25a3.533 3.533 0 0 1-.179.393c-.071.143-.167.203-.286.179-.143-.024-.214-.119-.214-.286a1.68 1.68 0 0 0-.036-.393c-.095-.477-.06-.858.107-1.144.072-.143.06-.25-.036-.322a1.371 1.371 0 0 1-.358-.143c0 .643-.346.93-1.037.858-1.025-.048-1.799-.036-2.324.036l-.036.215 1.859.072c.453.048.632.179.536.393-.024.095-.024.262 0 .5-.024.191-.143.334-.357.429-.167.072-.405.131-.715.179s-.536.095-.679.143c.095.215.357.441.786.679.405.238.655.489.751.751.024.095.143.143.358.143.31 0 .608.215.894.643.095.215.143.346.143.393-.048.072-.191.072-.429 0-.262-.072-.667.167-1.216.715-.167.286-.346.346-.536.179-.405-.334-.941-.357-1.609-.071-.31.119-.572.071-.786-.143-.31-.405-.584-.405-.822 0-.071.119-.179.107-.322-.036-.214-.214-.369-.238-.465-.072-.072.143-.167.215-.286.215a2.287 2.287 0 0 1-.322-.072c-1.12-.191-2.085-.834-2.896-1.93a1.244 1.244 0 0 0-.036.357c-.048.143-.179.143-.393 0 .191.501.453.715.786.643.071-.024.131 0 .179.072l.143.143c.858.81 2.014 1.299 3.468 1.466.596.048.894.286.894.715 0 .048.06.131.179.25.334.262.489.405.465.429-.048.119-.155.179-.322.179-.191-.024-.31-.012-.357.036 0 .095.06.167.179.215.357.048.536.215.536.5 0 .143-.048.226-.143.25-.477.048-.751-.036-.822-.25-.048-.119-.179-.238-.393-.357-.214-.095-.334-.215-.357-.358 0-.048-.036-.06-.107-.036-.095 0-.167.024-.214.072-.167.191-.167.369 0 .536l.429.929c-.071-.071-.381-.286-.93-.643-.357-.238-.62-.5-.786-.786-.334-.5-.703-.739-1.108-.715a.713.713 0 0 0-.465.179 2.145 2.145 0 0 0-.286.25c-.095.119.012.31.322.572.119.215.393.465.822.751.429.262.715.512.858.751-.143.048-.334-.012-.572-.179-.191-.143-.358-.167-.501-.072l.358.393.25.179.107.143c-.048.072-.119.06-.214-.036l-.286-.143c-.238-.191-.417-.25-.536-.179.31.882.775 1.883 1.394 3.003.358.667.894 1.633 1.609 2.896.691 1.287 1.609 1.942 2.753 1.966v-.715c.024.119.155.25.393.393.238.119.334.262.286.429.381.191.62.155.715-.107l-.036-.107.071.072c.262.238.679.334 1.251.286.596-.024 1.025.036 1.287.179 0-.191-.107-.417-.322-.679-.214-.215-.286-.417-.214-.608a.267.267 0 0 1 .286.107c.095.119.155.191.179.215.286.524.584.822.894.894.31.048.965-.072 1.966-.357-.095-.31-.417-.655-.965-1.037.071.501-.107.691-.536.572a3.501 3.501 0 0 0-.608-.107c-.334 0-.548-.012-.643-.036.024-.453.071-.703.143-.751.071-.072.31-.06.715.036h.143c.191.095.334.072.429-.072.119-.119.083-.274-.107-.465l-2.252-2.789c-.238 1.025-.274 2.181-.107 3.468-.191-.024-.31-.119-.358-.286a4.196 4.196 0 0 0-.071-.465 7.712 7.712 0 0 1 .036-1.645c.119-.715.203-1.251.25-1.609.071-.501-.072-.882-.429-1.144-.31-.072-.381-.226-.214-.465.095-.119.06-.203-.107-.25-.167-.048-.405-.012-.715.107-.31.119-.548.167-.715.143.024-.095.143-.203.357-.322.262-.143.441-.274.536-.393a.904.904 0 0 0 .322-.608c.048-.381.226-.5.536-.357.119-.048.179-.167.179-.358-.191-.119-.286-.262-.286-.429 0-.072.036-.226.107-.465-.024-.143.024-.298.143-.465.167-.215.25-.369.25-.465-1.144.405-2.407.31-3.789-.286-.405-.167-.548-.357-.429-.572.071-.119.179-.167.322-.143.095 0 .238.024.429.072 1.716.31 3.027.083 3.932-.679.095-.095.238-.31.429-.643.143-.31.31-.512.5-.608.262-.143.453-.143.572 0 .143.167.274.226.393.179.071-.024.179-.131.322-.322l.215-.429c.024-.095.226-.834.608-2.216.238-.882.334-1.633.286-2.252.072-.262.119-.465.143-.608-.238.024-.393-.048-.465-.214a5.482 5.482 0 0 0-.143-.536l.715.143c.095-.405.143-.62.143-.644.024-.238-.083-.429-.322-.572-.143-.119-.119-.405.071-.858.212-.692.283-1.145.212-1.359m-2.36 6.756c.023 0 .035.012.036.036v-.036c.191.048.286.179.286.393v.036l-.107.072c-.143-.024-.215-.095-.215-.214.024-.144.024-.239 0-.287m-8.937 9.367l-.179-.179-.036-.143.179.036c.119.119.131.214.036.286m.536-.787c.238.024.357.179.357.465-.048.143-.107.191-.179.143-.262-.072-.405-.215-.429-.429-.023-.119.06-.179.251-.179m.786 1.824l.143-.107.143.107.072.643c0 .024-.048.203-.143.536-.048.238-.06.441-.036.608 0 .143-.048.215-.143.215-.119 0-.179-.06-.179-.179l.143-1.823m1.001 3.253c-.072-.286-.072-.524 0-.715.095.191.143.429.143.715l-.036.715c.001-.119-.035-.358-.107-.715m2.074-.322c-.167-.405-.131-.715.107-.93.143-.143.417-.262.822-.357-.072.667.119 1.215.572 1.645.596.548.81 1.132.644 1.752a2.57 2.57 0 0 1-.822-.858c-.119-.191-.298-.548-.536-1.073-.215-.405-.477-.465-.787-.179m-1.144-1.144c.167.405.179.989.036 1.752-.334-.238-.5-.524-.5-.858-.025-.334.13-.632.464-.894m.715-1.287c-.548-.048-.93-.215-1.144-.5l2.538.179c-.381.238-.846.345-1.394.321m2.145-1.287l.036.179-.107.429c-.048.167-.143.274-.286.322-.048.048-.107.048-.179 0-.048-.024-.072-.06-.072-.107.143-.406.346-.68.608-.823m-.751 1.895a.794.794 0 0 1 .322-.465c-.095.405-.203.703-.322.894v-.429m2.002 3.754c.238-.048.369.048.393.286-.309.143-.441.047-.393-.286m-3.468-.572c-.072-.072-.107-.143-.107-.214.048-.191.155-.262.322-.215.429.095.679.31.751.643-.095.024-.226-.024-.393-.143-.167-.095-.31-.095-.429 0-.024.024-.072 0-.144-.071m4.827-24.453a3.354 3.354 0 0 1-.214.25c-.095.095-.155.119-.179.072-.048-.215-.155-.286-.322-.215-.191.072-.31.083-.357.036a.92.92 0 0 0 .072.715.814.814 0 0 0 .608.322c.643.072.882.274.715.608-.119.215-.167.334-.143.358.024.024.143.024.357 0 .095-.024.155.012.179.107.024.024.048.083.072.179.238.381.429.346.572-.107-.262-.167-.429-.417-.501-.751-.024-.405-.06-.703-.107-.894-.024-.31-.179-.548-.465-.715-.121-.049-.216-.037-.287.035m1.215.822c.048.119.095.298.143.536.048.238.155.405.322.5.095-.167.107-.369.036-.608-.072-.31-.095-.512-.072-.608-.357-.07-.5-.011-.429.18m3.11.679a1.414 1.414 0 0 0-.143-.322c-.048-.095-.131-.346-.25-.751a2.027 2.027 0 0 0-.393-.751l-.143.536-.107-.679c-.214.5-.25 1.025-.107 1.573.048.191.226.667.536 1.43.048-.215.131-.31.25-.286.191.048.262.238.214.572l-.393-.214c-.119.262-.107.477.036.643.071.095.262.215.572.357.072.048.143.06.215.036.095-.024.131-.072.107-.143-.024-.119 0-.417.071-.894.072-.381.024-.691-.143-.93-.167.026-.274-.034-.322-.177m-5.434-7.293c.095.214.191.334.286.357.024-.143.048-.262.072-.357.024-.167-.048-.286-.215-.358-.262-.119-.489-.048-.679.215.238-.095.417-.047.536.143m.787-.214l-.143.107c0 .119.072.179.215.179l-.072-.286m3.503.75c-.119-.262-.31-.405-.572-.429 0 .524.107.93.322 1.215.381.453.25.751-.393.894.071.143.25.655.536 1.537.191.62.429 1.073.715 1.359.214-.358.155-.763-.179-1.216-.357-.524-.524-.918-.5-1.18.119-.024.226.036.322.179.095.167.191.25.286.25.048-.358.107-.584.179-.679l.036-.286a18.37 18.37 0 0 0-.179-.572c-.071-.215-.155-.369-.25-.465-.072-.046-.18-.249-.323-.607m2.539 10.547c-.071.095-.143.298-.214.608a.76.76 0 0 1-.393.536c.381-.024.62-.119.715-.286.07-.167.035-.453-.108-.858m-5.47-15.337c-.119.024-.155.107-.107.25.024.191 0 .31-.072.357a60.582 60.582 0 0 0-.93-1.287 8.113 8.113 0 0 0-1.108-1.216c-.596-.453-1.073-.691-1.43-.715.119.31.179.62.179.93l.143.143.107.143c.548.191.727.548.536 1.072l-.536-1.037-.286-.286-.393-.143c-.191-.191-.358-.215-.501-.072-.071.072-.083.155-.036.25.048.048.107.119.179.215.072.214.215.393.429.536.119.095.31.238.572.429.048.048.107.095.179.143.072.072.095.155.072.25-.167.572-.131 1.251.107 2.038.167.357.179.608.036.751-.048.072-.143.072-.286 0a1.096 1.096 0 0 0-.393-.107c-.143.024-.214-.024-.214-.143a.71.71 0 0 0 0-.322c-.095-.477-.143-.62-.143-.429-.095.119-.25.191-.465.214-.238.024-.393.072-.465.143-.191.191-.25.441-.179.751.095.381.119.62.072.715 0 .024-.155.203-.465.536-.214.238-.274.477-.179.715.095.238.036.381-.179.429-.215.095-.286.238-.215.429.31-.238.632-.274.965-.107-.5.953-.751 1.74-.751 2.36-.048-.191-.226-.298-.536-.322-.262-.024-.369-.179-.322-.465-.119-.048-.179-.06-.179-.036-.072.072-.191.107-.358.107-.167.024-.286.06-.357.107-.357.334-.524.25-.5-.25.048-.358-.072-.417-.357-.179-.358.286-.548.512-.572.679s.119.453.429.858a2.41 2.41 0 0 0 1.18.143 10.62 10.62 0 0 0 1.18-.322l-.858-.143c.31-.143.524-.215.643-.215.215-.024.381.083.501.322.167 0 .357.083.572.25.262.191.441.298.536.322a.322.322 0 0 1 .179.215c0 .072-.012.167-.036.286 0 .238-.119.357-.357.357h-1.073c-.31.024-.322.119-.036.286.739.119 1.239.25 1.502.393.429.215.643.155.643-.179.024-.31.095-.453.214-.429.095.024.238.095.429.215.048-.381.369-.691.965-.93.381-.143.858-.226 1.43-.25.31 0 .775-.012 1.394-.036.095-.262.286-.322.572-.179.048.024.012.095-.107.215.167.167.298.167.393 0 .167-.167.203-.429.107-.786-.048-.167-.262-.596-.643-1.287-.191-.334-.25-.786-.179-1.359.143-.62.214-.977.214-1.072 0-.405-.191-.715-.572-.93-.048.048-.155.238-.322.572a1.168 1.168 0 0 1-.429.465c-.024.191-.095.298-.215.322-.048 0-.155-.012-.322-.036.048.119.143.369.286.751.119.31.262.548.429.715.215.215.191.441-.071.679.048.215 0 .369-.143.465-.191.072-.346.131-.465.179-.238.024-.405.06-.5.107-.167.071-.143.25.072.536.119.119.083.179-.107.179-.024 0-.274.06-.751.179-.31.072-.548.024-.715-.143-.095-.095-.179-.095-.25 0-.071.095-.143.107-.214.036.405-.786.393-1.585-.036-2.395-.238-.5-.107-.691.393-.572.024.024.095-.012.215-.107.095-.072.143-.131.143-.179-.048-.334-.25-.524-.608-.572l-.179.072v-.036l.143-.072.322-.214a.444.444 0 0 0 .215-.322c0-.238.095-.322.286-.25.238.095.477.06.715-.107.357-.262.548-.393.572-.393.167-.072.238-.191.214-.358a.688.688 0 0 0-.214-.5c-.405-.381-.608-.87-.608-1.466.167.167.31.465.429.894.095.024.262.012.5-.036.167 0 .203.155.107.465l-.036.143c.191-.048.381.06.572.322.191.286.369.417.536.393.167-.334.334-.334.5 0 .167.262.358.358.572.286.024-.072-.024-.179-.143-.322-.095-.119-.095-.226 0-.322.095.024.262.155.5.393.215.214.441.262.679.143-.405-.524-.667-.822-.786-.894-.143-.095-.191-.191-.143-.286.024-.143.143-.179.357-.107.238.143.405.274.501.393l.858 1.108c.119-.215.095-.453-.071-.715-.167-.334-.25-.56-.25-.679-.143.024-.191-.024-.143-.143-.262-.048-.31-.167-.143-.357-.167-.238-.334-.405-.5-.5-.381.143-.501.024-.358-.358a.328.328 0 0 0-.25-.215c-.214.072-.346.143-.393.215-.071.095-.024.238.143.429.119.119.107.25-.036.393-.119.095-.238.048-.357-.143-.214-.381-.334-.632-.357-.751a1.408 1.408 0 0 0-.107-.429c-.047-.14-.154-.2-.321-.176m.715 2.324l.107-.036.071.107-.107.036-.071-.107m-3.325-1.538c.31.524.429.965.357 1.323-.309-.31-.428-.751-.357-1.323m16.266 4.576v.25c.215.072.393.012.536-.179.215-.262.465-.322.751-.179 0 .167-.072.274-.215.322-.238.072-.369.119-.393.143.095.119.095.226 0 .322a2.203 2.203 0 0 0-.215.179c-.095.191-.107.334-.036.429.048.095.155.131.322.107.5-.048.822-.191.965-.429-.357-.119-.393-.322-.107-.608.262-.262.298-.536.107-.822h-.322l-.25-.036c-.072-.048-.06-.143.036-.286.119-.119.155-.226.107-.322-.024-.048-.119-.119-.286-.215a9.994 9.994 0 0 0-.572.608c-.213.24-.356.478-.428.716m-3.789-4.826l-.107.036-.143.286-.25.179h.179l.179-.107.143-.25c.047-.072.047-.12-.001-.144m-1.037-.894h-.215l-.143.214c-.358.62-.262 1.073.286 1.359l-.143-.501c-.071-.167-.083-.417-.036-.751l.251-.321m2.181 1.895h.036l.036-.072h-.107l.035.072m.643-.572c.072-.048.095-.131.072-.25l-.143-.071c-.095.024-.155.071-.179.143a1.102 1.102 0 0 0-.072.215c-.048.095-.048.155 0 .179l.322-.216m-9.187-2.967c.119-.024.203.024.25.143.048.095.095.214.143.357.143.238.274.369.393.393l-.036-.286c-.048-.215-.191-.512-.429-.894-.215-.381-.346-.679-.393-.894l-.322-.072c0 .429-.024.727-.071.894-.072.31-.238.584-.5.822.119 0 .262.048.429.143.143.095.262.119.358.071.024-.048.024-.179 0-.393-.025-.165.035-.26.178-.284z" fill="#b1b3b6"/><path d="M-539.22-333.427h-.786a1.998 1.998 0 0 1-.25.357c-.095.167-.119.322-.071.465h1.18c.357-.048.489-.238.393-.572-.025-.214-.18-.297-.466-.25m12.798-9.259c.095-.238.262-.334.5-.286.358.072.572.095.643.072-.262-.238-.477-.381-.643-.429-.214-.072-.441-.012-.679.179-.119.119-.131.25-.036.393.024.048.06.083.107.107.049 0 .084-.012.108-.036m-7.4-17.017a.225.225 0 0 0-.071.036c-.47.311-.756.537-.858.679.262.024.5-.048.715-.215.143-.095.322-.25.536-.465l.608-.393c-.25.107-.477.226-.679.358h-.251m-5.184 6.935l-.179-.215c-.548.477-.727 1.001-.536 1.573l.286-.215c.334-.238.524-.405.572-.501.024-.093-.024-.308-.143-.642m.107-2.037h-.036a4.63 4.63 0 0 0-.107.286 2.268 2.268 0 0 1-.214.5 1.438 1.438 0 0 1-.107.143.453.453 0 0 0 .107-.107l.214.357.215-.036.107-.393c-.048-.071-.107-.321-.179-.75m.966-1.037c.334-.429.632-.703.894-.822.334-.31.548-.62.643-.929-.286.167-.584.417-.894.751a5.533 5.533 0 0 1-.393.393c-.108.145-.239.3-.393.465l-.286.286-.036.036c-.001.047.023.094.072.143h.179l.214-.323m27.348 27.063c-.024-.167-.155-.25-.393-.25 0 .309.131.393.393.25m-1.144.715c0 .048.036.143.107.286.024.119-.06.167-.25.143.334.524.739.596 1.215.214.548-.429.584-.882.107-1.358-.119.119-.131.298-.036.536 0 .072-.012.167-.036.286-.024.095-.095.155-.215.179-.167 0-.274-.131-.322-.393 0-.286-.072-.429-.215-.429-.188.023-.307.202-.355.536m-.25.143c-.048.191-.012.298.107.322v-.179c-.023-.072-.059-.119-.107-.143m.608-1.788a.861.861 0 0 0-.5.501l.572.036c.429-.167.655-.417.679-.751-.453.119-.703.19-.751.214m-1.68.107c-.214-.095-.346-.06-.393.107.334.191.489.465.465.822a16.52 16.52 0 0 1-.143.929c.238-.072.369-.214.393-.429.024-.262.036-.453.036-.572-.001-.428-.12-.714-.358-.857m-.751-.143c-.238-.095-.465-.012-.679.25-.191.262-.226.655-.107 1.18.119.524.334.834.643.93.262.072.429.107.5.107.191-.024.298-.179.322-.465-.024 0-.143.072-.357.215-.143.095-.25.012-.322-.25-.071-.334-.083-.834-.036-1.501a1.02 1.02 0 0 0 .179-.215c.071-.119.024-.203-.143-.251m-1.287 3.039a.579.579 0 0 0-.465.214c.048.048.143.107.286.179a.452.452 0 0 1 .25.214c.072.143.191.203.358.179.095 0 .238-.024.429-.072.072 0 .131-.036.179-.107s.048-.143 0-.214c-.095-.286-.298-.405-.608-.358a3.97 3.97 0 0 0-.429-.035m-3.825-3.217c-.31.095-.346.238-.107.429.453-.286.739-.226.858.179.191.477 0 .751-.572.822-.643.31-.918.643-.822 1.001.024.191.167.286.429.286l.608-.072c.143.024.31.012.5-.036.215-.095.298-.262.25-.501 0-.238-.131-.322-.393-.25-.191.072-.31.048-.357-.072l.536-.5c.286-.31.298-.632.036-.965-.216-.333-.537-.44-.966-.321m2.788.5l.107.072c.286.024.465.131.536.322v.572c0 .048-.048.191-.143.429-.071.167-.083.31-.036.429.286-.215.441-.572.465-1.072 0-.501-.131-.87-.393-1.108-.215-.191-.524-.179-.93.036-.31.167-.381.417-.215.751.191.286.167.501-.071.644-.238.167-.334.334-.286.5.048.095.167.238.357.429.358.334.703.274 1.037-.179-.215-.143-.322-.238-.322-.286l-.143.107c-.167-.143-.238-.417-.214-.822.025-.431.108-.705.251-.824m5.184-2.502c-.024-.119-.131-.179-.322-.179-.119.024-.262.143-.429.357-.143.191-.298.274-.465.25 0 .048-.036.119-.107.214-.024.072-.012.131.036.179.143.143.274.119.393-.072.191-.215.417-.381.679-.501.024-.024.083-.048.179-.072.072-.021.084-.081.036-.176m-8.08.035a.888.888 0 0 1-.643.286 3.273 3.273 0 0 0-.179.322c-.095 0-.143-.036-.143-.107a.5.5 0 0 0-.036-.215h-.393c.058.155.13.274.215.358l.071.072.107.107.143.072c.191.048.489-.06.894-.322l-.036-.573m3.003.894l.465-.286c.405-.477.822-.584 1.251-.322v-.25h.071c.048.191.036.322-.036.393-.072.215-.048.346.071.393.048.024.179.036.393.036.167-.024.334-.083.5-.179l.429-.322.214-.215c.095-.072.191-.06.286.036l.072-.429-.286-.214c-.048 0-.155.071-.322.214-.119.095-.238.131-.357.107l-.036-.036h.036c-.048-.119-.024-.262.072-.429.119-.167.179-.31.179-.429-.31-.024-.667.119-1.073.429-.453.357-.703.274-.751-.25l-.465.536c-.238.548-.572.846-1.001.894-.045.168.05.276.288.323m2.324-.786l-.107-.072.107-.036.107.036-.107.072m-2.753.321c-.002-.072-.085-.132-.25-.179-.143-.048-.203-.143-.179-.286a.49.49 0 0 0-.358.072 9.83 9.83 0 0 1-.322.179c-.215.095-.369.083-.465-.036-.024-.048.024-.191.143-.429l.107-.107c.119-.167.119-.274 0-.322-.071-.024-.107.048-.107.215l-.179.107-.286.322c-.024.048.012.155.107.322.071.119.012.203-.179.25.024.238.107.358.25.358.048.024.179 0 .393-.072a3.96 3.96 0 0 0 .679-.215c.265-.119.48-.179.646-.179m1.037-3.324c-.048.119-.214.5-.5 1.144-.214.453-.346.834-.393 1.144.215.072.274.262.179.572.048.119.131.167.25.143.071-.024.095-.072.071-.143a.585.585 0 0 1-.036-.143c0-.119.036-.167.107-.143-.024-.119.012-.262.107-.429.095-.143.155-.262.179-.358a5.95 5.95 0 0 0 .393-.715c.167-.286.262-.536.286-.751.048-.238-.036-.393-.25-.465-.238-.047-.369.001-.393.144m-3.325.715c-.191-.238-.381-.334-.572-.286-.286.215-.393.358-.322.429.167.167.203.322.107.465-.048.095-.155.203-.322.322l-.5.608a4.186 4.186 0 0 1-.965.536c-.31.095-.405.286-.286.572.072.143.167.191.286.143l.215-.214c.048-.024.262-.072.643-.143v.036c.048-.191.095-.298.143-.322v-.572l.465.036a5.551 5.551 0 0 0 1.108-1.61m10.261-.751c-.262-.167-.441-.107-.536.179.286-.024.381.095.286.358a4.797 4.797 0 0 0-.215.286c-.072.095-.072.203 0 .322.191-.072.381-.274.572-.608.143-.239.107-.418-.107-.537m-1.538 2.038v.036h.036v-.036h-.036m.894.286c.191.024.274.143.25.357-.048.262.024.393.215.393.167.048.334-.06.5-.322l-.25.107c-.119.048-.167-.06-.143-.322.024-.428-.167-.499-.572-.213m.822-.608c.262.072.405.036.429-.107.024-.119-.012-.203-.107-.25-.143 0-.25-.012-.322-.036-.691-.119-1.216.083-1.573.608l.036-.036a.348.348 0 0 1-.143.179c0 .143-.048.238-.143.286l-.286.536c-.262.405-.167.608.286.608.143-.024.453-.012.93.036.358.048.655.024.894-.072 0-.119-.036-.203-.107-.25-.072-.072-.155-.072-.25 0-.167.119-.334.143-.5.072a6.499 6.499 0 0 1-.429-.286c-.357.072-.465-.036-.322-.322.356-.811.892-1.133 1.607-.966m-.858-1.394a.341.341 0 0 0-.143.286.431.431 0 0 0-.286.286c.167.024.274-.06.322-.25.119-.072.155-.179.107-.322m-.965.679c-.214.024-.286.083-.214.179.191.238.226.465.107.679-.072.095-.191.25-.358.465.048 0 .131-.012.25-.036h.143c-.048-.119.012-.203.179-.25 0-.095.048-.143.143-.143-.048-.214.048-.548.286-1.001a8.28 8.28 0 0 0-.536.107m2.753 2.288c.191-.405.131-.655-.179-.751-.024.453-.226.906-.608 1.359a6.036 6.036 0 0 1-.286.572c-.119.215-.25.369-.393.465l-.143.072.036-.179c.024-.072.048-.131.072-.179 0-.095-.024-.167-.072-.214-.357.453-.417.727-.179.822.167.119.322.131.465.036.048-.048.143-.167.286-.358l1.001-1.645m1.501-5.077c.048.191.155.274.322.25.31-.071.775.036 1.394.322a2.602 2.602 0 0 1-.25.179c-.119.072-.155.167-.107.286l.608.143c.119-.191.226-.453.322-.786.095-.334.167-.596.215-.786.048-.238-.072-.381-.358-.429-.262-.048-.334.072-.215.357.072.119.06.203-.036.25l-.286.143c-.191.167-.453.203-.786.107-.406-.071-.68-.083-.823-.036m.358-.822c-.024.024-.072.143-.143.357.119 0 .322.06.608.179.262.095.477.131.643.107-.048-.143-.155-.238-.322-.286-.238-.072-.381-.143-.429-.214-.166-.19-.286-.238-.357-.143m.751-2.431c-.429.381-.512.775-.25 1.18l.929-.965c-.286-.334-.513-.405-.679-.215m1.966.751c-.095-.453-.369-.632-.822-.536l.072.143c.191.072.238.131.143.179-.143.072-.346.286-.608.643-.214.31-.465.489-.751.536.238.119.5.107.786-.036.095-.048.203-.024.322.072s.215.143.286.143l.179-.072c.286-.381.417-.738.393-1.072m.25-3.003c.024-.095.012-.179-.036-.25s-.119-.083-.215-.036c-.143.072-.334.095-.572.072a3.51 3.51 0 0 0-.608.036c-.31.095-.501.155-.572.179-.167.119-.262.31-.286.572-.048.548.191.858.715.93l.036-.322c-.262-.095-.357-.238-.286-.429.048-.119.191-.179.429-.179l1.645.215c-.19-.264-.274-.526-.25-.788m-1.823.286l-.143.036.036-.179c.524-.167 1.049-.119 1.573.143h-1.466m.25-1.931c.024.095-.024.143-.143.143 0 .095-.048.143-.143.143 0 .095-.06.143-.179.143l-.072-.036h-.072c0 .262.036.417.107.465.071.072.191.024.357-.143.191-.31.489-.405.894-.286.381.143.608.06.679-.25.143-.739.048-1.275-.286-1.609-.048.572-.334.81-.858.715l-.393.25.214.179c.119 0 .179.048.179.143-.022.143-.117.191-.284.143m1.18-.143c.024.119-.048.179-.215.179-.095.024-.155-.012-.179-.107s-.048-.167-.072-.215c-.072-.167.012-.25.25-.25.168 0 .24.131.216.393m-1.287-.321c0-.095-.083-.143-.25-.143-.191-.024-.262-.107-.214-.25l-.286-.25c.024.048.048.226.072.536.024.215.131.357.322.429.141-.191.261-.298.356-.322m.465-3.146c.119.072.167.143.143.215-.167.119-.417.191-.751.215-.381.048-.643.095-.786.143.143.191.322.226.536.107.453-.238.846-.119 1.18.357.024.048.012.143-.036.286-.048.095-.024.179.072.25.072.048.203.036.393-.036.119-.072.155-.238.107-.501l-.25-1.037c-.048-.262-.143-.405-.286-.429a.531.531 0 0 0-.393.143c-.072.096-.049.191.071.287m1.215-.68c.078.229.149.456.215.679a9.846 9.846 0 0 1 0-.643 1.27 1.27 0 0 1-.215-.036m-2.216-3.539c-.191-.31-.322-.286-.393.072.262.286.31.477.143.572-.286.095-.477.179-.572.25l-.25.107c-.286.143-.524.226-.715.25.191.405.357.763.5 1.073.072.119.274.072.608-.143-.31-.095-.489-.226-.536-.393-.048-.286.012-.453.179-.5.191-.072.286.024.286.286-.024.31.095.358.358.143.024 0 .083-.048.179-.143.048-.048.107-.06.179-.036.381.143.596.131.643-.036.024-.072-.024-.274-.143-.608l-.466-.894m-33.391 8.938c-.071.238.024.334.286.286-.048-.239-.143-.334-.286-.286m-.322 4.54c.262-.119.441-.155.536-.107-.095-.143-.072-.274.071-.393.191-.143.286-.238.286-.286.024-.31-.107-.405-.393-.286a1.028 1.028 0 0 1-.393.644c-.119.095-.334.203-.643.322.143.142.322.177.536.106m.322-1.466l-.071-.25c-.072.024-.095.072-.072.143v.072l.143.035m-.894-2.574c-.095.143-.179.214-.25.214a.37.37 0 0 1-.357.215 2.94 2.94 0 0 0-.393-.036l-.072.036-.036-.036c-.191.048-.334.191-.429.429-.119.286-.203.453-.25.5-.191-.238-.322-.596-.393-1.072-.072-.548-.155-.918-.25-1.108-.167.143-.203.334-.107.572-.119.477-.155.846-.107 1.108.048.405.25.739.608 1.001.286.167.453.274.5.322.167.167.179.381.036.643.572.024.882-.274.93-.894.071-.405.143-.655.214-.751.048.024.107.155.179.393.048.143.167.179.357.107-.072-.286-.024-.846.143-1.68-.144-.094-.251-.082-.323.037m14.837 12.799c-.024-.191.012-.429.107-.715.143-.429.214-.667.214-.715-.31-.143-.489-.024-.536.357a.906.906 0 0 1-.322.608c-.095.119-.274.25-.536.393-.214.119-.334.226-.357.322.167.024.405-.024.715-.143.309-.119.548-.155.715-.107m-4.576-10.01c.095-.095.441-.131 1.037-.107h.322l.357-.072.036-.215c-.191-.048-.5-.06-.93-.036-.405.024-.715 0-.93-.072-.405-.095-.643.107-.715.608-.024.167-.012.56.036 1.18.286.238.441.25.465.036.024-.286.06-.429.107-.429.048-.524.119-.822.215-.893m.75-3.218c.191-.286.298-.56.322-.822-.477.095-.775.262-.894.5-.143.238-.131.584.036 1.037.238-.31.417-.548.536-.715m-7.114-1.716c.071.31.06.536-.036.679.048.286.155.322.322.107.31-.524.262-1.001-.143-1.43-.143.144-.191.358-.143.644m.25-1.966c0-.024-.083 0-.25.072l-.25.572-.036.25.429.036c.143-.095.203-.238.179-.429a2.472 2.472 0 0 1-.072-.501m4.648-1.216l.179-.072-.179-.215h-.465c.048.097.203.192.465.287m-.465-2.574l.143.322c-.31.072-.572.31-.786.715-.262.453-.477.727-.643.822l-.036.107c-.214.048-.286.155-.214.322v.036l-.179.465c-.095.405.143.858.715 1.359.119.095.25.083.393-.036a8.81 8.81 0 0 0 .358-.429c-.358-.548-.429-1.025-.215-1.43.072-.238.119-.358.143-.358.215.072.512.048.894-.072a.631.631 0 0 1 .286-.072l-.036.036-.107.072.036.179.179-.143c.024-.072.012-.131-.036-.179h.107a1.23 1.23 0 0 1 .5-.036c.31.048.501.131.572.25.024.048.048.203.072.465 0 .191-.048.477-.143.858a.55.55 0 0 1-.072.215.298.298 0 0 0 .036.25c.095.048.179.048.25 0l.179-.107.286-.072c0-.119.095-.465.286-1.037.143-.429.143-.786 0-1.073-.286-.167-.274-.262.036-.286h1.073c.238 0 .357-.119.357-.357.024-.119.036-.215.036-.286a.321.321 0 0 0-.179-.215c-.095-.024-.274-.131-.536-.322-.214-.167-.405-.25-.572-.25l-.286.036a10.56 10.56 0 0 1-1.18.322c-.429.048-.822 0-1.18-.143l-.537.072m.751 1.323a1.332 1.332 0 0 0-.643.286c.048-.357.214-.596.5-.715.167-.072.417-.167.751-.286.072-.048.119-.036.143.036l.107.215c.047.096.036.167-.036.215a.587.587 0 0 1-.179.036 4.962 4.962 0 0 1-.643.213m-3.504-3.325c-.215-.024-.405.083-.572.322-.191.262-.357.405-.5.429l-.036.179c.048.024.131.048.25.072.072.048.107.119.107.215 0 .119-.095.155-.286.107-.072.072-.179.286-.322.643-.143.262-.298.429-.465.501l-.572.286c.095.119.214.155.357.107a.587.587 0 0 1 .179-.036.156.156 0 0 1 .107-.036c-.024-.024-.024-.048 0-.072.048-.072.072-.119.072-.143l.071.072c.095.095.071.167-.071.215-.024.072-.083.131-.179.179-.119.072-.191.143-.214.215.191.095.405.048.643-.143.048-.072.155-.107.322-.107.74-.764 1.109-1.765 1.109-3.005m5.971-7.15a.343.343 0 0 0 .179.143l.036-.322a.324.324 0 0 0-.358 0l.143.179m4.576 2.968l-.179-.572c-.119-.429-.262-.727-.429-.894 0 .596.202 1.084.608 1.466m-13.907 11.94c.048.072.012.191-.107.358-.095.143-.083.215.036.215.262.024.393.107.393.25 0 .095-.024.226-.072.393l.286-.143.072-.822-.072-.179-.322-.107-.214.035m-.536 3.79l-.143-.072c-.191.119-.31.369-.358.751l.072.25c.309-.357.452-.667.429-.929m-3.325-3.003c-.167.143-.143.358.071.643.191.286.417.441.679.465.024 0 .071-.095.143-.286.071-.143.191-.119.357.072l.25-.036c.143-.31.322-.429.536-.357l.5.357c.072-.119.072-.25 0-.393l-.214-.357a23.475 23.475 0 0 1-.214-.608 1.145 1.145 0 0 1-.072-.679c0-.119.048-.191.143-.215.095 0 .167.083.214.25.024.024.083.072.179.143.072.071.143.107.214.107v-.215c-.119-.262-.107-.453.036-.572.143-.072.25-.072.322 0a.771.771 0 0 1 .143.25c.048.072.214.131.5.179l.286-.036c0-.072.048-.155.143-.25s.155-.167.179-.215c-.071-.095-.274-.072-.608.072-.286.095-.429-.048-.429-.429-.715-.048-1.359.358-1.93 1.216l.071-1.645-.25-.036c-.167.31-.286.477-.357.501-.072.024-.226-.048-.465-.215l-.071.608a4.98 4.98 0 0 0 0 .858c.001.334-.118.608-.356.823m.608-1.216l-.071-.143.143-.107.107.179-.179.071m.679 1.752c0-.024-.048-.143-.143-.357-.071-.143-.048-.262.071-.358.119-.095.226-.06.322.107.095.119.107.238.036.358a9.213 9.213 0 0 1-.286.25m-1.68-4.54c-.119.024-.203-.072-.25-.286-.119.024-.203.143-.25.357-.191.643-.191 1.525 0 2.646l.286-.107c.238-.238.477-.369.715-.393.048-.453.143-.763.286-.929.167-.167.191-.31.071-.429a.453.453 0 0 0-.214-.107l-.036-.608c-.072-.192-.275-.24-.608-.144m4.182.357l.107-.107a.384.384 0 0 0 .143-.072c.048-.048.048-.095 0-.143s-.143-.024-.286.072l-.393.25c-.143.072-.179.143-.107.215l.25-.072.286-.143m.465-.465c0 .024.024.06.072.107.119 0 .203-.06.25-.179l-.107-.072c-.096.001-.167.049-.215.144m-.679-.464c-.095-.048-.203-.024-.322.072-.119.072-.214.107-.286.107-.334.286-.548.524-.643.715.667-.191 1.084-.489 1.251-.894m-2.467-.358a2.48 2.48 0 0 1-.429.072c-.048.191-.143.322-.286.393-.215.095-.25.215-.107.358.071.095.179.072.322-.072l.214-.25c.048-.095.191-.179.429-.25.215-.048.346-.131.393-.25-.143-.072-.321-.072-.536-.001m-.465-1.573c-.048-.048-.095-.072-.143-.072-.048-.048-.095-.048-.143 0-.214.215-.274.381-.179.501.119.191.131.334.036.429l-.357.179a.536.536 0 0 0-.322.322c.072.191.191.262.358.214.262-.072.417-.095.465-.072.214-.048.31-.179.286-.393-.048-.286-.036-.465.036-.536.166-.214.154-.405-.037-.572m11.297-11.225c-.214.024-.346.143-.393.358l.715-.072h.393c-.238-.191-.476-.286-.715-.286m-4.397 6.292c.024-.191.048-.334.072-.429.095-.191.012-.262-.25-.215-.143.119-.262.369-.358.751-.024.095.012.167.107.214.071.048.131.06.179.036a.444.444 0 0 0 .25-.357m14.55 32.89l.322-.322.072-.072a.175.175 0 0 1-.072.036c-.357.095-.679-.024-.965-.357-1.263-1.621-2.443-3.015-3.539-4.183a1.128 1.128 0 0 1-.25-.822c.024-.31-.06-.548-.25-.715-.167-.167-.369-.215-.608-.143.357.262.5.643.429 1.144-.048.357-.131.894-.25 1.609a7.778 7.778 0 0 0-.036 1.645c.024.095.048.25.071.465.048.167.167.262.358.286-.167-1.287-.131-2.443.107-3.468l2.252 2.789c.191.191.226.346.107.465-.095.143-.238.167-.429.072h-.143c-.405-.095-.643-.107-.715-.036-.072.048-.119.298-.143.751.095.024.31.036.643.036.238.024.441.06.608.107.429.119.608-.072.536-.572.548.381.87.727.965 1.037-1.001.286-1.656.405-1.966.357-.31-.072-.608-.369-.894-.894a3.842 3.842 0 0 1-.179-.215.267.267 0 0 0-.286-.107c-.071.191 0 .393.214.608.215.262.322.489.322.679-.262-.143-.691-.203-1.287-.179-.572.048-.989-.048-1.251-.286l-.036.036c-.095.262-.334.298-.715.107-.334 0-.56-.036-.679-.107-1.144-.024-2.062-.679-2.753-1.966a154.505 154.505 0 0 1-1.609-2.896c-.62-1.12-1.084-2.121-1.394-3.003.119-.072.298-.012.536.179l.286.143c.095.095.167.107.214.036l-.107-.143-.25-.179-.358-.393c-.334-.048-.584-.298-.751-.751-.214-.62-.608-1.501-1.18-2.646l-1.537-3.074c-.095-.167-.095-.286 0-.357l.036-.143c-.024-.095-.131-.203-.322-.322-.191-.095-.274-.215-.25-.358-.119-.286-.214-.5-.286-.643-.095-.238-.048-.453.143-.643l-.214-1.394c0 .095-.072.274-.215.536-.143.191-.191.369-.143.536.048.667.226 1.406.536 2.216.024.095.322.786.894 2.073l.286.715h-.036l.143.143c.048.024.083.072.107.143a.316.316 0 0 1 .036.143c.405.62.715 1.275.93 1.966.429 1.239.822 2.145 1.18 2.717.62 1.335 1.859 3.587 3.718 6.757a7.72 7.72 0 0 1-1.144-.322l.393.25c.348.222.717.425 1.108.608.308.144.63.275.965.393.306.022 1.045.093 2.216.215.751.016 1.501.04 2.252.071.561.01 1.109.01 1.644 0 .893-.071 1.763-.19 2.613-.358m-.214-18.733c.072.215.024.489-.143.822-.262.572-.095.882.501.93.214-.763.095-1.347-.358-1.752m-1.752-.93c-.095-.429-.334-.536-.715-.322v.143c-.095.238-.119.56-.071.965.024.477.024.798 0 .965-.048.238.048.572.286 1.001.119.191.238.155.358-.107.214-.381.31-.822.286-1.323-.001-.237-.049-.678-.144-1.322m2.467-.036c-.024-.191-.048-.31-.072-.358-.286.048-.405.179-.357.393.024.119.072.286.143.5.048.024.119.072.214.143a.179.179 0 0 0 .215 0c.095-.048.083-.167-.036-.357-.071-.07-.107-.178-.107-.321m-8.759 17.482c0 .072.036.143.107.214.071.072.119.095.143.072.119-.095.262-.095.429 0 .167.119.298.167.393.143-.071-.334-.322-.548-.751-.643-.166-.048-.273.024-.321.214m3.968 1.073c-.024-.238-.155-.334-.393-.286-.048.333.084.429.393.286m-2.073-4.505a.794.794 0 0 0-.322.465v.429c.119-.191.227-.489.322-.894m.465-1.251l-.036-.179c-.262.143-.465.417-.608.822 0 .048.024.083.072.107.071.048.131.048.179 0 .143-.048.238-.155.286-.322l.107-.428m-3.325.608c.214.286.596.453 1.144.5.548.024 1.013-.083 1.394-.322l-2.538-.178m.465 3.539c.143-.763.131-1.347-.036-1.752-.334.262-.489.56-.465.894 0 .334.167.62.501.858m1.215-1.537c-.238.215-.274.524-.107.93.31-.286.572-.226.786.179.238.524.417.882.536 1.073.214.358.489.643.822.858.167-.62-.048-1.204-.644-1.752-.453-.429-.643-.977-.572-1.645-.404.095-.678.214-.821.357m-2.181.536c-.072.191-.072.429 0 .715.071.358.107.596.107.715l.036-.715c0-.286-.047-.524-.143-.715m-.858-2.646l-.143.107-.143 1.823c0 .119.06.179.179.179.095 0 .143-.072.143-.215a1.826 1.826 0 0 1 .036-.608c.095-.334.143-.512.143-.536l-.072-.643-.143-.107m-1.644-1.108l.179.179c.095-.072.083-.167-.036-.286l-.179-.036.036.143m11.833-27.098c.119-.143.071-.262-.143-.357-.167.19-.119.309.143.357m.143.143l-.036-.179-.107.036c-.048.119 0 .167.143.143m-1.394 0c-.048.095 0 .191.143.286.119.072.381.369.786.894-.238.119-.465.072-.679-.143-.238-.238-.405-.369-.5-.393-.095.095-.095.203 0 .322.119.143.167.25.143.322-.214.072-.405-.024-.572-.286-.167-.334-.334-.334-.5 0l.036.286c.381.214.572.524.572.93 0 .095-.071.453-.214 1.072-.071.572-.012 1.025.179 1.359.381.691.596 1.12.643 1.287.095.358.06.62-.107.786-.095.167-.226.167-.393 0l-.465-.036c-.62.024-1.084.036-1.394.036-.572.024-1.049.107-1.43.25-.596.238-.918.548-.965.93.024.596.143 1.251.357 1.966.048.095.262.715.643 1.859.167.5.167 1.049 0 1.645-.191.596-.465.953-.822 1.073.667.262 1.049.453 1.144.572s.083.405-.036.858c.072.048.191.095.358.143.095.072.107.179.036.322-.167.286-.203.667-.107 1.144.024.095.036.226.036.393s.071.262.214.286c.119.024.215-.036.286-.179a3.94 3.94 0 0 0 .179-.393c.167-.381.393-.465.679-.25l.25.036c0-.167-.012-.262-.036-.286-.286-.334-.441-.822-.465-1.466-.048-.858-.107-1.382-.179-1.573l.107-.179.107-.393c-.119-.381-.214-.643-.286-.786-.453-.667-.763-1.609-.93-2.824l-.071-.393c-.072-.048-.107-.143-.107-.286l-.107-.179-.072-.25c-.143-.477.024-.786.5-.93.215-.072.334-.095.358-.072.024.024 0 .155-.072.393.048.048.167.036.357-.036.167-.072.274 0 .322.215.024.048.083.024.179-.072.048-.048.119-.131.214-.25.071-.071.167-.083.286-.036.286.167.441.405.465.715.048.191.083.489.107.894.072.334.238.584.501.751l.322-.465c-.167-.095-.274-.262-.322-.5a3.27 3.27 0 0 0-.143-.536c-.072-.191.071-.25.429-.179h.072c.095.024.226-.048.393-.215.119-.167.214-.215.286-.143.31.238.465.62.465 1.144 0 .715-.095 1.239-.286 1.573.072.214 0 .667-.214 1.358-.191.453-.214.739-.071.858.238.143.346.334.322.572 0 .024-.048.238-.143.644l-.107.608a6.524 6.524 0 0 1-.143.608c.048.62-.048 1.37-.286 2.252a380.221 380.221 0 0 0-.608 2.216l-.215.429c-.143.191-.25.298-.322.322-.119.048-.25-.012-.393-.179-.119-.143-.31-.143-.572 0-.191.095-.357.298-.5.608-.191.334-.334.548-.429.643-.906.763-2.216.989-3.932.679a1.95 1.95 0 0 0-.429-.072c-.143-.024-.25.024-.322.143-.119.215.024.405.429.572 1.382.596 2.646.691 3.789.286.095.191.119.334.071.429-.024.095-.179.262-.465.501-.072.238-.107.393-.107.465 0 .167.095.31.286.429l.143-.393c.238-.548.417-.953.536-1.215.215-.477.489-.846.822-1.108a7.495 7.495 0 0 0 2.288-3.539c.191-.667.417-1.919.679-3.754.262-1.811.524-3.098.786-3.861.286.358.667.536 1.144.536l.036-.215.107.072-.143.143.143 1.251c0 .334-.012.536-.036.608-.071.167-.262.226-.572.179.143.524.31.882.501 1.073.167.167.405.226.715.179 0-.381.131-.62.393-.715.143-.048.262-.155.357-.322a.404.404 0 0 0 .036-.429 9.412 9.412 0 0 1-.25-1.072c-.095-.477-.191-.834-.286-1.073a7.169 7.169 0 0 1-.357-.608 1.211 1.211 0 0 1-.107-.751c.048-.119.024-.25-.072-.393a.858.858 0 0 0-.429-.286c.167.238.214.548.143.93-.071.477-.095.775-.071.894.024.072-.012.119-.107.143a.236.236 0 0 1-.215-.036c-.31-.143-.5-.262-.572-.357-.143-.167-.155-.381-.036-.643l.393.214c.048-.334-.024-.524-.214-.572-.119-.024-.203.072-.25.286-.31-.763-.489-1.239-.536-1.43a2.372 2.372 0 0 1 .107-1.573l.107.679.143-.536c.167.191.298.441.393.751.119.405.203.655.25.751.048.072.095.179.143.322.048.143.155.203.322.179-.405-1.216-.512-2.205-.322-2.967.167-.691.024-1.37-.429-2.038-.071.095-.131.322-.179.679-.095 0-.191-.083-.286-.25-.095-.143-.203-.203-.322-.179-.024.262.143.655.5 1.18.334.453.393.858.179 1.216-.286-.286-.524-.739-.715-1.359-.286-.882-.465-1.394-.536-1.537-.048-.739-.143-1.287-.286-1.645-.167-.381-.048-.536.357-.465.262.024.453.167.572.429.143.358.25.56.322.608.095.095.179.25.25.465.048.143.107.334.179.572.238.048.381 0 .429-.143v-.465c.024-.524-.072-1.12-.286-1.788l-.643-1.716c-.072-.238-.191-.334-.357-.286 0 .119.083.346.25.679.167.262.191.5.071.715l-.858-1.108c-.095-.119-.262-.25-.501-.393-.213-.076-.332-.04-.356.103m3.825 13.906c.071-.31.143-.512.214-.608.143.405.179.691.107.858-.095.167-.334.262-.715.286a.754.754 0 0 0 .394-.536m-3.217-14.907l-.358-.358c-.143.382-.024.501.358.358m-4.29 1.072c.072-.357-.048-.798-.357-1.323-.072.572.047 1.013.357 1.323m3.074.179l-.107.036.071.107.107-.036-.071-.107m-.929-2.038c-.048-.143-.012-.226.107-.25.167-.024.274.036.322.179.048.095.083.238.107.429.024.119.143.369.357.751.119.191.238.238.357.143.143-.143.155-.274.036-.393-.167-.191-.214-.334-.143-.429.048-.072.179-.143.393-.215-1.263-1.311-2.503-2.264-3.718-2.86a8.66 8.66 0 0 0-4.29-.93.898.898 0 0 1-.107.036c-.286.048-.608.107-.965.179a.436.436 0 0 1-.107.072l1.895.107c.071 0 .25.06.536.179.238-.048.524-.048.858 0 .167.024.441.072.822.143.357.024.834.262 1.43.715.357.31.727.715 1.108 1.216.215.286.524.715.93 1.287.072-.049.095-.168.072-.359m14.085 5.613c.215-.119.334-.167.358-.143.024-.024.155-.072.393-.143.143-.048.215-.155.215-.322-.286-.143-.536-.083-.751.179-.143.191-.322.25-.536.179.047.238.154.321.321.25m1.716-.965c-.048-.095-.155-.095-.322 0 .191.286.155.56-.107.822-.286.286-.25.489.107.608.095-.119.226-.143.393-.072s.286.095.358.072.167-.048.286-.072c.095-.048.095-.119 0-.215-.334-.404-.572-.786-.715-1.143m-.858-.322c-.095.143-.107.238-.036.286l.25.036.215-.25a.404.404 0 0 0 .036-.429 4.017 4.017 0 0 1-.25-.322c-.143-.191-.274-.143-.393.143.167.095.262.167.286.215.047.095.011.202-.108.321m-1.18 1.037v-.25c-.214.095-.214.191 0 .286v-.036m-5.362-6.793c.048-.095-.012-.226-.179-.393-.357-.357-.679-.477-.965-.357-.358.191-.608.584-.751 1.18-.095.357-.083.596.036.715.095.119.322.191.679.215h.286c.262.024.417-.119.465-.429.048-.215-.083-.393-.393-.536-.167-.024-.262 0-.286.072v.322c0 .095-.095.143-.286.143-.119 0-.203-.095-.25-.286-.024-.119.083-.405.322-.858.071-.191.214-.274.429-.25.238 0 .405.107.5.322.024.048.024.119 0 .215 0 .072.048.119.143.143.119-.003.202-.075.25-.218m.786 1.216h.036v.036c.071-.048.191-.155.357-.322.143-.143.286-.155.429-.036.334.214.489.429.465.643-.024.334-.226.608-.608.822-.143.048-.215 0-.215-.143h-.179c-.334-.048-.477-.191-.429-.429.119-.238.179-.417.179-.536h-.036v-.035c-.143.024-.25.119-.322.286-.048.191-.095.322-.143.393l.143.501c.715.405 1.287.298 1.716-.322.334-.501.274-.953-.179-1.359-.548-.5-1.108-.465-1.68.107h.215c.143-.048.226-.06.25-.036.025.048.025.191.001.43m1.752 2.216c-.119.119-.167.226-.143.322.095.262.358.441.786.536.262.072.536.012.822-.179.286-.191.465-.429.536-.715.143-.524-.107-.87-.751-1.037.024.262.131.489.322.679.119.119.167.238.143.358 0 .048-.06.155-.179.322-.31.31-.596.405-.858.286-.405-.214-.477-.453-.215-.715.072-.119.095-.191.072-.215-.024-.024-.095-.012-.215.036-.141.143-.248.251-.32.322m.93-.822c-.072-.095-.167-.048-.286.143-.095.095-.107.167-.036.215 0 .024.048.012.143-.036.048-.024.107-.072.179-.143s.071-.131 0-.179m-3.575-3.897c.071.045.142.08.214.107a.298.298 0 0 0-.036-.036 4.07 4.07 0 0 1-.178-.071m-5.792-.715c.262.167.477.429.643.786.238.548.381.858.429.93.024.024 0 .048-.072.072-.071.024-.131.024-.179 0l.036.286c.072 0 .191.024.358.072.143.024.203-.072.179-.286 0-.024.072-.465.215-1.323.048-.262.012-.429-.107-.501-.143-.072-.226-.072-.25 0-.071.048-.083.119-.036.215s.071.167.071.215v.286c0 .095-.048.155-.143.179s-.167-.012-.214-.107a3.764 3.764 0 0 0-.107-.25l-.286-.572c-.191-.167-.322-.262-.393-.286-.167-.048-.322.024-.465.215l.321.069m-1.18-.393c-.286-.119-.548-.131-.786-.036-.095.048-.131.107-.107.179l.107.214c.119.453.071.846-.143 1.18-.167.262-.191.429-.072.501.048.024.262.048.643.072.286.048.369-.131.25-.536-.048-.143-.048-.334 0-.572.048-.334.071-.536.071-.608.192-.191.204-.322.037-.394m-.643 1.859a2.556 2.556 0 0 1 0-.858l.107-.822c.119.191.167.441.143.751a2.45 2.45 0 0 1-.25.929z" fill="#707071"/><path class="st0" d="M-516.019-329.351l-.107-.072c-.143.119-.226.393-.25.822-.024.405.048.679.214.822l.143-.107v-1.465m12.191-14.551c0-.095-.06-.143-.179-.143l-.107.286c.167.048.262 0 .286-.143m-.643-.464c.167 0 .25.048.25.143l.393-.25c-.095-.119-.238-.167-.429-.143h-.429c-.048.142.024.226.215.25m-21.415 21.736c-.238-.143-.369-.274-.393-.393v.715c.119.072.346.107.679.107.048-.167-.047-.31-.286-.429m-13.477-15.695c-.024.072.095.107.357.107.31-.119.524-.226.643-.322.214-.167.346-.381.393-.644l-.179-.393-.143-.036c-.048.072-.119.06-.214-.036l-.25.25a.711.711 0 0 1-.357.214c-.143.072-.203.203-.179.393.024.241 0 .396-.071.467m.643-3.861c-.167.834-.215 1.394-.143 1.68.31-.596.477-.953.5-1.073.144-.404.024-.607-.357-.607m15.23 9.224c0 .095-.083.25-.25.465-.119.167-.167.322-.143.465.286-.238.441-.405.465-.501.047-.095.023-.238-.072-.429m-10.976-1.394a.594.594 0 0 0-.071.679c.048.072.226.524.536 1.358.143.31.334.775.572 1.394.238.524.489.953.751 1.287.071.072.179.06.322-.036-.357-.572-.751-1.478-1.18-2.717a7.798 7.798 0 0 0-.93-1.965m.858-1.716c-.381 0-.667-.191-.858-.572-.143-.262-.381-.501-.715-.715-.095.072-.095.191 0 .357l1.537 3.074c.572 1.144.965 2.026 1.18 2.646.167.453.417.703.751.751.143-.095.31-.072.501.072.238.167.429.226.572.179-.143-.238-.429-.489-.858-.751-.429-.286-.703-.536-.822-.751-.31-.262-.417-.453-.322-.572.119-.119.214-.203.286-.25a.713.713 0 0 1 .465-.179c.405-.024.775.215 1.108.715.167.286.429.548.786.786.548.358.858.572.93.643l-.429-.929c-.167-.167-.167-.346 0-.536.048-.048.119-.072.214-.072.071-.024.107-.012.107.036.024.143.143.262.357.358.215.119.346.238.393.357.072.215.346.298.822.25.095-.024.143-.107.143-.25 0-.286-.179-.453-.536-.5-.119-.048-.179-.119-.179-.215.048-.048.167-.06.357-.036.167 0 .274-.06.322-.179.024-.024-.131-.167-.465-.429-.119-.119-.179-.203-.179-.25 0-.429-.298-.667-.894-.715-1.454-.167-2.61-.655-3.468-1.466l-.143-.143c-.048-.072-.107-.095-.179-.072-.331.073-.593-.142-.784-.642m5.041 2.824l-.143.072-.072-.072.107-.072.108.072m-.393.751l-.036.072-.072-.036.072-.072.036.036m.286-17.947l.858.143.286-.036c-.119-.238-.286-.346-.501-.322-.119.001-.333.072-.643.215m-2.038 2.681l-.465-.036c-.214.405-.143.882.215 1.43.119.072.262.226.429.465.191.191.405.203.644.036.143-.095.238-.298.286-.608.048-.31.155-.512.322-.608-.024-.072-.131-.119-.322-.143-.167-.024-.238-.095-.214-.215.048-.238.012-.357-.107-.357-.143.048-.25.06-.322.036l.179.215-.179.072c-.263-.096-.418-.191-.466-.287m-.608-2.323c-.143.048-.226.119-.25.215l.072.072.178-.287m6.972-8.795c.191-.524.012-.882-.536-1.072v.036l.536 1.036m2.609 20.092v-.357l-.25-.036c-.048.214.036.345.25.393m2.181-2.682l.107-.608-.715-.143c.048.143.095.322.143.536.072.168.227.239.465.215m-10.189 11.762c0-.286-.119-.441-.357-.465-.191 0-.274.06-.25.179.024.214.167.357.429.429.071.048.131 0 .178-.143m8.08-9.045v.036c0 .048-.012.131-.036.25 0 .119.072.191.215.214l.107-.072v-.036c0-.213-.095-.344-.286-.392m1.466-9.116h-.072c-.024.095 0 .298.072.608.071.238.06.441-.036.608l-.322.465c-.143.453-.334.489-.572.107a.443.443 0 0 0-.072-.179c-.024-.095-.083-.131-.179-.107-.215.024-.334.024-.357 0-.024-.024.024-.143.143-.358.167-.334-.071-.536-.715-.608a.814.814 0 0 1-.608-.322.924.924 0 0 1-.072-.715c.072-.238.095-.369.072-.393-.024-.024-.143 0-.358.072-.477.143-.643.453-.5.93.024 0 .107-.048.25-.143.095-.072.167-.048.215.072.119.215-.012.322-.393.322l.107.179c.286 0 .322.095.107.286l.071.393a.353.353 0 0 1 .215.143c.024.072.06.155.107.25.071.143.155.358.25.643.119.238.286.393.5.465l.107.072c-.048.191 0 .536.143 1.037.143.405.107.739-.107 1.001l-.107.393c.095.024.25.179.465.465.143.238.334.334.572.286v-.143c-.048-.167-.012-.298.107-.393.286-.167.536-.5.751-1.001.238-.548.465-.906.679-1.072l.036-.358c0-.31.119-.524.357-.643.191-.334.286-.858.286-1.573 0-.524-.155-.906-.465-1.144-.072-.072-.167-.024-.286.143-.165.165-.296.236-.391.212m-.501-1.93c.119-.119.155-.191.107-.215-.286-.143-.477-.083-.572.179l.465.036m-1.43-4.398c.167-.095.31-.25.429-.465.167-.334.274-.524.322-.572l-.036-.286c-.167.024-.346-.107-.536-.393-.191-.262-.381-.369-.572-.322l.036-.143c.095-.31.06-.465-.107-.465-.238.048-.405.06-.5.036l.179.572c.143.143.214.31.214.5.024.167-.048.286-.214.358-.024 0-.215.131-.572.393-.238.167-.477.203-.715.107-.191-.072-.286.012-.286.25a.441.441 0 0 1-.215.322l-.322.214.036.036c.358.048.56.238.608.572 0 .048-.048.107-.143.179-.119.095-.191.131-.215.107-.5-.119-.632.072-.393.572.429.81.441 1.609.036 2.395.072.071.143.06.214-.036.072-.095.155-.095.25 0 .167.167.405.215.715.143.477-.119.727-.179.751-.179.191 0 .226-.06.107-.179-.215-.286-.238-.465-.072-.536.095-.048.262-.083.5-.107.119-.048.274-.107.465-.179.143-.095.191-.25.143-.465.262-.238.286-.465.071-.679-.167-.167-.31-.405-.429-.715a44.966 44.966 0 0 0-.286-.751c.167.024.274.036.322.036.12-.022.191-.129.215-.32m-.25-.214l.143-.107.072.286c-.144 0-.215-.06-.215-.179m-.358.465c-.095-.024-.191-.143-.286-.357-.119-.191-.298-.238-.536-.143.191-.262.417-.334.679-.215.167.072.238.191.215.358a4.617 4.617 0 0 0-.072.357m3.432-.251c-.405-.072-.524.083-.357.465.143.357.238.906.286 1.645.643-.143.775-.441.393-.894-.214-.286-.322-.691-.322-1.216m7.401-3.789l.107-.036c.048.024.048.072 0 .143l-.143.25-.179.107c0 .143.072.191.215.143.381-.214.584-.489.608-.822.024-.215-.131-.429-.465-.643-.143-.119-.286-.107-.429.036a3.029 3.029 0 0 1-.357.322c0 .119-.06.298-.179.536-.048.238.095.381.429.429l.25-.179.143-.286m-.68-.536c.024-.238.024-.381 0-.429-.024-.024-.107-.012-.25.036l-.25.322c-.048.334-.036.584.036.751.048-.071.095-.203.143-.393.071-.168.178-.263.321-.287m-6.685-3.218c.048.214.179.512.393.894.238.381.381.679.429.894.048.024.107.024.179 0s.095-.048.072-.072c-.048-.072-.191-.381-.429-.93-.167-.357-.382-.619-.644-.786m-1.823.608c-.048.334-.048.62 0 .858a2.45 2.45 0 0 0 .25-.929c.024-.31-.024-.56-.143-.751l-.107.822z"/></g></g></g><g><g transform="matrix( 1, 0, 0, 1, 547.05,367.45) matrix( 1, 0, 0, 1, 0.35,-0.05) matrix( 1, 0, 0, 1, 0,0)"><path d="M-513.409-348.478a33.99 33.99 0 0 0 1.323 2.646c.477.81 1.227 1.263 2.252 1.358 1.764-.191 2.407-1.287 1.931-3.289-.834-3.504-2.967-5.374-6.399-5.613-.143.143-.262.31-.357.501-.524 1.025-.286 1.859.715 2.503l.535 1.894z" fill="#e4e5e6" id="nickel_0_Layer0_1_FILL"/></g></g></svg>