<svg xmlns="http://www.w3.org/2000/svg" id="Layer_1" viewBox="0 0 50 50"><style type="text/css">.st3{stroke-linecap:square}.st3,.st4,.st5{fill:none;stroke:#ad7868;stroke-width:.3575;stroke-miterlimit:10}.st5{stroke-linecap:square;stroke-miterlimit:2}</style><switch><g><path d="M11.557 11.532c-3.738 3.744-5.607 8.24-5.607 13.486 0 5.247 1.869 9.73 5.607 13.451 3.714 3.72 8.195 5.581 13.443 5.581 5.272 0 9.765-1.86 13.479-5.581 3.714-3.72 5.571-8.204 5.571-13.451 0-5.271-1.857-9.766-5.571-13.486C34.765 7.811 30.272 5.951 25 5.951c-5.248 0-9.729 1.86-13.443 5.581z" fill="#e8a085" id="global_Penny_0_Layer1_0_MEMBER_0_FILL"/><path d="M12.132 12.032c-3.57 3.601-5.356 7.93-5.356 12.986 0 5.056 1.785 9.373 5.356 12.95 3.546 3.577 7.836 5.366 12.868 5.366 5.056 0 9.357-1.789 12.904-5.366 3.57-3.577 5.356-7.894 5.356-12.95 0-5.056-1.785-9.384-5.356-12.986C34.357 8.455 30.056 6.666 25 6.666c-5.032 0-9.321 1.789-12.868 5.366z" fill="#eebfa5" id="global_Penny_0_Layer1_0_MEMBER_1_FILL"/><path id="global_Penny_0_Layer1_0_MEMBER_1_1_STROKES" d="M12.114 12.009c3.546-3.577 7.836-5.366 12.868-5.366 5.056 0 9.357 1.789 12.904 5.366 3.57 3.601 5.356 7.93 5.356 12.986s-1.785 9.373-5.356 12.95c-3.546 3.577-7.848 5.366-12.904 5.366-5.032 0-9.321-1.789-12.868-5.366-3.57-3.577-5.356-7.894-5.356-12.95 0-5.056 1.785-9.385 5.356-12.986z" fill="none" stroke="#4d4d4d" stroke-width=".179" stroke-miterlimit="10"/><path id="global_Penny_0_Layer1_0_MEMBER_2_MEMBER_0_1_STROKES" class="st3" d="M33.248 30.54l.144-.179c.144-.119.288-.179.431-.179a.62.62 0 0 1 .395.143c.096.095.132.191.108.286-.096.382-.455.787-1.078 1.216v.215h1.078"/><path id="global_Penny_0_Layer1_0_MEMBER_2_MEMBER_1_1_STROKES" class="st3" d="M35.692 30.254c.455 0 .683.286.683.859s-.228.859-.683.859c-.407.048-.611-.227-.611-.823 0-.597.204-.895.611-.895z"/><path id="global_Penny_0_Layer1_0_MEMBER_2_MEMBER_2_1_STROKES" class="st3" d="M38.748 30.182c.431 0 .647.286.647.859s-.216.859-.647.859c-.455.024-.683-.262-.683-.859 0-.573.227-.859.683-.859z"/><path id="global_Penny_0_Layer1_0_MEMBER_2_MEMBER_3_1_STROKES" class="st4" d="M37.31 30.039v2.111"/><path id="global_Penny_0_Layer1_0_MEMBER_3_MEMBER_0_1_STROKES" class="st3" d="M7.98 26.104v1.395h.719"/><path id="global_Penny_0_Layer1_0_MEMBER_3_MEMBER_1_1_STROKES" class="st3" d="M9.418 26.104v1.538"/><path id="global_Penny_0_Layer1_0_MEMBER_3_MEMBER_2_1_STROKES" class="st5" d="M10.245 26.104v1.431c.551.095.827-.024.827-.358 0-.215-.096-.334-.288-.358-.24-.024-.383-.048-.431-.072.479 0 .719-.119.719-.358 0-.119-.132-.203-.395-.25l-.432-.035z"/><path id="global_Penny_0_Layer1_0_MEMBER_3_MEMBER_3_1_STROKES" class="st3" d="M12.581 27.499h-.719v-1.395h.719"/><path id="global_Penny_0_Layer1_0_MEMBER_3_MEMBER_4_1_STROKES" class="st3" d="M12.329 26.819h-.467"/><path id="global_Penny_0_Layer1_0_MEMBER_3_MEMBER_5_1_STROKES" class="st5" d="M13.408 27.642v-1.574h.467c.288.024.431.143.431.358s-.12.346-.359.394c-.264 0-.419.012-.467.036.216 0 .347.012.395.036.192.095.371.346.539.751"/><path id="global_Penny_0_Layer1_0_MEMBER_3_MEMBER_6_1_STROKES" class="st3" d="M14.845 26.104h1.258"/><path id="global_Penny_0_Layer1_0_MEMBER_3_MEMBER_7_1_STROKES" class="st3" d="M15.528 27.642v-1.538"/><path id="global_Penny_0_Layer1_0_MEMBER_3_MEMBER_8_1_STROKES" class="st3" d="M16.607 26.068l.467.501.108 1.109"/><path id="global_Penny_0_Layer1_0_MEMBER_3_MEMBER_9_1_STROKES" class="st3" d="M17.685 26.068l-.611.501"/><path id="global_Penny_0_Layer1_0_MEMBER_4_MEMBER_0_1_STROKES" class="st3" d="M11.071 14.263l1.222.966"/><path id="global_Penny_0_Layer1_0_MEMBER_4_MEMBER_1_1_STROKES" d="M13.048 14.406l-1.078-1.073 1.797.107-1.006-.966" fill="none" stroke="#ad7868" stroke-width=".357" stroke-linecap="square" stroke-linejoin="bevel"/><path id="global_Penny_0_Layer1_0_MEMBER_4_MEMBER_2_1_STROKES" class="st3" d="M15.528 11.294l.359-.25.359.429c-.12.286-.312.429-.575.429a.691.691 0 0 1-.503-.215.787.787 0 0 1-.323-.465c-.072-.215-.036-.394.108-.537.192-.191.383-.262.575-.215"/><path id="global_Penny_0_Layer1_0_MEMBER_4_MEMBER_3_1_STROKES" class="st3" d="M17.074 9.434c-.264.262-.252.596.036 1.002.264.382.551.453.863.215.264-.215.264-.525 0-.93-.288-.383-.588-.478-.899-.287z"/><path id="global_Penny_0_Layer1_0_MEMBER_4_MEMBER_4_1_STROKES" class="st3" d="M18.799 8.682l.647 1.431c.575-.238.743-.632.503-1.181-.144-.334-.383-.477-.719-.429l-.431.179z"/><path id="global_Penny_0_Layer1_0_MEMBER_4_MEMBER_5_1_STROKES" d="M22.825 7.824l.611 1.216.359-1.395.467 1.288.539-1.288" fill="none" stroke="#ad7868" stroke-width=".357" stroke-linecap="square" stroke-linejoin="round"/><path id="global_Penny_0_Layer1_0_MEMBER_4_MEMBER_6_1_STROKES" class="st3" d="M26.599 7.824l-.791-.179-.216 1.431.719.072"/><path id="global_Penny_0_Layer1_0_MEMBER_4_MEMBER_7_1_STROKES" class="st3" d="M26.239 8.432l-.431-.072"/><path id="global_Penny_0_Layer1_0_MEMBER_4_MEMBER_8_1_STROKES" class="st3" d="M29.834 8.36l1.15.429"/><path id="global_Penny_0_Layer1_0_MEMBER_4_MEMBER_9_1_STROKES" class="st3" d="M29.906 9.97l.395-1.288"/><path id="global_Penny_0_Layer1_0_MEMBER_4_MEMBER_11_1_STROKES" class="st3" d="M34.434 10.507c-.168.143-.323.31-.467.501-.264.382-.288.692-.072.93.359.382.791.119 1.294-.787"/><path id="global_Penny_0_Layer1_0_MEMBER_4_MEMBER_12_1_STROKES" class="st3" d="M37.094 12.474c-.24-.429-.455-.549-.647-.358-.12.095-.156.227-.108.394.024.072.06.143.108.215 0 .024.024.119.072.286s.024.274-.072.322c-.264.143-.503-.012-.719-.465"/><path id="global_Penny_0_Layer1_0_MEMBER_4_MEMBER_13_1_STROKES" class="st3" d="M37.921 13.44l.899 1.002"/><path id="global_Penny_0_Layer1_0_MEMBER_4_MEMBER_14_1_STROKES" class="st3" d="M37.382 14.871l1.006-.93"/><path id="global_Penny_0_Layer1_0_MEMBER_5_MEMBER_0_1_STROKES" class="st3" d="M33.248 30.54l.144-.179c.144-.119.288-.179.431-.179a.62.62 0 0 1 .395.143c.096.095.132.191.108.286-.096.382-.455.787-1.078 1.216v.215h1.078"/><path id="global_Penny_0_Layer1_0_MEMBER_5_MEMBER_1_1_STROKES" class="st3" d="M35.692 30.254c.455 0 .683.286.683.859s-.228.859-.683.859c-.407.048-.611-.227-.611-.823 0-.597.204-.895.611-.895z"/><path id="global_Penny_0_Layer1_0_MEMBER_5_MEMBER_2_1_STROKES" class="st3" d="M38.748 30.182c.431 0 .647.286.647.859s-.216.859-.647.859c-.455.024-.683-.262-.683-.859 0-.573.227-.859.683-.859z"/><path id="global_Penny_0_Layer1_0_MEMBER_5_MEMBER_3_1_STROKES" class="st4" d="M37.31 30.039v2.111"/><g id="global_Penny_0_Layer0_0_FILL"><path d="M23.412 42.129h-.143.036l.143.071a.13.13 0 0 1-.036-.071m-.608-.786l-.107-.215-.572-.036.679.251m.322-.965h-.036v.036l.036-.036m-1.681.464l-.179-.072h-.036l.215.072m-1.322-.929l.215.143h.072l-.143-.071-.144-.072m1.465-.429v-.036l-.036.036h.036m-1.251-1.18l-.036-.036v.036h.036m3.539-.679h.036l-.072-.107v.036l.036.071m-.25.465l.036-.036-.143-.107.107.143m-.894-.143l.036.036-.036-.071v.035m-.786-1.466l-.036-.072-.143-.107.179.179m-6.793-2.145h.107V34.3l-.107.036m1.967 1.394l.036.071v-.071l-.036-.036v.036m.178-2.574h.036l-.036-.036v.036m2.503-.822l-.286-.393.143.322.143.071m.679-4.397l-.036.071h.036v-.071m0-1.395l.072.179v-.143l-.072-.036m1.931.179l-.036-.036v.036h.036m-.429-.929h-.036l.036.036v-.036m2.538.965h.036l-.036-.036v.036m.25.036l.179.036v-.143l-.179.107m-2.109-5.005l-.036.143.107-.072-.071-.071m-2.002-.537l.036.072.036-.179-.071-.036v.143m.535-1.322h.036v-.071l-.036.071m-.393-.966l-.143-.071.071.107.072-.036m.572.429v.071l.036-.036-.036-.035m-2.36-.143h.107l-.143-.143.036.143m.751-.75l-.036-.072h-.036l.072.072m-.357-.251l-.071.036.143.036-.072-.072m4.468 2.36l.036-.036-.072.036h.036m-.429-1.823l-.179-.036-.036.107.215-.071m-1.179-.394l.036.072.036-.036-.072-.036m1.608-.357l.25-.072.822-.393.072-.107-.5.286-.644.286m-5.898-1.287c-.024.024-.036.048-.036.072.072.024.131.048.179.071a.403.403 0 0 0-.107-.071c-.024-.024-.036-.048-.036-.072m6.935-1.323l-.036-.071-.036.036.072.035m-.25-.465h.072l-.358-.393-.036.143.322.25m-2.574.179l.036-.036h-.036v.036m2.753-2.788l-.107-.25h-.036l.143.25m-3.504 2.574l-.143-.25-.107.179.179.107.071-.036m-1.394-1.895l.036-.322h-.179l.143.322m.715-1.287c-.024-.024-.036-.06-.036-.107-.024 0-.036.012-.036.036l.036.036v.071c.001-.024.013-.036.036-.036m4.469-.572l.143.143.107-.036-.25-.107m-1.287-.894h-.071c0 .023-.012.047-.036.071a.42.42 0 0 1 .107-.071m1.072-.143a.293.293 0 0 1 .107-.036h-.179a.108.108 0 0 1 .072.036m-1.859.679h.036c-.024-.024-.048-.036-.072-.036-.071.048-.107.107-.107.179a.212.212 0 0 0 .143-.143m.429-.893l.036-.036c.071 0 .179.012.322.036a1.324 1.324 0 0 1-.322-.107v.036l-.036.071m9.831 29.815l.071.179c.048-.048.107-.095.179-.143-.048-.048-.06-.107-.036-.179a15.92 15.92 0 0 1-.214.143m-.071-.286l.071-.036h-.107l.036.036m2.86-1.18l-.071.071c.025-.023.048-.023.071 0v-.071m-1.001-.107l.107-.107-.179-.179.072.286m-1.573-.036l-.036.036-.071.143.215-.143-.108-.036m.393.143l-.036-.036.036.071v-.035m-.572-.715h.072l-.036-.036c-.024.001-.036.013-.036.036m-.643-.858l.071-.107-.357-.143.286.25m1.251-2.18l.071.071-.071-.143c-.024 0-.036.012-.036.036 0 .024.012.036.036.036m-1.394 2.752l-.143-.036.143.179.071.036-.071-.179m-1.859-1.501l-.072.071.25.179-.178-.25m1.501.393h-.036l.036.071v-.071m-.751-3.611v.143l.107.036-.107-.179m-2.502-1.215l.822-.107.107-.215-.107-.107-.393.143-.429.286m-.143 0l-.358-.215h-.036l-.179.25.573-.035m-1.18-.286l.036-.036h-.036v.036m.858-2.217c.048.048.131.06.25.036a.396.396 0 0 0-.179-.036h-.071m.465-3.074l.036.036v-.036l-.036-.036v.036m.786-2.002c0-.072-.012-.119-.036-.143a.458.458 0 0 0-.107-.179l-.036.036.179.286m1.788-2.217l-.036.179a.579.579 0 0 1 .107-.143l.072-.072c.143-.095.274-.191.393-.286a2.252 2.252 0 0 1-.536.25.555.555 0 0 0-.107.143.42.42 0 0 1 .107-.071m-.429.215v-.072h-.036c0 .024.012.048.036.072m-.072-.072l-.036-.036-.036.072.036-.036h.036m-4.933 3.039h-.036l.071.036-.035-.036m1.752-3.325h-.036l.107.179-.071-.179m.143-2.645l.5-.107-.107-.179-.393.286m-1.359 1.68l-.107-.036h-.072l.179.036m-.679.107v.036h.036l-.036-.036m-.572-1.215l.071.036h.358l-.429-.036m1.787-1.216v-.143l-.072-.072-1.466.107 1.538.108m4.576 1.681l.036.036a.581.581 0 0 1-.036-.179l-.143-.072.143.215m-.786-1.144c.024.024.048.06.072.107a.581.581 0 0 1-.036-.179c-.024.024-.036.048-.036.072m-1.43-1.144l-.071.358.465-.107-.394-.251m1.609.929l.036.036c-.048-.143-.06-.334-.036-.572-.048.262-.048.441 0 .536m-.108-1.358c.001-.024.013-.036.036-.036l-.036-.036v.072m-1.287-3.254l-.072.143c.119.095.238.214.358.358l-.214-.286c0-.118.048-.178.143-.179-.048 0-.084-.012-.107-.036l.072-.143a1.167 1.167 0 0 1-.18.143m.179-.893l.071-.107h-.215l.144.107m.894-.036c.048 0 .119.012.215.036a.8.8 0 0 0-.286-.143.403.403 0 0 0 .071.107m-2.145-.179h-.036l.036.071h.036l-.036-.071m-2.288-2.431l.036-.036a.351.351 0 0 1 .143-.036 1.752 1.752 0 0 0-.322.036c-.072.024-.203.024-.393 0 .238.048.417.06.536.036m3.146 1.001v.036c.024 0 .036-.012.036-.036l.036.036c.024-.048.071-.06.143-.036a2.003 2.003 0 0 0-.358-.107 12.497 12.497 0 0 1-.965-.215c.309.096.679.203 1.108.322z" fill="#edbfa9"/><path d="M21.267 40.771l.179.072.679.25.572.036-.393-.358-.322-.071-.465-.107-.25.178m-5.899-3.182a.426.426 0 0 0-.071.179h-.036v.036c.024.024.06.048.107.071.103.08.234.175.393.286.276.166.622.357 1.037.572l3.074 1.573.465-.25-.215-.143-2.931-1.501-.786-.5-1.037-.323z" fill="#e2a888"/><path d="M20.409 40.056h-.072l-.465.25c.238.095.477.203.715.322l.644.143h.036l.25-.179.465.107-1.573-.643z" fill="#da9e7f"/><path d="M21.624 39.484h-.072l-2.073-.179.787.679.143.071 1.573.644.322.071.393.358.107.215.071.071h.358l.965.215.143.071a.674.674 0 0 0 .215.036V41.7l.036-.036.465-.501-.608-.429-.715.143-.608-.5-.036.036v-.036c0-.191-.131-.357-.393-.5a1.612 1.612 0 0 0-.679-.215h-.179l-.072-.107-.143-.071m-1.323-1.216l.036.036 1.573.822.143.071.572.143.965.107.179.036.5.429c.286.048.524-.012.715-.179a4.787 4.787 0 0 0-.072-.071 9.092 9.092 0 0 1-.322-.071l-.358-.357-1.573-.93-2.645-.215.287.179z" fill="#875952"/><path d="M21.624 39.484a.111.111 0 0 1-.036-.036v.036h.036m-3.039-1.859l-.465.072a7.999 7.999 0 0 0 3.789 1.43l-1.573-.822H20.3l-1.715-.68m2.396.071l-1.144-.572a83.786 83.786 0 0 1-1.931-.894c.872 1.068 1.897 1.557 3.075 1.466z" fill="#dba082"/><path d="M22.768 37.982l-.036-.036-.072.358 1.573.93.358.357-.5-1.966h-.215l-.214.429-.036.036-.465.107-.393-.215z" fill="#da9f81"/><path d="M21.946 36.481l-.179-.179-.286-.214.214.143-.643-.536-.286.358 1.358 1.072.608.787.036.071.393.215.465-.107-.107-.143-1.573-1.467z" fill="#ab6c5c"/><path d="M17.012 35.408l-.036-.071c-.315.209-.339.626-.071 1.251l.679.751-.25.322-1.609-1.215.679 1.466.786.5 2.931 1.501.143.071-.787-.679 2.073.179.036-.036a.103.103 0 0 0 .036.036l.143.071.072.107h.179c.26.026.487.098.679.215.262.143.393.31.393.5h.036l.608.5.715-.143-.177-.714v-.107l-.5-.429-.179-.036-.965-.107-.572-.143-.143-.071a7.999 7.999 0 0 1-3.789-1.43l.465-.072 1.716.679v-.036l-.286-.179 2.645.215.072-.358v-.036l-.608-.787a2.57 2.57 0 0 1-.643-.214 5.595 5.595 0 0 1-2.503-1.287.305.305 0 0 0-.036-.036h-.036c-.192-.04-.823-.1-1.896-.178m.143.394l-.035-.072v-.036l.036.036v.072m2.681 1.322l1.144.572c-1.178.091-2.203-.398-3.075-1.466.642.307 1.285.605 1.931.894z" fill="#bb7760"/><path d="M17.334 33.156h-.036l-.608.25-.179.143-.465.536-.25.072-.429-.036-.106.179v.036l.572 1.251.286-1.144.393.143.429.608.036.143.036.071c1.073.078 1.704.137 1.895.179h.036a.61.61 0 0 1 .036.036 5.585 5.585 0 0 0 2.503 1.287c.191.095.405.167.643.214l-1.358-1.072.286-.358.643.536-.214-.143.286.214.143.107c.278.295.206-.241-.215-1.609l-.179-.643a18.42 18.42 0 0 0-.751-.322 8.943 8.943 0 0 0-3.433-.678m3.003-.679l.751.357 2.753 2.109.536 1.895 1.215 1.215-.644-2.788-.286-.679-.536-.715v.536l-3.039-2.002-.75.072m5.041 2.538c.207.467.386.824.536 1.073l.286.5.358.643 2.002-.071-1.752-1.931c.105-.134.2-.253.286-.357l-1.716.143m5.255 1.68l-.286.215.93 1.072.143.286h.286l.643-.465-.215-.25v-.107l-1.501-.751m1.573-1.751l-1.216-.358c.334.381.667.775 1.001 1.18.071.119.143.25.215.393v.071l.215.215.357.143-.071.107.179.25.322.465.036-.643.429-.215.036.071 1.108 1.43-.429.25.25.179.465-.322-.071-.286.179.179.358-.179c.143 0 .215-.048.215-.143l-.036-.036-.036-.25.286-.215h.036v-.036c-.071-.167-.226-.381-.465-.644-.215-.238-.346-.441-.393-.608.095.048.191.107.286.179a4.797 4.797 0 0 1-.215-.286l-.572-.536h-.179l.071.072c-.119.119-.238.131-.357.036a.339.339 0 0 1-.071-.071l-.393-.179c-.527-.07-1.039-.142-1.54-.213m-5.827-1.824h-.071l-1.752.036.715 1.645.429-.643 1.108.536-.429-1.574m-.072-.643a16.99 16.99 0 0 1-.679-.572 13.324 13.324 0 0 1-1.895-1.823l-1.716-3.039.358-.322v-.179l-2.002-1.18a.165.165 0 0 0 .036-.071v-.036a.273.273 0 0 1-.036-.107v-.179a2.045 2.045 0 0 0-.143.286l-.071.143c-.056.172-.116.362-.179.572a3.557 3.557 0 0 1-.286.751l.071-.107.715-.072.072.036v.143l-.072 1.216v.071h-.036l-.179.143-.393.107-.107.787.965.572 1.931.822c.046-.226-.181-.453-.679-.679l-.965-.93 1.68.858c.598.318.991.759 1.18 1.323l.393 1.108-.572-1.001-.286-.107-1.573.107-2.181-.215-.215.751 1.251-.107 1.108.286-.322-.358 1.072.286 1.537 1.072.25-.286.608.322 1.359-.286.001-.106z" fill="#d79a7b"/><path d="M16.011 32.62c.1-.203.183-.406.25-.608l-.071-.072a.273.273 0 0 0-.107-.036l-1.144 2.288.143.143h.071l.107-.036.107-.179v-.07-.072c.086-.15.169-.305.25-.465l.394-.893z" fill="#815956"/><path d="M17.155 30.654l-.072-.072-1.001 1.251.107.107.071.072h.107c0-.122.048-.241.143-.358l.179-.143-.072-.071c.051-.099.122-.194.215-.286.167-.143.274-.25.322-.322h.036v-.072c0-.024.012-.036.036-.036l-.071-.07z" fill="#b67e6e"/><path d="M24.091 32.834l.465.322 1.752-.036-1.359-.25-.608-.322-.25.286m-3.539-6.113l-.072-.179-.715.072-.071.107c-.095.072-.167.107-.215.107-.072.095-.179.298-.322.608-.119.262-.25.441-.393.536.024.048.06.095.107.143a.273.273 0 0 0-.107-.036c-.238.262-.5.703-.786 1.323-.118.28-.238.518-.358.715l-.179.322a2.231 2.231 0 0 1-.215.286c-.024 0-.036.012-.036.036v.072h-.036a1.984 1.984 0 0 1-.322.322 1.16 1.16 0 0 0-.215.286l.072.071-.179.143a.565.565 0 0 0-.143.358h-.107a5 5 0 0 1-.25.608l-.393.894c-.081.16-.164.314-.25.465v.143l.429.036.25-.072.465-.536.179-.143.608-.25v-.038l.036.036c1.192 0 2.336.226 3.432.679.238.095.489.203.751.322l.179.643c.421 1.368.492 1.904.215 1.609l.036.072 1.573 1.466.143.107.214-.429-.036-.071v-.036l.072.107h.179a21.358 21.358 0 0 0-.358-.751c-.5-1.025-1.18-1.99-2.038-2.896l-.715-.715-2.324-.715c.215-.095.441-.179.679-.25.095-.024.203-.036.322-.036l-.143-.322.286.393.536.143.751-.071 3.039 2.002v-.536l-.715-1.144-1.609-.894-1.108-.286-1.251.107.215-.751 2.181.215 1.573-.107-.751-.572-1.931-.822-.965-.572.107-.787.393-.107.179-.143.036-.071.071-1.216m4.826 8.294l1.716-.143-.286-.179-1.108-.536-.429.643.107.215m1.43-5.005l.25-.429-2.824-2.324-2.252-1.43-.036-.036-1.394-.644a1.75 1.75 0 0 0-.143-.036v.179a.165.165 0 0 1-.036.071l2.002 1.18v.143l.036.036 2.36 1.573 2.037 1.717m6.149 3.825l-.322-.107a.925.925 0 0 1-.679-.286.826.826 0 0 1-.25-.608l-.143-.107-.107-.036a1.36 1.36 0 0 1-1.037-.465 1.578 1.578 0 0 1-.429-1.108l-.036-.036-.179.143-.822.107h-.143l-.572.036.179-.25h-.608l.25 1.073.358.215.358.965c.048.467.144.848.286 1.144.166.327.368.625.608.894.239.287.561.43.965.429l.072-.071.179.25 1.537 1.215.143.036.322-.322-.179-.25-.286-.25-.215-.215-.036-.071-1.609-1.287.143-.286h.286l1.216.358c.5.071 1.013.143 1.537.215l.393.179a.394.394 0 0 0 .071.071c.119.095.238.083.357-.036a4.787 4.787 0 0 1-.071-.072 2.05 2.05 0 0 0-.322-.286l-1.215-1.181m-2.217-.822c-.691 0-1.287-.155-1.787-.465-.477-.31-.715-.691-.715-1.144l2.502 1.609z" fill="#f1c5ae"/><path d="M22.661 30.439l.751.572.286.107.572 1.001-.393-1.108c-.189-.564-.582-1.005-1.18-1.323l-1.68-.858.965.93c.498.226.725.453.679.679z" fill="#6f5050"/><path d="M19.801 32.334l-.143-.071c-.119 0-.226.012-.322.036a5.668 5.668 0 0 0-.679.25l2.324.715-.536-.465.643.036-.751-.357-.536-.144z" fill="#cc8d73"/><path d="M24.52 26.757v-.036a5.184 5.184 0 0 0-1.609-.751 13.01 13.01 0 0 0-.536-.214c-.12.002-.251.014-.393.036v.036l2.252 1.43.286-.501m1.501.286a.54.54 0 0 1-.286-.143 3.036 3.036 0 0 1-.787-.393V26.829l2.896 1.716.072-.179-.358-.215-.107-.036-1.43-1.072z" fill="#d49579"/><path d="M22.232 21.394l.429.393.072.071.679.143c.048-.381-.226-.703-.822-.965a1.556 1.556 0 0 1-.572-.25l-.215.215.429.393z" fill="#5f4c50"/><path d="M23.841 22.896a.636.636 0 0 1 .179-.179l-.608-.715-.679-.143-.107.072-1.001 1.573c.23.643.993.632 2.288-.036-.192-.215-.215-.405-.072-.572m-3.146-1.573v.071l.429.036 1.108-.036-.429-.393v-.179l-1.073.322-.035.179m.822.572a1.86 1.86 0 0 0-.393-.358l.393.715c.357.096.357-.023 0-.357z" fill="#e5af96"/><path d="M20.409 25.184l-.036-.036c0 .024.012.06.036.107v-.071m.143-1.323l-.286-.465c-.014.008-.026.008-.036 0 0 .024.012.06.036.107-.119.095-.119.262 0 .5.143.215.167.429.071.643v-.071l-.786 1.43c0 .143-.048.31-.143.5a6.117 6.117 0 0 1-.25.429c-1.025 1.621-1.692 2.836-2.002 3.646v.072l.071.072c.068-.075.139-.17.215-.286l.179-.322c.12-.197.239-.435.358-.715.286-.62.548-1.061.786-1.323.024 0 .06.012.107.036a.555.555 0 0 1-.107-.143c.143-.095.274-.274.393-.536.143-.31.25-.512.322-.608.048 0 .119-.036.215-.107.095-.167.191-.417.286-.751.063-.21.122-.4.179-.572l.071-.143c.049-.117.097-.212.143-.286.143-.381.214-.655.214-.822a.741.741 0 0 0-.036-.285z" fill="#875b56"/><path d="M20.23 23.396a.399.399 0 0 0-.036-.072l-.036-.071c-.048-.048-.107.012-.179.179-.048.072-.095.25-.143.536.31.071.477.274.5.608v.071c.095-.214.072-.429-.071-.643-.119-.238-.119-.405 0-.5a.288.288 0 0 1-.035-.108z" fill="#ab7162"/><path d="M19.3 22.538a.974.974 0 0 0 .071-.5l-.107-.25a4.325 4.325 0 0 0-.608-.25c.095.238.203.62.322 1.144.119.358.274.643.465.858l.143.143c.191-.143.167-.334-.072-.572-.214-.144-.285-.334-.214-.573z" fill="#af7566"/><path d="M21.124 21.537v-.107l-.429-.036.5.822.322.036-.393-.715m.214-1.322a1.536 1.536 0 0 1-.429.143 3.257 3.257 0 0 1-.822.25l.572.5.071.036 1.073-.322-.465-.607z" fill="#ca8e78"/><path d="M20.266 19.857l-.215.143 1.144-.072.036-.071.036-.179-.608-.286a.801.801 0 0 1-.143.322.53.53 0 0 1-.25.143z" fill="#b47b6e"/><path d="M21.374 19.464v-.071l-.286-.25-.286-.179-.072.036-.5.25.429.143.608.286.107-.215z" fill="#5c4c51"/><path d="M19.372 20.572l-.608.071c-.224.146-.367.229-.429.25l.107.322c.024.167.095.274.214.322.307.11.51.193.608.25l.107.25a.984.984 0 0 1-.071.5c-.072.238 0 .429.214.572.238.238.262.429.072.572l-.143-.143.071.143v.143l.286.143h.036c.048-.286.095-.465.143-.536.072-.167.131-.226.179-.179l.036.071a.369.369 0 0 1 .036.072c.01.008.022.008.036 0l.286.465a.705.705 0 0 1 .036.286c0 .167-.071.441-.214.822v.179l.036.036v-.072c.052.011.1.022.143.036l1.394.644h.036c.142-.022.273-.034.393-.036.191.071.369.143.536.214a5.172 5.172 0 0 1 1.609.751l.036.036.215.036.179-.107v-.179l-1.68-1.037-1.18-.822c.981-.062 1.589-.455 1.823-1.18-1.295.667-2.058.679-2.288.036l1.001-1.573.036-.143-.429-.393-1.108.036v.107c.143.095.274.214.393.358.358.334.358.453 0 .357l-.322-.036-.5-.822v-.071l-.036-.072-.036.036a12.722 12.722 0 0 1-1.253-.715z" fill="#dea589"/><path d="M19.443 20.072l-.25.25.179.25c.405.262.822.5 1.251.715l.036-.036v-.143l-.572-.5c.286-.048.56-.131.822-.25.143-.024.286-.072.429-.143l-.107-.286h-.036L20.051 20l-.608.072m-1.501-.823c.024.024.048.06.072.107a.707.707 0 0 0 .465.286l1.788.215a.534.534 0 0 0 .25-.143.795.795 0 0 0 .143-.322l-.429-.143h-1.215l-.608-.143c-.311-.095-.466-.047-.466.143z" fill="#e8b59f"/><path d="M19.694 18.427h.036l.215-.358-.429-.143-.107.322.072.072.213.107z" fill="#ebbaa3"/><path d="M19.336 18.284l-.143.107-.358.358c-.048.048-.06.095-.036.143a.473.473 0 0 0 .179.214l.143.143h1.108l.5-.25-.071-.107-.894-.393-.071-.072-.215-.107-.142-.036z" fill="#98685e"/><path d="M18.943 18.105l.036.179.215.107.143-.107.071-.036.107-.322v-.179l-.322-.036-.25.394z" fill="#b77d6b"/><path d="M18.264 17.569l.679.536.25-.393-.072-.25-.786.071-.071.036m-.501-.679h-.072v1.323c-.024.572.024 1.037.143 1.394 0-.143.048-.238.143-.286l.036.036a.41.41 0 0 0-.072-.107c0-.191.155-.238.465-.143l.608.143-.036-.143a.48.48 0 0 1-.179-.214c-.024-.048-.012-.095.036-.143l.358-.358-.215-.107-.608-.179c-.089-.027-.16-.027-.215 0a2.785 2.785 0 0 1-.143-.393.392.392 0 0 1 .072-.393c.167-.167.179-.31.036-.429a1.257 1.257 0 0 0-.179-.071v.143c-.048.095-.083.107-.107.036l-.071-.109z" fill="#d49a83"/><path d="M20.873 17.319l.536.608.393-.465-.929-.143m-.429.429c0 .095-.048.167-.143.215a.577.577 0 0 1-.358.107l-.215.358.036.072.894.393.143.071.286.179a2.5 2.5 0 0 0-.143-.608 4.297 4.297 0 0 0-.5-.787z" fill="#e8b59e"/><path d="M20.301 17.962c.095-.048.143-.119.143-.215l-.5-.036-.429.036v.179l.429.143a.567.567 0 0 0 .357-.107z" fill="#825a58"/><path d="M21.946 20.536l.322-.358-.751-.608.429.966z" fill="#c58571"/><path d="M22.017 20.787l-.072-.25-.429-.965-.107-.143-.036.036-.107.215-.036.179v.071l.107.286.465.608v.179l.215-.216z" fill="#875e5a"/><path d="M23.233 18.856l-.393.179.286.679.679-.072a.372.372 0 0 0 .107-.072c.187-.109.27-.264.25-.465a1.043 1.043 0 0 1-.036-.25l-.679-.072-.214.073z" fill="#efc0ac"/><path d="M22.303 18.463l-.036-.072-.858-.465-.536-.608.179-.358-.715.071-.107.465-.286.215.5.036c.191.238.358.5.5.787a2.5 2.5 0 0 1 .143.608l.286.25.036.036.107.143.751.608.822-.143.036-.322-.286-.679-.072-.393-.393.179-.179.25.108-.608z" fill="#d39a84"/><path d="M22.589 18.105l.894-1.108.107-.107-.179-.358-1.609.93-.393.465.858.465.072.036.25-.323z" fill="#614d51"/><path d="M23.483 16.997l-.894 1.108.536-.143.358-.965z" fill="#ad7468"/><path d="M25.02 17.891c.119-.119.095-.226-.072-.322l-.822.393c.167.263.465.239.894-.071z" fill="#c18676"/><path d="M23.59 16.89l.822-.286c-.119-.215-.358-.286-.715-.215l-.286.143.179.358m4.076-.572c-.782-.315-1.45-.434-2.002-.357a2.191 2.191 0 0 1-.643.179l-.358.036a.343.343 0 0 0-.143.179.787.787 0 0 0-.107.25l.572-.107c.214.095.441.203.679.322.095.024.191.06.286.107.593-.294 1.07-.401 1.43-.322.36.083.574.13.644.143l-.286-.358-.072-.072z" fill="#b77b6a"/><path d="M25.02 17.462l.286-.215-.322-.751-.572.107-.822.287-.107.107-.358.965-.536.143-.25.322-.036.036-.107.608.179-.25.393-.179.072.393.393-.179.036-.107.608-.715.644-.286.499-.286z" fill="#674f52"/><path d="M18.013 19.357l-.036-.036c-.095.048-.143.143-.143.286l.465 1.287h.036c.062-.021.205-.104.429-.25l.608-.071-.179-.25.25-.25.608-.073.215-.143-1.788-.215a.71.71 0 0 1-.465-.285z" fill="#bf8370"/><path d="M17.727 15.567h-.036l.036.036v-.036z" fill="#f5d1be"/><path d="M17.584 15.388a7.711 7.711 0 0 1-.143.751.816.816 0 0 0 .25.679l.072.071.071.107c.024.071.06.06.107-.036v-.143c0-.024.012-.048.036-.072.024-.262-.06-.632-.25-1.108v-.036l-.036-.036c-.071-.045-.107-.105-.107-.177z" fill="#b67a6b"/><path d="M24.734 14.959h-.072c-.095.167-.083.298.036.393.048 0 .095.012.143.036l.036-.036-.143-.393m.894 3.039l1.466-.107-.179-.071c-.572.143-1.037.048-1.394-.286a1.139 1.139 0 0 1-.215-.286l-.286.215-.072.107c.167.095.191.203.072.322-.429.31-.727.334-.894.072l-.25.072-.608.715.179.036.679.072c0 .071.012.155.036.25.02.2-.063.355-.25.465l.358-.179.822-.143-.25-.93.429.107.357-.431m3.325-.929a2.766 2.766 0 0 1-.25.286c-.405.453-.918.655-1.537.608v.143l.822.643.393-.286c.024-.119.06-.238.107-.358.048-.048.107-.095.179-.143l.286-.465v-.428m-1.108-1.287c.47.087.792.266.965.536a8.85 8.85 0 0 0 .751-.536l.5-.429-.107-.215c-.136.012-.35-.048-.643-.179-.293-.107-.818-.107-1.573 0l-.965-.036-1.859.5-.072-.036.179.751c.215-.024.429-.083.643-.179 1.007-.205 1.734-.264 2.181-.177z" fill="#dca48a"/><path d="M22.375 15.102l.858.286.572-.143.536-.536.036-.143c-.429 0-.941.131-1.537.393a12.92 12.92 0 0 0-.465.143z" fill="#ab7164"/><path d="M23.233 15.388l-.036.179.5.286.286-.25-.179-.358-.571.143z" fill="#cb8d77"/><path d="M22.375 15.102h-.25l-.036.036-.465.429c.358.048.715.072 1.073.072.167 0 .334-.024.5-.072l.036-.179-.858-.286z" fill="#835b58"/><path d="M24.234 12.957l.036-.143-1.215.322.071.036 1.108-.215z" fill="#ae7667"/><path d="M21.231 14.995c.024 0 .036-.012.036-.036l-.179-.107c-.405-.024-.465.036-.179.179.143.095.25.083.322-.036z" fill="#7d5654"/><path d="M18.407 15.674a.35.35 0 0 1-.107-.071c-.167-.143-.226-.453-.179-.929-.167.071-.262.214-.286.429-.024.238-.06.381-.107.429V15.64c.191.477.274.846.25 1.108 0 .024.012.048.036.072a.438.438 0 0 1 .107.071c.143.119.131.262-.036.429a.397.397 0 0 0-.072.393c.024.095.071.226.143.393.054-.027.126-.027.215 0l.608.179-.036-.179-.679-.536.072-.036.786-.071.179-.5-.107-.536.5-.143c-.12-.312-.549-.514-1.287-.61m-.036.465v-.072l.643-.036-.107.286-.536.036a5.075 5.075 0 0 1-.215-.036.672.672 0 0 1 .215-.178z" fill="#e2ab93"/><path d="M18.371 16.068v.072a.673.673 0 0 0-.215.179c.08.015.151.026.215.036l.536-.036.107-.286-.643.035z" fill="#b87a67"/><path d="M18.121 14.673c.048-.119.083-.226.107-.322.048-.119-.048-.191-.286-.214l-.25.536c-.167.238-.203.477-.107.715 0 .071.036.131.107.179h.036v-.036c.048-.048.083-.191.107-.429.023-.214.119-.357.286-.429z" fill="#bb7c69"/><path d="M19.372 12.814c-.024 0-.036.012-.036.036-.167.048-.31.083-.429.107h-.071c0-.021.012-.033.036-.036a.116.116 0 0 0-.071.036c-.191.119-.286.31-.286.572.048 0 .083.012.107.036h.036c.165.009.296.009.393 0 .191 0 .322-.095.393-.286a.441.441 0 0 0 0-.25 3.192 3.192 0 0 0-.072-.215z" fill="#e7b099"/><path d="M20.087 13.815l-.143-.786-.143-.322h-.107a.807.807 0 0 0-.322.107c.03.08.054.151.072.215a.44.44 0 0 1 0 .25c-.072.191-.203.286-.393.286a2.817 2.817 0 0 1-.393 0h-.143c-.286.143-.477.334-.572.572.238.024.334.095.286.214-.024.095-.06.203-.107.322-.048.477.012.786.179.929.03.03.066.054.107.071.739.095 1.168.298 1.287.608l-.5.143.107.536-.179.5.072.25.322.036.429-.036.286-.215.107-.465.715-.071-.179.358.929.143 1.609-.93.286-.143c.358-.072.596 0 .715.215a.81.81 0 0 1 .107-.25.343.343 0 0 1 .143-.179l.358-.036-.179-.751a.316.316 0 0 0-.143-.036c-.119-.095-.131-.226-.036-.393l-.322-.25-.536.536.179.358-.286.25-.5-.286a1.804 1.804 0 0 1-.5.072c-.358 0-.715-.024-1.073-.072l.465-.429V15.1l-.751-.179-.071.036c0 .024-.012.036-.036.036-.072.119-.179.131-.322.036-.286-.143-.226-.203.179-.179l.107-.179-1.43-.25a.327.327 0 0 1 0-.214 2.56 2.56 0 0 1 .32-.392m-.572 1.538l.322-.215c.072.024.131.06.179.107.142.31-.024.346-.501.108m1.072.858l.751.107.465.286-.572.036-.644-.429z" fill="#f1c3ae"/><path d="M21.338 16.318l-.751-.107.644.429.572-.036-.465-.286z" fill="#845d59"/><path d="M19.837 15.138l-.322.215c.477.238.644.203.501-.107a.455.455 0 0 0-.179-.108z" fill="#c68c77"/><path d="M20.73 13.136h-.107c.286.31.608.62.965.929.5-.31 1.013-.608 1.537-.894l-.071-.036-1.215.25-.215.322-.894-.571m2.682.751c-.238-.119-.417-.06-.536.179.143.048.286.119.429.215a.38.38 0 0 1 .215-.071c.476-.263.44-.371-.108-.323z" fill="#e6b199"/><path d="M19.98 12.707V12.6l-.036-.179-.072-.072-.107-.107h-.036l-.5.286c-.191.119-.31.25-.358.393-.024.003-.036.015-.036.036h.071c.119-.024.262-.06.429-.107 0-.024.012-.036.036-.036a.802.802 0 0 1 .322-.107h.287z" fill="#87615e"/><path d="M20.623 11.778v-.071l-.036-.036-.107-.143-.715.715.107.107.072.072.036.178.465-.608a.533.533 0 0 1 .178-.214z" fill="#bc8270"/><path d="M21.874 10.991c.095 0 .119-.036.071-.107-.048-.095-.036-.155.036-.179l-.465-.286h.072l-.036-.036h-.142a.963.963 0 0 1-.429.286v.071l-.143.501c.024 0 .048.012.072.036.072-.024.203-.083.393-.179.214-.095.405-.131.571-.107z" fill="#d49c84"/><path d="M23.09 10.812h-.036a.218.218 0 0 1-.143.143.581.581 0 0 1-.179.036c-.167.024-.274.06-.322.107.262.215.512.572.751 1.073-.763.31-1.382.632-1.859.965l.536.25 1.215-.25 1.215-.322.071-.5-.715-.536 1.001-.107.643-.358-.143-.143-.179-.322a.932.932 0 0 1-.107-.143.768.768 0 0 0-.214-.25c-.048-.048-.083-.072-.107-.072a.439.439 0 0 0-.25-.071 2.913 2.913 0 0 0-.358-.107 4.787 4.787 0 0 1-.072.071.44.44 0 0 0-.107.071c-.095.238-.143.369-.143.393-.093.144-.26.168-.498.072m4.862 1.788c-.048.071-.107.083-.179.036a1.888 1.888 0 0 1-.787.179l-.751.036.179-.25v-.143h-.143l-1.609.608-.429-.107-1.108.214c-.524.286-1.037.584-1.537.894-.358-.31-.679-.62-.965-.929h.107a4.21 4.21 0 0 0 .107-.465c.048-.334.072-.667.072-1.001a.607.607 0 0 0-.072-.071.352.352 0 0 0-.179.143c-.023 0-.035.012-.036.036a.542.542 0 0 0-.179.214l-.463.606v.107l-.036.322.143.786c-.119.119-.226.25-.322.393a.327.327 0 0 0 0 .214l1.43.25.143.25.751.179h.286c.143-.048.298-.095.465-.143.596-.262 1.108-.393 1.537-.393l.358.393.143.393.036.071 1.859-.5.965.036 1.216-.643-.107-.179a.393.393 0 0 0-.072-.143c-.31-.143-.334-.346-.072-.608l-.25-.215-.036-.036c-.334.31-.429.179-.286-.393l-.179-.141m-5.077 1.466c.119-.238.298-.298.536-.179.548-.048.584.06.107.322a.39.39 0 0 0-.215.071 1.766 1.766 0 0 0-.428-.214z" fill="#f5ccb8"/><path d="M22.875 10.562h-.035c-.334.095-.572.143-.715.143h-.143c-.072.024-.083.083-.036.179.048.072.024.107-.071.107-.167-.024-.358.012-.572.107a3.94 3.94 0 0 1-.393.179h-.107l-.179.286v.071c0 .048.012.083.036.107a.348.348 0 0 1 .179-.143.982.982 0 0 1 .072.071c0 .334-.024.667-.072 1.001a4.45 4.45 0 0 1-.107.465l.894.572.215-.322-.536-.25c.477-.334 1.096-.655 1.859-.965-.238-.5-.489-.858-.751-1.073.048-.048.155-.083.322-.107a.587.587 0 0 0 .179-.036c0-.071.036-.131.107-.179-.024-.024-.048-.036-.071-.036l-.143-.143.068-.034z" fill="#f0c0aa"/><path d="M23.304 9.99l-.072-.036c.095.191.072.334-.071.429l-.286.179-.071.036.143.143c.024 0 .048.012.071.036.024 0 .048.012.072.036.238.095.405.071.5-.072 0-.024.048-.155.143-.393.024-.025.036-.048.036-.071.024-.071.048-.131.071-.179a.388.388 0 0 0-.286-.107l-.25-.001z" fill="#e5b098"/><path d="M23.233 9.954l.072.036v-.036a.41.41 0 0 0-.072-.107c-.477.429-1.013.62-1.609.572H21.516l.465.286h.143c.143 0 .381-.048.715-.143h.036l.286-.179c.143-.095.167-.238.072-.429z" fill="#936c66"/><path d="M23.483 9.919l-.179.036v.035h.25c.119 0 .215.036.286.107a1.257 1.257 0 0 0-.071.179h.071l.072-.071c.024 0 .143.036.358.107.095 0 .179.024.25.071a1.367 1.367 0 0 0-.179-.25h.572a.108.108 0 0 0-.072-.036 1.613 1.613 0 0 0-.536-.143 3.895 3.895 0 0 0-.465-.036 2.132 2.132 0 0 0-.322-.036l-.035.037z" fill="#7d6060"/><path d="M33.886 38.233l-.25-.072-.215.143-.465.465.644.429c.215.191.167.262-.143.215l.072.143v.072c.429-.167.667-.358.715-.572 0-.024.012-.036.036-.036v-.071l-.357-.644-.037-.072z" fill="#b16d5a"/><path d="M33.422 37.553h-.072l-.143-.143-.322-.465-.322.322.071.179.894.679.107.036.25.072.036.036.286-.107-.785-.609z" fill="#d79c7f"/><path d="M33.708 36.624l-.036-.071-.429.215-.036.643.143.143c0-.024.012-.036.036-.036l.036.036.786.608.179.143.429-.25-1.108-1.431m-2.002 1.644h-.286l-2.574.286-.179.143-.679.572.393.429.822-.286.25.393 3.754-.393h.25c.31.048.358-.024.143-.215l-.644-.429.465-.465.071-.143-1.786.108z" fill="#8c5953"/><path d="M36.496 37.589v-.071c-.143-.524-.465-.965-.965-1.323a4.787 4.787 0 0 1-.071-.072 1.949 1.949 0 0 0-.286-.179c.048.167.179.369.393.608.238.262.393.477.465.644v.036l.107-.071.357.428m.036.215a.674.674 0 0 0-.036-.215l-.036.071a.4.4 0 0 1 .072.144z" fill="#966962"/><path d="M36.46 37.661l.036-.071-.358-.429-.107.071h-.036l-.286.215.036.25.036.036c0 .095-.072.143-.215.143l-.358.179-.107.107-.465.322-.25-.179-.179-.143-.286.107v.036l.357.644v.071c.381 0 .715-.143 1.001-.429l1.181-.93z" fill="#f0c1a9"/><path d="M36.496 37.589a.669.669 0 0 1 .036.215.402.402 0 0 0-.071-.143l-1.18.93c-.286.286-.62.429-1.001.429-.024 0-.036.012-.036.036-.048.215-.286.405-.715.572v-.036c-.024.071-.012.131.036.179.024.048.06.083.107.107.358-.119.775-.357 1.251-.715.572-.453.941-.727 1.108-.822l.071-.071.286-.25a.89.89 0 0 0 .25-.286c.024-.095-.024-.167-.143-.214l.001.069z" fill="#6b5151"/><path d="M30.061 41.021h.036a16.5 16.5 0 0 0 1.609-.572l1.18-.5c.149-.069.292-.14.429-.215l.215-.143v-.036l-.072-.143h-.143l-.071.036-3.289 1.537.106.036z" fill="#c47f63"/><path d="M29.525 40.449a1.133 1.133 0 0 0-.358-.143 2.588 2.588 0 0 0-.429-.036l.25.322.537-.143z" fill="#d28f6f"/><path d="M26.093 40.699l.286.179-.429-3.074.143 2.895z" fill="#704f4e"/><path d="M28.56 41.343v.107l.429-.143v-.036l-.036-.036-.822-.822.429.894v.036z" fill="#a06254"/><path d="M28.56 41.45v-.107c-.024 0-.036.012-.036.036-.148.04-.291.076-.429.107l-1.18.072-2.36.179a.678.678 0 0 1-.215-.036l-.143-.071-.965-.215h-.358l-.071-.071-.679-.25-.679-.25-.214-.072-.644-.143a9.777 9.777 0 0 0-.715-.322l-3.074-1.573a19.136 19.136 0 0 1-1.037-.572 9.891 9.891 0 0 1-.393-.286.438.438 0 0 1-.107-.071v-.036h.036a.432.432 0 0 1 .071-.179l1.037.322-.679-1.466 1.609 1.215.25-.322-.679-.751c-.267-.625-.243-1.042.071-1.251l-.036-.143-.429-.608-.393-.143-.286 1.144-.572-1.251h-.178v.036c-.024-.071-.083-.107-.179-.107-.262.5-.477 1.239-.643 2.217-.143.81.071 1.478.643 2.002l.072.036.822.608c.076.038.16.086.25.143.24.149.526.364.858.644.453.286.894.405 1.323.357.143 0 .215.048.215.143-.024.238.012.369.107.393.048.024.179-.012.393-.107.095-.048.179-.06.25-.036.024 0 .048.012.071.036a.316.316 0 0 1 .036.143c-.024.191.036.31.179.357.072.024.191.048.358.072 1.096.405 2.24.691 3.432.858h.143c1.716.095 2.931.119 3.646.071 2.669-.429 4.79-1.168 6.364-2.216l-.036-.071-.071-.179c-.137.074-.28.146-.429.215l-1.18.5c-.487.205-1.024.395-1.609.572-.095.095-.334.143-.715.143-.072.072-.203.107-.393.107v.036l-.43.141z" fill="#52464c"/><path d="M26.915 41.557l-.393-.679h-.143l-.286-.179-1.823-.679.179.715.608.429-.465.501-.036.035v.036l2.359-.179z" fill="#c38065"/><path d="M27.988 39.269l.679-.572-1.43-.429.751 1.001m1.287-1.287l-.25.179-.179.393 2.574-.286-.143-.286h-2.002z" fill="#ae6c5b"/><path d="M28.381 39.698l.358.572c.143 0 .286.012.429.036.119.024.238.071.358.143l-.536.143.393.536v.036c.381 0 .62-.048.715-.143h-.036l-.107-.036 3.289-1.537-.036-.036-3.754.393-.25-.393-.823.286z" fill="#ad6b59"/><path d="M28.131 40.413l-.215-.143-1.394.608.393.679 1.18-.072c.138-.032.281-.067.429-.107 0-.024.012-.036.036-.036v-.036l-.429-.893z" fill="#c37c61"/><path d="M27.237 38.268l-.107-.107.358 1.287.036.143.036.071.358.608.215.143.822.822.036.036c.191 0 .322-.036.393-.107v-.036l-.393-.536-.25-.322-.358-.572-.393-.429-.753-1.001z" fill="#734f4e"/><path d="M26.558 37.232v.179c.029.05.053.098.071.143.026.013.038.024.036.036a.446.446 0 0 0 .322.143l1.716.179v-.502l-.143-.286v.036l-2.002.072z" fill="#d69778"/><path d="M26.2 36.588c.139.291.258.565.358.822v-.179l-.358-.643m6.006-.429a5.802 5.802 0 0 0-.215-.393 53.642 53.642 0 0 0-1.001-1.18h-.286l-.143.286 1.609 1.287h.036m-4.576-5.148l-.072-.179c-.528-.07-.957-.368-1.287-.894-.307-.502-.783-.966-1.43-1.394L23.84 27.9l-.643.429c1.406 1.168 2.443 2.55 3.11 4.147v.107l-1.359.286 1.359.25h.071l.429 1.573.286.179c-.086.105-.181.224-.286.357l1.752 1.931v-.036l.143.286v.501l-1.716-.179a.448.448 0 0 1-.322-.143c.002-.011-.01-.023-.036-.036.429.892.715 1.523.858 1.895l-.358-1.287.107.107 1.43.429.179-.143.179-.393.25-.179h2.002l-.93-1.072.286-.215 1.501.751.429-.036-.143-.179-1.537-1.215-.25-.179c-.405.001-.726-.142-.965-.429a4.171 4.171 0 0 1-.608-.894c-.142-.296-.238-.677-.286-1.144l-.358-.965-.358-.215-.107.179-.143.322c.031-.381-.064-.905-.286-1.573l.107-.072v-.034z" fill="#af6f5d"/><path d="M25.914 36.088c-.15-.248-.329-.606-.536-1.073l-.107-.215-.715-1.645-.465-.322-1.537-1.072-1.072-.286.322.358 1.609.894.715 1.144.536.715.286.679.644 2.788-1.215-1.215-.536-1.895-2.753-2.109-.643-.036.536.465.715.715a11.659 11.659 0 0 1 2.038 2.896c.119.238.238.489.358.751l.5 1.966c.095.024.203.048.322.071l.072.071c-.191.167-.429.226-.715.179v.107l1.823.679-.143-2.896.429 3.074h.143l1.394-.608-.358-.608-.036-.071-.036-.143c-.143-.371-.429-1.003-.858-1.895a1.26 1.26 0 0 0-.071-.143c-.1-.257-.219-.531-.358-.822l-.288-.498z" fill="#976158"/><path d="M32.135 37.446v.107l.215.25-.643.465 1.788-.107.036-.036-.894-.679-.071-.036-.431.036z" fill="#b7735e"/><path d="M29.954 31.083l-.072-.072-.107.215.179-.143z" fill="#d9a083"/><path d="M29.954 31.083l.036.036.215-.215c-.094-.245-.213-.364-.358-.358l-.072.358.107.107.072.072z" fill="#885955"/><path d="M29.275 30.046l-.036.179.822-.107-.786-.072m-.108-.179h.107l-.286-.429-.143.036-.822.644 1.144-.251z" fill="#865954"/><path d="M25.628 31.905c.215.191.441.381.679.572-.667-1.597-1.704-2.979-3.11-4.147l.643-.429 1.001.644-.071-.25-2.36-1.573h-.036l-.358.322 1.716 3.039a13.434 13.434 0 0 0 1.896 1.822z" fill="#c28069"/><path d="M27.63 31.047l-.107.072c.222.668.317 1.192.286 1.573l.143-.322.107-.179-.25-1.073h.644l.215-.536-1.001.429-.037.036z" fill="#ca8e77"/><path d="M28.917 30.582h-.25l-.215.536.358.215h.143l.429-.286-.465-.465z" fill="#e9b79d"/><path d="M28.667 30.582h.25l.322-.357.036-.179.036-.036-.036-.107v-.036h-.107l-1.144.25-.25.179-.215.536.072.179h.036l1-.429z" fill="#614b4d"/><path d="M28.131 28.151v-.036a.434.434 0 0 0-.107-.036l-.465.071.358.215-.072.179-.071.071a.502.502 0 0 1-.107.107.242.242 0 0 1-.072.036l-.036.215.858-.286c.013-.026.013-.05 0-.072.015-.074-.021-.145-.107-.215-.12-.07-.179-.153-.179-.249z" fill="#916059"/><path d="M26.021 27.043l-.179-.286.179-.25c.072 0 .143.012.215.036l.143-.143.072-.072-.143-.179a10.076 10.076 0 0 1-.143-.036c-.636-.185-1.077-.59-1.323-1.215a6.643 6.643 0 0 0-.286-.643l-.036.035c.023.03-.024.221-.143.572-.091.349-.46.552-1.108.608l1.68 1.037c.238.167.5.298.787.393a.544.544 0 0 0 .285.143z" fill="#c1816c"/><path d="M28.953 25.72l-.715-.143c.319.075.557.134.715.179v-.036m2.538-1.001h.036c-.03.343-.138.629-.322.858a17.54 17.54 0 0 0-.465.322c-.155.062-.31.122-.465.179a5.363 5.363 0 0 1-.25.107l.107-.072-.25-.036-1.18-.071c-.315.008-.756-.004-1.323-.036.286.334.536.691.751 1.073.024.024.012.072-.036.143l-.107.429-.536.5.107.036.465-.071a.42.42 0 0 1 .107.036v.036l.143-.143c.259-.269.45-.496.572-.679l-.036-.036a.492.492 0 0 1 .143-.25.381.381 0 0 0 .107 0c.191-.048.298-.083.322-.107 0 .024.012.036.036.036v-.036c.167-.095.489-.155.965-.179.405 0 .703-.107.894-.322h.036l.036-.036c.405-.524.572-1.084.501-1.68l-.143-.143c-.12-.001-.191.047-.215.142z" fill="#5f4a4e"/><path d="M27.416 26.65l.679.536c.048-.071.06-.119.036-.143a6.733 6.733 0 0 0-.751-1.073 15.655 15.655 0 0 0-.965-.322l.036-.143c-.572-.191-1.001-.524-1.287-1.001l.25-.358-.858-.215v.322c.119.238.215.453.286.643.246.625.687 1.03 1.323 1.215l.143.036.143.179-.072.072-.143.143a.674.674 0 0 0-.215-.036l-.179.25.179.286 1.43 1.073.536-.5-.894-.787.323-.177z" fill="#ab6f62"/><path d="M28.095 27.186l-.679-.536-.322.179.894.787.107-.43z" fill="#98635b"/><path d="M28.989 29.045l.143-.072v-.036c-.044-.11-.151-.158-.322-.143-.009.02-.021.032-.036.036-.024 0-.036.012-.036.036-.119.024-.203.012-.25-.036l-.072-.143-.858.286-.679.358 1.716-.107c.104-.031.199-.067.286-.107l.108-.072z" fill="#ecbca3"/><path d="M29.132 28.973a9.362 9.362 0 0 0-.143.072l-.107.071c-.087.04-.182.076-.286.107l-1.716.107.679-.358.036-.215a.269.269 0 0 0 .072-.036.526.526 0 0 0 .107-.107l.071-.071-2.896-1.716-.179-.036-.215-.036h-.035l-.286.5 2.824 2.324-.25.429-2.038-1.716.071.25c.647.428 1.123.893 1.43 1.394.33.525.759.823 1.287.894l.215-.536.25-.179.822-.644.143-.036a.53.53 0 0 1 .143-.143l.107-.072c.071-.071.036-.167-.107-.286v.039z" fill="#c5836a"/><path d="M32.635 33.549v-.107l-.393-.465h-.036a7.387 7.387 0 0 1-.536-.5c-.262-.262-.477-.429-.643-.5a.719.719 0 0 0 .214.357c-.048.072-.036.083.036.036l.179.179.107.179.143.107.929.714z" fill="#a16d65"/><path d="M32.635 33.728v-.179l-.929-.715c0 .238.083.441.25.608a.927.927 0 0 0 .679.286z" fill="#dba993"/><path d="M28.953 32.548c.5.31 1.096.465 1.787.465l-2.502-1.609c0 .453.238.835.715 1.144z" fill="#d29579"/><path d="M33.064 33.871a.76.76 0 0 0-.107-.071v.036l1.215 1.18c.144.108.251.203.322.286h.179l-.25-.25a5.986 5.986 0 0 1-.393-.465l-.071-.071c-.024 0-.036-.012-.036-.036a12.066 12.066 0 0 0-.859-.609z" fill="#a7766d"/><path d="M30.025 21.108l-.071.572a.898.898 0 0 0 .107-.215c.048-.215.083-.417.107-.608l-.143.251m-4.611-1.144l.536.572.036.036.465-.179h.071l.465-.286a9.777 9.777 0 0 0-.715-.322l-.572-.215-.286.394z" fill="#a97064"/><path d="M31.312 22.646v-.072l-.036.143.036-.036v-.035m-.321-.966l-.036.036-.572.93-1.287.572.143.286.322-.036.036-.036c0-.143.095-.274.286-.393.191-.095.429-.143.715-.143.064.018.136.042.215.071h.215v.036l.143-.143c.071-.048.107-.095.107-.143v-.179c-.119-.072-.179-.191-.179-.358v-.429c-.024-.024-.036-.048-.036-.071h-.072z" fill="#c68770"/><path d="M31.026 22.967h-.215v.143l-.429.751.429.393v-.036l.465.286a1.964 1.964 0 0 0-.143.179.579.579 0 0 0 .143-.107l.179.107.143-.143-.214-.214c-.691-.238-.81-.596-.358-1.073v-.286z" fill="#996961"/><path d="M31.491 21.716l.036-.179a.438.438 0 0 0-.107.071.376.376 0 0 0-.179.393c.048.286.06.465.036.536v.179l.036-.143.036-.036.142-.821z" fill="#f1c7b2"/><path d="M28.452 23.861l-.858.215c1.015.7 2.076.902 3.182.608l.036-.358v-.072l-.429-.393.429-.751v-.143a2.433 2.433 0 0 0-.215-.071c-.286 0-.524.048-.715.143-.191.119-.286.25-.286.393a.446.446 0 0 1 .107.179c.024.024.036.071.036.143l-1.287.107z" fill="#e7b095"/><path d="M26.951 24.969c-.02.005-.056-.007-.107-.036l-.25-.107a.416.416 0 0 0-.072-.107 46.218 46.218 0 0 1-.858-.643l-.25.071-.25.358c.286.477.715.81 1.287 1.001l-.036.143c.254.073.576.18.965.322.567.032 1.008.044 1.323.036l1.18.071-.286-.143a8.236 8.236 0 0 0-.608-.179v.036l-.036-.036a17.614 17.614 0 0 0-.715-.179l-1.287-.608m-.822-.25v.036l-.071-.036H26.129z" fill="#7b5655"/><path d="M26.129 24.755v-.036h-.036l.036.036m.035-.894c-.595-.372-1.012-.551-1.251-.536l-.786.072.429.536.858.215.25-.071c.374.286.66.5.858.643a.434.434 0 0 1 .072.107l.25.107c.052.029.087.04.107.036l1.287.608.715.143.036.036c.191.048.393.107.608.179l.286.143.25.036-.107.072c.083-.033.167-.069.25-.107.155-.057.31-.117.465-.179.167-.119.322-.226.465-.322.184-.229.291-.515.322-.858h-.036l-.036-.036-.179-.107a.555.555 0 0 1-.143.107l-.072.071.107.393c-.215.262-.536.381-.965.358a.384.384 0 0 1-.215.072.304.304 0 0 1-.25.036l-1.215-.393c-.736-.21-1.523-.663-2.36-1.361z" fill="#b97967"/><path d="M26.164 23.861c.837.698 1.624 1.151 2.36 1.358l1.215.393a.303.303 0 0 0 .25-.036.384.384 0 0 0 .215-.072c.429.024.751-.095.965-.358l-.107-.393.072-.071c.071-.095.119-.155.143-.179l-.465-.286V24.325l-.036.358c-1.106.295-2.166.092-3.182-.608a9.777 9.777 0 0 0-.715-.322 13.43 13.43 0 0 0-2.216-.787l-.465-.179-.179-.072a.636.636 0 0 0-.179.179c-.143.167-.119.358.072.572-.235.725-.842 1.118-1.823 1.18l1.18.822c.648-.056 1.017-.258 1.108-.608.119-.351.166-.542.143-.572l.036-.036v-.322l-.429-.536.786-.072c.24-.012.657.167 1.251.539z" fill="#d39578"/><path d="M26.093 22.324l.429-.358c-1.411-.29-2.293-.743-2.646-1.358h-.036l-.751-.572-.822.143-.322.358.072.25c.167.119.358.203.572.25.596.262.87.584.822.965l.608.715.179.072c.763.095 1.394-.06 1.895-.465z" fill="#edbca5"/><path d="M27.845 21.394l.072.179 1.18.286.036-.429a10.884 10.884 0 0 0-.286-.536l-.894-.214-.108.714z" fill="#b47667"/><path d="M26.522 20.393l.107.036 1.18.965h.036l.107-.715-.965-.572-.465.286z" fill="#90615c"/><path d="M25.95 20.572v-.036l-.536-.572c-.31 0-.584-.06-.822-.179-.214-.095-.322-.226-.322-.393l-.358.179a.387.387 0 0 1-.107.072l-.679.072-.036.322.751.572.072-.036c.477 0 .989-.012 1.537-.036.166-.001.333.011.5.035z" fill="#c28674"/><path d="M25.449 19.357l-.071-.036-.286-.071-.822.143c0 .167.107.298.322.393.238.119.512.179.822.179l.286-.393-.251-.215z" fill="#8c5f5a"/><path d="M28.488 18.105a2.003 2.003 0 0 0-.107.358l.107.179.358-.107c.143-.215.143-.369 0-.465a1.727 1.727 0 0 0-.179-.107 1.165 1.165 0 0 0-.179.142z" fill="#775756"/><path d="M28.023 16.747c-.069-.013-.284-.06-.644-.143-.36-.079-.837.028-1.43.322a1.386 1.386 0 0 0-.286-.107 17.916 17.916 0 0 0-.679-.322l.322.751c.048.095.119.191.215.286.358.334.822.429 1.394.286.191-.122.477-.253.858-.393.404-.112.487-.339.25-.68z" fill="#a06b62"/><path d="M29.561 18.82l-.036-.286h-.679l-.358.107-.5.107-.822-.643-1.537-.107-.358.429-.429-.107.25.93.286.071.429.036 1.609.322c.215.024.429.036.643.036.691-.001 1.192-.299 1.502-.895z" fill="#f2c6b1"/><path d="M30.991 20.215l.644.5-.715.358-.751-.215c-.024.191-.06.393-.107.608a.937.937 0 0 1-.107.215l-.393.393-.465-.215-1.18-.286-.107-.179-1.18-.965-.179-.036-.465.179h-.036a3.518 3.518 0 0 0-.501-.036 35.28 35.28 0 0 1-1.537.036l-.036.036c.352.616 1.234 1.069 2.646 1.358l-.429.358c-.5.405-1.132.56-1.895.465l.465.179c.81.215 1.549.477 2.216.787.238.095.477.203.715.322l.858-.215 1.287-.107-.179-.286-.322.036-.143-.286 1.287-.572.572-.93.036-.072-.5-.322c.405-.072.81-.155 1.215-.25.283-.018.462-.101.536-.25.095-.143.012-.381-.25-.715a.62.62 0 0 1-.286.071l-.714.036z" fill="#dea68b"/><path d="M31.849 19.678c-.048 0-.083-.012-.107-.036 0 .048.012.107.036.179.143.072.215.167.215.286.262.334.346.572.25.715-.075.149-.253.233-.536.25-.405.095-.81.179-1.215.25l.5.322.036.036h.072v.5c0 .167.06.286.179.358.024-.072.012-.25-.036-.536a.376.376 0 0 1 .179-.393.579.579 0 0 1 .107-.143c.215-.072.393-.155.536-.25.286-.167.453-.334.5-.5.048-.238-.143-.632-.572-1.18l-.179-.143v.036l.036.072v.177z" fill="#795858"/><path d="M29.489 20a2.66 2.66 0 0 0 .215-.608l-.143-.572c-.31.596-.81.894-1.502.894a5.76 5.76 0 0 1-.643-.036c.262.31.548.608.858.894a.797.797 0 0 0 .25.107c.405-.071.727-.297.965-.679z" fill="#e5af95"/><path d="M29.739 20.393c.095-.286.179-.584.25-.894l-.286-.107a2.613 2.613 0 0 1-.215.608c-.238.381-.56.608-.965.679a.81.81 0 0 1-.25-.107 9.995 9.995 0 0 1-.858-.894l-1.609-.322h-.358l.25.214.572.215c.238.095.477.203.715.322l.965.572.894.214c.095.167.191.346.286.536l-.036.429.465.215.393-.393.071-.572-.465-.072c.074-.214.134-.428.181-.643z" fill="#d3977e"/><path d="M29.99 19.5c-.071.31-.155.608-.25.894a6.353 6.353 0 0 1-.179.643l.465.072.143-.25.751.215.715-.358-.644-.5.715-.036a.62.62 0 0 0 .286-.071c0-.119-.072-.215-.215-.286l-.036-.036-.143-.215-.322-.393a23.79 23.79 0 0 0-.25-.429.41.41 0 0 0-.072-.107l-.072-.143a.357.357 0 0 1-.071.107l-.072.072c-.262.071-.512.143-.751.215v.606z" fill="#ecb9a2"/><path d="M30.025 17.819h.107c.381-.072.429-.215.143-.429a1.12 1.12 0 0 0-.465-.179l-.286.286.393.25.108.072z" fill="#4e454c"/><path d="M29.453 17.855l.071.679.036.286.143.572.287.108v-.608l.036-1.073-.107-.072-.466.108z" fill="#895f5b"/><path d="M29.811 17.212v-.072l-.858.358-.286.465c.048.024.107.06.179.107.143.095.143.25 0 .465h.679l-.071-.679.071-.358.286-.286z" fill="#b47a6a"/><path d="M31.169 18.463l-.036-.036h-.143v.143c0 .048.012.107.036.179.071.119.155.262.25.429l.322.393.143.072c.024.024.06.036.107.036V19.5l-.036-.072-.643-.965m-.178-1.216a.146.146 0 0 1-.071-.036l-.358-.536-.036.393-.715.071v.072c.167.024.322.083.465.179.286.215.238.358-.143.429l.429.679c.071-.143.131-.274.179-.393.072-.215.131-.429.179-.643a.46.46 0 0 0 .071-.215z" fill="#b47c6e"/><path d="M31.026 17.069c-.024.024-.036.083-.036.179a.464.464 0 0 1-.071.215 6.353 6.353 0 0 1-.179.643c-.048.119-.107.25-.179.393l-.429-.679h-.107l-.036 1.073c.238-.072.489-.143.751-.215l.072-.072a.35.35 0 0 0 .071-.107l.072.143c0-.024.012-.048.036-.072v-.143h.143c-.048-.095-.048-.274 0-.536l.036-.107v-.072c.071-.31.036-.548-.107-.715v.036c-.024 0-.036.012-.037.036z" fill="#d19781"/><path d="M30.061 15.353l-.5.429a8.482 8.482 0 0 1-.751.536l.107.25.036.501v.429l.858-.358.715-.071.036-.393-.179-.286-.322-1.037m-1.108-1.037l-1.216.643c.755-.107 1.28-.107 1.573 0 .293.131.508.191.643.179l-1-.822m-.179-.322a.393.393 0 0 1 .072.143l.25-.322a1.82 1.82 0 0 0-.036-.358l-.071-.214-.286.143c-.263.263-.239.465.071.608z" fill="#eab7a0"/><path d="M29.668 14.387c.529.435.791.947.787 1.537l-.072.465.179.286.358.536a.15.15 0 0 0 .071.036c0-.095.012-.155.036-.179v-.072a6.931 6.931 0 0 0-.179-.751l-.036-.143a4.435 4.435 0 0 0-.215-.715 3.276 3.276 0 0 0-.572-1.072 2.518 2.518 0 0 0-.358-.358v.43z" fill="#755758"/><path d="M29.632 13.315a3.766 3.766 0 0 0 0 1.036l.036.036v-.429l.072-.143c.072-.048.131-.095.179-.143a.341.341 0 0 0 .107-.215l-.071-.286-.323.144m-.965-.608l.036.071 1.073.036h.215c.143-.005.215-.065.215-.179V12.6a18.385 18.385 0 0 0-.5-.215l-.143-.071-.322.143-.574.25z" fill="#90635d"/><path d="M30.669 12.242l-.25-.143c0 .071.024.167.071.286 0 .119-.071.191-.215.215-.024 0-.048.012-.071.036 0 .114-.072.173-.215.179l-.071.107.036.25.071.286a.349.349 0 0 1-.107.215l-.072.143c.023.023.059.035.107.036.572.215.858-.107.858-.965a.429.429 0 0 1-.072-.107.669.669 0 0 1-.036-.215 1.033 1.033 0 0 0-.034-.323z" fill="#ce927b"/><path d="M28.846 14.137l.107.179 1.001.822.107.215.322 1.037.072-.465c.005-.59-.257-1.103-.787-1.537l-.036-.036a3.776 3.776 0 0 1 0-1.036l-.643-.071.071.214c.024.119.036.238.036.358l-.25.32z" fill="#d99f87"/><path d="M28.81 16.318c-.173-.271-.495-.449-.965-.536-.446-.087-1.173-.027-2.181.179.552-.076 1.22.043 2.002.357l.071.072.286.358c.237.341.154.568-.25.679-.381.14-.667.271-.858.393l.179.071.072.072c.62.048 1.132-.155 1.537-.608.092-.092.175-.187.25-.286l-.036-.501-.107-.25z" fill="#d09379"/><path d="M26.093 12.028l.179.429h.143l1.108-.536-1.43.107z" fill="#ca8d76"/><path d="M26.415 12.6l.572-.071.858-.143-.322-.465-1.108.536v.143m-.322-.572a1.973 1.973 0 0 1-.5.143 2.676 2.676 0 0 1-.751.179l-.143-.25-.071-.429-1.001.107.715.536-.071.5-.036.143.429.107 1.609-.608-.18-.428z" fill="#eab8a1"/><path d="M26.236 12.85l.751-.036v-.286l-.572.072-.179.25z" fill="#c58870"/><path d="M27.773 12.636c.071.048.131.036.179-.036l-.107-.215-.858.143v.286c.262 0 .524-.059.786-.178z" fill="#825a57"/><path d="M28.631 12.707l-.5.036c-.143.572-.048.703.286.393l.036.036.215-.393-.037-.072z" fill="#a26b5f"/><path d="M28.703 12.779h-.036l-.215.393.25.215.286-.143.643.071.322-.143-.036-.25-.143-.107-1.071-.036z" fill="#53464d"/><path d="M26.093 11.492l-.715-.214-.107.036-.643.358.071.429h.036a1.75 1.75 0 0 0 1.108-.393.739.739 0 0 0 .25-.216z" fill="#ac7768"/><path d="M26.415 10.276h-.036c-.119.024-.298.012-.536-.036-.024-.024-.048-.036-.072-.036a1.043 1.043 0 0 0-.25-.036h-.072c.119.071.167.155.143.25-.024.071-.131.215-.322.429l1.073-.429.036.036.036-.036c.071-.023.071-.07 0-.142z" fill="#6b5052"/><path d="M26.415 10.24l-.036.036h.036c.072.071.072.119 0 .143l-.036.036c.167.214.393.31.679.286-.048-.048-.072-.083-.072-.107 0-.072.024-.107.072-.107.024 0 .06.012.107.036h.358c-.119-.405-.441-.524-.965-.357a.317.317 0 0 0-.143.034z" fill="#c18c7a"/><path d="M29.167 11.313c0-.048.012-.083.036-.107-.286.048-.632-.012-1.037-.179-.429-.214-.751-.322-.965-.322a.316.316 0 0 1-.143.036c-.286.024-.512-.071-.679-.286l-.036-.036-1.073.429c.191-.214.298-.358.322-.429.024-.095-.024-.179-.143-.25a.787.787 0 0 0-.25-.107.396.396 0 0 1-.179.036.293.293 0 0 0-.107.036h-.572c.048.048.107.131.179.25.024 0 .06.024.107.072a.779.779 0 0 1 .214.25c.036.057.072.105.107.143l.179.322.25.107.715.214a.725.725 0 0 1-.25.215 1.753 1.753 0 0 1-1.108.393l.107.25a2.65 2.65 0 0 0 .751-.179 1.95 1.95 0 0 0 .5-.143l1.43-.107.322.465.107.215.179.143.5-.036h.036l.572-.25-.215-.572c.009-.152.044-.307.107-.465.002-.048.014-.084.037-.108z" fill="#f1c4ad"/><path d="M29.561 11.277c0 .024-.012.036-.036.036-.048.072-.107.095-.179.072a.347.347 0 0 0-.179-.072c-.024.024-.036.06-.036.107a1.449 1.449 0 0 0-.107.465l.215.572.322-.143.143.071c.119.048.286.119.5.215v.036c.024-.024.048-.036.071-.036.143-.024.215-.095.215-.215a.81.81 0 0 1-.071-.286v-.036l-.822-.751-.036-.035z" fill="#e0a990"/><path d="M29.739 11.277c-.072-.024-.119-.012-.143.036l.822.751v.036l.25.143h.036c.215-.143.238-.262.072-.358-.477-.405-.822-.608-1.037-.608z" fill="#f5cfba"/><path d="M29.525 11.313v-.036a39.655 39.655 0 0 1-1.108-.322 6.99 6.99 0 0 1-.894-.393h-.358a.273.273 0 0 0-.107-.036c-.048 0-.072.036-.072.107 0 .024.024.06.072.107a.316.316 0 0 0 .143-.036c.215 0 .536.107.965.322.405.167.751.226 1.037.179-.024.024-.036.06-.036.107.048 0 .107.024.179.072.072.024.131 0 .179-.071z" fill="#7d5e5d"/></g><path id="global_Penny_0_Layer1_0_MEMBER_3_MEMBER_5_1_STROKES_1_" class="st5" d="M31.635 10.735l.663-1.428.424.197c.251.143.331.311.241.506-.09.195-.254.263-.492.206-.239-.111-.385-.166-.439-.164.196.091.31.157.344.199.134.167.191.47.173.908"/></g></switch></svg>