<svg xmlns="http://www.w3.org/2000/svg" id="Layer_1" viewBox="0 0 50 50"><style type="text/css">.st1{fill:#e3e5e4}</style><g transform="matrix( 1, 0, 0, 1, 671.6,346.95) matrix( 1, 0, 0, 1, 0,0)"><g id="global_dime_0_Layer1_0_FILL"><path d="M-633.837-309.187c3.518-3.5 5.27-7.742 5.255-12.727.015-5.009-1.737-9.263-5.255-12.763-3.524-3.518-7.778-5.282-12.763-5.291-4.985.009-9.239 1.773-12.763 5.291-3.494 3.5-5.246 7.754-5.255 12.763.009 4.985 1.761 9.227 5.255 12.727 3.524 3.518 7.778 5.27 12.763 5.255 4.985.015 9.239-1.737 12.763-5.255m5.219-12.835c-.024 2.479-.477 4.779-1.358 6.9a16.413 16.413 0 0 1-.751 1.537c-.817 1.483-1.865 2.865-3.146 4.147l-.036.036-.036.036-.036.036c-2.427 2.416-5.216 3.989-8.365 4.719a4.16 4.16 0 0 1-.643.143 16.322 16.322 0 0 1-3.611.357c-4.93.009-9.136-1.731-12.62-5.219-3.465-3.46-5.205-7.654-5.219-12.584.013-2.496.466-4.808 1.359-6.935.219-.517.469-1.03.751-1.537.798-1.484 1.835-2.866 3.11-4.147l.036-.036.036-.036.036-.036c1.941-1.933 4.11-3.327 6.507-4.183a16.27 16.27 0 0 1 2.503-.679 17.697 17.697 0 0 1 3.611-.358c4.934 0 9.14 1.74 12.62 5.22 3.477 3.456 5.228 7.662 5.252 12.619z" fill="#69646e"/><path class="st1" d="M-629.976-315.122c.882-2.121 1.335-4.421 1.358-6.9-.024-4.957-1.776-9.164-5.255-12.62-3.48-3.48-7.686-5.22-12.62-5.22-1.263 0-2.467.119-3.611.358-.864.163-1.698.39-2.503.679-2.396.856-4.565 2.25-6.507 4.183l-.036.036-.036.036-.036.036c-1.275 1.281-2.312 2.663-3.11 4.147a18.086 18.086 0 0 0-.715 1.537c-.882 2.097-1.323 4.397-1.323 6.9 0 4.933 1.728 9.128 5.184 12.584 3.48 3.48 7.686 5.231 12.62 5.255a21.887 21.887 0 0 0 3.611-.357c.212-.042.415-.089.608-.143 3.15-.73 5.938-2.303 8.365-4.719l.036-.036.036-.036.036-.036c1.281-1.282 2.329-2.664 3.146-4.147.278-.499.528-1.011.752-1.537z"/></g></g><g transform="matrix( 1, 0, 0, 1, 671.6,346.95) matrix( 1, 0, 0, 1, 0,0)"><g id="global_dime_0_Layer1_1_FILL"><path d="M-629.118-321.879c0-4.84-1.716-8.963-5.148-12.369-3.383-3.384-7.482-5.076-12.298-5.077-4.816.001-8.939 1.693-12.37 5.077-3.36 3.407-5.04 7.53-5.041 12.369.001 4.816 1.681 8.903 5.041 12.262 3.431 3.432 7.554 5.148 12.37 5.148 4.816 0 8.915-1.716 12.298-5.148 3.432-3.358 5.148-7.446 5.148-12.262m-.358-.107v.107c-.01 3.511-.951 6.633-2.824 9.367a15.287 15.287 0 0 1-2.216 2.646c-3.314 3.361-7.33 5.041-12.048 5.041s-8.758-1.68-12.119-5.041c-1.65-1.65-2.889-3.485-3.718-5.506-.804-1.998-1.209-4.166-1.215-6.507v-.107c.009-3.528.939-6.662 2.789-9.402a16.276 16.276 0 0 1 2.181-2.681c3.337-3.337 7.365-5.005 12.083-5.005s8.747 1.668 12.083 5.005c1.68 1.668 2.931 3.515 3.754 5.541.827 2.01 1.244 4.191 1.25 6.542z" fill="#908997"/><path class="st1" d="M-629.476-321.879v-.107c-.007-2.352-.424-4.532-1.251-6.542-.823-2.026-2.074-3.874-3.754-5.541-3.337-3.337-7.365-5.005-12.083-5.005s-8.747 1.668-12.083 5.005a16.318 16.318 0 0 0-2.181 2.681c-1.85 2.74-2.779 5.874-2.789 9.402v.107c.006 2.34.411 4.509 1.215 6.507.829 2.02 2.068 3.856 3.718 5.506 3.362 3.361 7.401 5.041 12.119 5.041s8.734-1.68 12.048-5.041a15.25 15.25 0 0 0 2.216-2.646c1.874-2.734 2.816-5.856 2.825-9.367z"/></g></g><g transform="matrix( 1, 0, 0, 1, 671.6,346.95) matrix( 1, 0, 0, 1, 0,0)"><g id="global_dime_0_Layer0_0_FILL"><path d="M-640.916-309.116h-.322c-.262-.095-.429-.048-.5.143-.024.119.012.191.107.215.072.024.179.048.322.072.262.024.429-.036.5-.179.024-.144-.011-.227-.107-.251z" fill="#2d3a3f"/><path d="M-640.952-310.045c.024-.047.036-.214.036-.5-.003.098-.086.241-.25.429-.167.143-.226.298-.179.465.215-.073.346-.204.393-.394z" fill="#858b97"/><path d="M-649.674-309.402c-.238.405-.441.536-.608.393-.143-.238-.25-.393-.322-.465-.167.5-.095.786.214.858.382.096.62-.166.716-.786z" fill="#7a7f91"/><path d="M-643.49-308.365c.048-.048.071-.095.071-.143 0-.119-.071-.215-.214-.286-.262-.119-.405-.191-.429-.214.071.143.131.31.179.5.071.119.167.179.286.179.024.024.06.012.107-.036z" fill="#a1a8b1"/><path d="M-647.744-310.081c-.119.119-.25.155-.393.107-.214-.048-.346-.06-.393-.036.214.524.334.858.357 1.001h.143a7.39 7.39 0 0 0 .286-1.072z" fill="#aebec4"/><path d="M-651.462-308.866l.536.215a.684.684 0 0 0-.214-.5 3.005 3.005 0 0 1-.357-.286c-.048.072-.155.167-.322.286-.143.119-.226.31-.25.572.19-.263.392-.358.607-.287z" fill="#626f85"/><path d="M-654.966-309.366v.43a.438.438 0 0 1 .071-.107c.072-.191.131-.346.179-.465.119-.238.155-.477.107-.715a1.17 1.17 0 0 0-.357.857z" fill="#9ca4ad"/><path d="M-655.001-309.366c-.143-.119-.31-.143-.5-.072a3.765 3.765 0 0 1-.429.143l.072.358h.894v-.358a.115.115 0 0 0-.037-.071z" fill="#587280"/><path d="M-654.751-310.796c.119 0 .286-.072.5-.215.048 0 .072-.072.072-.215-.143-.143-.298-.155-.465-.036-.191.119-.322.155-.393.107l-.357.072c.238.192.452.287.643.287z" fill="#819aa7"/><path d="M-656.646-311.797c-.191-.095-.31-.072-.358.072-.048.119.072.274.358.465.286.215.5.298.643.25l-.036-.072c-.191-.024-.25-.119-.179-.286-.237-.167-.38-.31-.428-.429z" fill="#4e5c6d"/><path d="M-655.824-311.761a24.245 24.245 0 0 1-.036-.822c-.238.286-.358.691-.358 1.215-.071.167-.012.262.179.286h.036c.12-.167.179-.393.179-.679m-6.899-10.94H-662.294c.191.024.429.024.715 0h1.287c-.381-.119-1.192-.179-2.431-.179v.179m1.68-5.899l.036-.036.036-.036c-.119-.477-.346-.501-.679-.072-.024.119.036.322.179.608v.036l.428-.5m6.721-5.791c.095.072.191.226.286.465.024.048.06.083.107.107a.937.937 0 0 0-.107-.215 3.313 3.313 0 0 1-.286-.429.906.906 0 0 0-.465-.429c-.024-.024-.143-.06-.358-.107l.465.215c.191.095.31.226.358.393m-.858-.644a.322.322 0 0 1-.143-.036.108.108 0 0 0-.072-.036l.072.072h.143m1.501 5.256a3.91 3.91 0 0 1-.214.322c-.191.286-.31.512-.358.679a.89.89 0 0 1 .286-.25l.286-.751z" fill="#e2e5e5"/><path d="M-654.68-311.904c.191-.048.31-.191.357-.429-.334.024-.536.048-.608.072-.167.072-.262.226-.286.465.12-.049.299-.084.537-.108z" fill="#a3aeb8"/><path d="M-652.57-310.081h-.501c.095.119.262.524.501 1.215l.5-1.501a.777.777 0 0 1-.5.286m-1.395-16.838c.024-.072.048-.131.072-.179v-.036a.343.343 0 0 0-.143.179 1.367 1.367 0 0 0-.179-.25.314.314 0 0 0-.322-.036c0-.024-.012-.048-.036-.072l.143.786c.119.381.179.62.179.715-.024.167-.131.429-.322.786 0 .024-.012.095-.036.215a.236.236 0 0 0 .036.215l.429-.25c.214-.119.381-.215.5-.286.095-.072.179-.143.25-.215v-.107c.048-.095.107-.155.179-.179l-.036-.036c-.167-.238-.119-.357.143-.357a2.2 2.2 0 0 0 .429.143.48.48 0 0 1 .215.429l-.143-.036.107.107h.143c0 .022-.012.046-.036.072l.036-.036.322.179a.273.273 0 0 1 .107-.036c.238-.167.322-.31.25-.429-.048-.072-.179-.167-.393-.286l-.036-.036v.036c-.286-.167-.5-.262-.643-.286a4.823 4.823 0 0 1-.679-.25c-.261-.095-.44-.25-.536-.464z" fill="#a1b3bb"/><path d="M-653.285-311.154a17.106 17.106 0 0 0-.5-.215c-.286.286-.214.477.214.572.334.143.62.024.858-.358.191-.238.131-.357-.179-.357-.095.287-.226.406-.393.358z" fill="#828a9b"/><path d="M-653.107-311.618c-.191-.357-.358-.393-.5-.107l-.179.357c.119.048.286.119.5.215.167.048.298-.072.393-.357l-.214-.108z" fill="#f4f5f4"/><path d="M-653.607-311.726c.143-.286.31-.25.5.107.143-.119.203-.238.179-.357-.024-.119-.107-.179-.25-.179a.653.653 0 0 0-.429 0c-.119.072-.119.215 0 .429z" fill="#8c9ba8"/><path d="M-651.677-311.511h.286c0-.429-.119-.644-.358-.644-.286-.071-.429.024-.429.286 0 .095.095.143.286.143.168 0 .239.072.215.215z" fill="#708599"/><path d="M-651.391-311.511h-.286l-.072.072c-.048.095-.095.143-.143.143-.167.048-.286.083-.358.107-.119.072-.143.179-.071.322.095.167.334.191.715.072.311-.12.382-.359.215-.716z" fill="#8a8c9c"/><path d="M-658.04-313.442c.095-.072.191-.131.286-.179a.81.81 0 0 0-.25.107c-.024.025-.036.049-.036.072m-2.145-9.759c.024 0 .06-.024.107-.072-.047-.023-.071-.047-.072-.072v.107l-.035.037m-.786-1.824a.396.396 0 0 0-.036.179c.024-.024.06-.036.107-.036a4.787 4.787 0 0 1-.071-.072v-.071m-1.717 2.467c0-.024-.012-.048-.036-.072l.143-.072h-.072c-.048.048-.119.072-.214.072a.244.244 0 0 0 .179.072m.966-3.861h.107c-.024-.024-.048-.036-.071-.036l-.036.036m1.036-2.467a.383.383 0 0 0-.071.215l-.107.072c.238-.024.405.036.5.179.048.072.095.215.143.429.024 0 .048.012.071.036v.036l.107-.072h.143a.438.438 0 0 0-.071-.107 5.086 5.086 0 0 0-.715-.715v-.073m.858-2.145a.273.273 0 0 0-.107-.036v.036h.107m1.502.966h.215c-.049-.001-.085-.013-.107-.036-.048 0-.084.012-.108.036m.322 0l.322.036.214-.071a7.532 7.532 0 0 1-.536.035m-.537-.429a.316.316 0 0 1-.036-.143.316.316 0 0 0-.036.143h.072m.715-3.111c-.024.024-.036.048-.036.072h.25a.397.397 0 0 1-.214-.072m.501.251l.214.072a.902.902 0 0 0-.357-.215l.143.143m2.002-1.716v-.036h-.072a.108.108 0 0 1 .072.036m18.125 25.99l-.107.072a.273.273 0 0 1 .107-.036h.036l-.036-.036m.036-.572v.072c.024 0 .036-.012.036-.036l-.036-.036m-2.002.357v.036h.143a.316.316 0 0 0-.143-.036m2.967-2.717v-.072h-.071c0 .025.024.049.071.072m.644-.858c-.024-.024-.048-.036-.071-.036 0 .024.012.036.036.036v.036c0-.024.011-.036.035-.036m2.824-3.539a.354.354 0 0 0 .036-.107.078.078 0 0 1-.036-.036v.107a.055.055 0 0 1 0 .036m-17.267 3.432l.036-.036h-.036v.036m1.573.787l-.036-.036v.036h.036m.608.107v.036l.036-.036h.036a.438.438 0 0 0-.071-.107v.107m3.931-7.043l-.072.179.214-.215-.25-.286h-.107c0 .024.072.132.215.322m-1.216.787l-.215.071-.107.215.322-.286m1.466-3.039l.036.036.036-.072-.072.036m.358.536l.071.072.107-.179-.178.107m.071.107l.036.286c.119-.119.155-.203.107-.25l-.143-.036m-.322-.464v.25l.036-.214-.036-.036m1.323.464l.071-.072h-.143l.072.072m-.536-1.036l-.072.143.286.143-.214-.286m1.394-.108v.072l.143-.036-.143-.036m.894.823l-.071-.036-.036.072.107-.036m1.716-1.109l.143-.072-.143-.072v.144m-14.765 8.402l.143-.143c.045 0 .092.012.143.036a9.362 9.362 0 0 1-.143-.072h-.036v.036h-.179c.001.047.025.095.072.143m.286-3.146l.107.036.107-.25-.214.214m-.965 1.537l.143-.036-.107-.036-.036.072v.036-.036m-1.287-1.466v.072c.312.375.682.613 1.108.715l.179.036.036-.072-.107-.107a2.387 2.387 0 0 0-.036-.072 1 1 0 0 1-.5-.143c-.287-.214-.513-.357-.68-.429m.572-1.859c.215-.048.501-.036.858.036-.215-.262-.5-.298-.858-.107v.071m2.002.429a.446.446 0 0 1-.179.107c-.024 0-.25.036-.679.107-.024.167-.024.274 0 .322.071-.095.226-.179.465-.25.19-.071.321-.167.393-.286m.036-1.466l.036-.036a.41.41 0 0 0-.072-.107 1.166 1.166 0 0 0-.143-.179l.143.286.036.036m-.966-1.394l.25.25a2.589 2.589 0 0 1-.179-.357v.072h-.107l.036.035m-.071-.715v-.072l-.036-.036v.036l.036.072m.429-2.359l-.179-.358a.621.621 0 0 0-.536.179c.143-.072.274 0 .393.214.072.12.179.108.322-.035m.393-1.359h.036l-.036-.036v.036m-.143-.071c-.072.024-.131.083-.179.179v.107a.572.572 0 0 0 .143-.215c.023-.047.047-.071.071-.071h-.035m1.287.5h.036c-.024-.024-.036-.048-.036-.072a.268.268 0 0 0-.107.036l.107.036m-4.612 2.217c.143.286.334.393.572.322.191-.024.465-.119.822-.286.024-.143.131-.334.322-.572.167-.262.274-.465.322-.608-.143.191-.346.477-.608.858-.524.357-1 .453-1.43.286m-.143-.036c-.095-.024-.167.024-.214.143a2.271 2.271 0 0 0-.072.357c.024-.024.036-.048.036-.072.096-.166.179-.309.25-.428m3.075-4.683a.386.386 0 0 1-.107.036c.405-.024.608.119.608.429h-.036c.025.001.048.013.071.036l.215.143c.524 0 .834.238.93.715h.071l.429.358c.048 0 .083.012.107.036.072-.072.107-.179.107-.322 0-.024.012-.048.036-.072h-.036l-.036-.036a3.145 3.145 0 0 1-.572-.286c-.191-.31-.524-.548-1.001-.715l-.286-.215a3.038 3.038 0 0 0-.572-.5 4.019 4.019 0 0 1-.429-.358c-.023.334.143.584.501.751m-.286-1.824c.071-.095.143-.203.214-.322l.072-.215c-.072.119-.143.25-.215.393-.357.453-.548.786-.572 1.001.048-.072.095-.131.143-.179.048-.165.167-.392.358-.678m2.646-.429c.095-.095.167-.155.214-.179.214-.024.453-.107.715-.25a1.504 1.504 0 0 1-.429.143c-.238.048-.405.143-.5.286m-.287-4.254a.667.667 0 0 1-.036-.179v.072c0 .405-.095.667-.286.786a.442.442 0 0 0-.071.25c.001-.025.013-.048.036-.072.238-.094.357-.38.357-.857m.787-1.358a.993.993 0 0 0-.393.286.685.685 0 0 0-.322.358.799.799 0 0 1 .429-.358c.048-.096.143-.191.286-.286m-.143.429v.107l.036-.036c.024-.024.048-.036.071-.036a.28.28 0 0 0-.107-.035m12.369 9.581v-.072h-.072l.072.072m-.715.178l.036.072v-.036l-.036-.036m-3.539 2.503c.024.119-.036.036-.179-.25l.179.465c.072-.167.06-.31-.036-.429l.036.214m-.25-1.502l.107-.071h-.071l-.036.071m.715-1.072l-.072-.215-.393.215v.036l.465-.036m-.501-.143l-.036-.107-.072.071.108.036m3.075-.036l-.036.036.107.143.036.036-.107-.215m-1.323 0l-.036.036.179.072-.143-.108m.107-3.432h.036l-.071-.036.035.036m-1.68.751h-.036l.036.036v-.036m-.036-3.075c.715.858 1.156 1.43 1.323 1.716h.5c-.405-.191-.643-.453-.715-.786l-1.216-1.037.108.107m3.683 2.789l-.071.179.643.5.143-.036c-.405-.19-.644-.405-.715-.643m-7.4 4.218l-.107-.071-.214.143.321-.072m-.144-2.395l.25.072-.215-.107-.035.035m3.146.25l-.143-.107h-.143l.286.107m-1.465-2.431h-.036l.072.036-.036-.036m-.394.108h-.143l.25.072-.107-.072m-.071-2.431l-.071-.036.036.036h.035m1.251 1.644l-.036.036.036.036v-.072m-.5.179l.036.036v-.036h-.036m-3.933-2.217a.937.937 0 0 0-.215.107 6.95 6.95 0 0 0-.679.465l-.143.143-.143.143v.036l.071-.072c.095-.143.274-.262.536-.358.287-.142.478-.297.573-.464m.143-.035c.024 0 .06.012.107.036a.992.992 0 0 1 .107.072l.143.107.25-.322-.036-.107-.214.107a1.377 1.377 0 0 0-.357.107m-.393-2.717c.048-.095.036-.214-.036-.357v.107a.388.388 0 0 1-.107.286.316.316 0 0 1 .143-.036m1.43.5v.072c.405-.191.691-.346.858-.465.024 0 .036-.012.036-.036-.024 0-.048.012-.072.036-.334.214-.62.322-.858.322 0 .024.012.047.036.071m10.153 2.109v-.036l.072-.072c-.024 0-.048.012-.072.036v.072m-1.394-1.573a.925.925 0 0 0-.214-.215c-.024-.024-.048-.036-.072-.036.024.072.048.131.072.179a.4.4 0 0 1 .214.072m-.751.501v.072c-.024.072-.107.167-.25.286l.036.036c.309-.096.381-.227.214-.394m.536-.429c-.024.095-.072.143-.143.143.071.024.119.024.143 0 .024-.024.024-.072 0-.143m.858-1.073h-.036c0 .048.024.083.072.107s.083.048.107.072c-.024-.072-.024-.107 0-.107a19 19 0 0 0-.143-.072m-4.111 2.36l.072.072.286-.286.036-.036c.072-.095.012-.203-.179-.322l-.072-.036c.119.095.179.191.179.286a.22.22 0 0 1-.036.072l-.286.25m6.721 15.48v.107c-.262.238-.512.477-.751.715.119-.095.226-.179.322-.25.238-.238.44-.357.608-.358-.024 0-.036-.012-.036-.036a.76.76 0 0 1-.143-.178m.786-8.938l.072-.072c-.025.024-.049.036-.072.036-.024.024-.048.036-.071.036-.095.072-.191.083-.286.036v.072c0 .025-.012.049-.036.072l-.071.071.071-.036h.036c.167-.119.286-.191.357-.215m.823-3.932v.036l.214.143a.527.527 0 0 0-.214-.179z" fill="#e0e1e1"/><path d="M-659.756-319.698c.095.477.143.822.143 1.037h.286v-.143a4.926 4.926 0 0 0-.465-1.895c-.047.239-.036.572.036 1.001z" fill="#b3bcbf"/><path d="M-659.613-318.661c-.691.215-1.132.334-1.323.358-.548.119-1.037.131-1.466.036.024.095.06.262.107.501.095.167.298.191.608.072h.036c.357-.191.977-.358 1.859-.501.238-.048.381-.083.429-.107.095-.072.131-.203.107-.393a.41.41 0 0 0-.072-.107v.143h-.285z" fill="#5d6e79"/><path d="M-660.793-321.271a1.321 1.321 0 0 1-.322.036h-.572c-.31 0-.572.012-.786.036-.167.048-.262-.06-.286-.322l-.107.107.071.858c.024 0 .155-.048.393-.143a.61.61 0 0 1 .393-.071c.022-.022.058-.034.107-.036h-.143c.262-.095.834-.143 1.716-.143l-.143.072a.4.4 0 0 0 .179-.036h.143c.262-.072.393-.191.393-.358-.07-.164-.106-.283-.107-.357-.001.238-.156.357-.465.357h-.464z" fill="#5c6776"/><path d="M-661.115-321.235c.119 0 .226-.012.322-.036-.334 0-.632.012-.894.036h.572m-1.573-1.323h.036c.262.143.62.215 1.073.215h1.216a1.572 1.572 0 0 1-.965.322 8.462 8.462 0 0 0-.894-.072c-.262-.048-.429-.036-.5.036-.095.072-.095.215 0 .429.715.143 1.18.214 1.394.214.524 0 1.001-.119 1.43-.357.048-.358-.036-.643-.25-.858H-660.362a6.162 6.162 0 0 0-.5-.072h-.715a3.524 3.524 0 0 1-.715 0h-.286l-.143.072c.022.024.033.047.033.071z" fill="#edefee"/><path d="M-661.186-320.77c.286 0 .524-.036.715-.107l.143-.072c-.882 0-1.454.048-1.716.143h.143c.167 0 .405.012.715.036z" fill="#e1e5e3"/><path d="M-660.471-320.878a2.044 2.044 0 0 1-.715.107 9.953 9.953 0 0 0-.715-.036c-.049.001-.085.013-.107.036a.61.61 0 0 0-.393.071c-.238.095-.369.143-.393.143l-.071-.858c-.238-.214-.357-.214-.357 0 .024.215 0 .31-.072.286v-1.108a9.15 9.15 0 0 1-.179.679c.062.214.11.428.143.643.071.548.143 1.084.214 1.609.048.238.107.489.179.751l.179.536c.095.191.179.369.25.536.095.167.191.369.286.608.01.026.021.05.036.072.132-.375.537-.649 1.216-.822l-.679-.072h-.036c-.31.119-.512.095-.608-.072a13.512 13.512 0 0 0-.107-.501c.429.095.918.083 1.466-.036.191-.024.632-.143 1.323-.358 0-.214-.048-.56-.143-1.037-.071-.429-.083-.763-.036-1.001v-.071l-.358-.143h-.143a.369.369 0 0 1-.18.038m.286.894c.024.095.012.274-.036.536-.024-.286-.143-.596-.357-.929.238.071.369.203.393.393m-.429.322c.048.238-.012.381-.179.429l-.465.107c-.143.071-.369.119-.679.143s-.536.06-.679.107c-.143.095-.25.048-.322-.143a22.184 22.184 0 0 0-.107-.465c-.119-.381-.155-.632-.107-.751.072-.191.322-.25.751-.179l.715-.143c.619-.07.977.228 1.072.895m-2.217-3.682h-.072a6.978 6.978 0 0 1-.071-.465c-.04.258-.087.508-.143.751l.107.215a.848.848 0 0 0 .143.215c.095 0 .167-.024.214-.072h-.071v-.036c-.024-.024-.048-.036-.072-.036-.143-.143-.191-.31-.143-.5a.41.41 0 0 0 .108-.072m.072-1.716a.134.134 0 0 1 .072.036c0-.048-.012-.072-.036-.072h-.036v.036z" fill="#f2f3f2"/><path d="M-660.221-319.448c.048-.262.06-.441.036-.536-.024-.191-.155-.322-.393-.393.214.334.333.643.357.929z" fill="#456f8a"/><path d="M-659.935-323.523h.143c.167-.334.191-.81.071-1.43-.19.691-.261 1.168-.214 1.43z" fill="#8f9ca6"/><path d="M-660.364-324.703c-.095-.238-.274-.298-.536-.179-.048 0-.083.012-.107.036a.45.45 0 0 1-.215.25.151.151 0 0 0 0 .143c0 .048.012.095.036.143l.036.036h.143c.071-.286.226-.322.465-.107l.036.036c.166-.096.214-.215.142-.358z" fill="#556575"/><path d="M-662.509-323.344H-662.831a.429.429 0 0 1-.107.072.495.495 0 0 0 .143.5c.024 0 .048.012.072.036v-.143c1.239 0 2.05.06 2.431.179h-.572c.214.024.381.048.5.072H-660.15a.69.69 0 0 0 .286-.358v-.5a.108.108 0 0 0-.071-.036c-.024 0-.048.012-.072.036a1.215 1.215 0 0 1-.071.215c-.048.048-.083.072-.107.072h-.036a9.078 9.078 0 0 1-2.288-.145z" fill="#5e6a7a"/><path d="M-662.008-324.488h-.036c0 .143-.072.334-.215.572-.167.238-.262.429-.286.572h.036c.715.143 1.478.191 2.288.143h.036l.036-.036v-.107c-.119-.429-.238-.751-.357-.965v-.036l-.036-.036c-.238-.215-.393-.179-.465.107h-.143c0 .048.036.095.107.143a.692.692 0 0 1-.107.357c-.072.119-.155.179-.25.179-.167-.048-.262-.191-.286-.429-.024-.262-.071-.417-.143-.465l.072-.036c-.024 0-.048-.024-.072-.072h-.107l-.072.109z" fill="#eff2f0"/><path d="M-661.401-324.345c-.072.024-.131-.06-.179-.25l-.036.036-.143.036-.072.036c.072.048.119.203.143.465.024.238.119.381.286.429.095 0 .179-.06.25-.179a.692.692 0 0 0 .107-.357c-.071-.048-.107-.095-.107-.143l-.036-.036a.316.316 0 0 1-.036-.143c-.093.07-.153.106-.177.106z" fill="#c5cbcf"/><path d="M-661.615-324.56c0-.024.012-.06.036-.107v-.179c-.381-.262-.643-.179-.786.25l.036.036a.631.631 0 0 0 .286.072h.036l.072-.107h.107c.024.048.048.072.072.072l.141-.037z" fill="#314e5b"/><path d="M-662.688-325.025a.13.13 0 0 0-.072-.036c-.051.417-.123.834-.214 1.251.019.153.043.308.071.465h.358c.024-.143.119-.334.286-.572.143-.238.215-.429.215-.572a.631.631 0 0 1-.286-.072h-.072c-.143.024-.214-.048-.214-.215 0-.117-.024-.201-.072-.249m13.979 1.931l-.214.036c-.191 0-.572.131-1.144.393a5.279 5.279 0 0 1-1.966.429c-.138.03-.258.053-.358.072l.143.286.036.036a35.408 35.408 0 0 0 2.574-.822c.429-.167.953-.25 1.573-.25.31 0 .524.06.644.179a.53.53 0 0 1 .179.25l-.071.143c-.143.167-.572.56-1.287 1.18a7.456 7.456 0 0 0 1.823-1.108c.31-.262.798-.691 1.466-1.287-.405-.215-.608-.381-.608-.5l-.465-.25-.322.072c-.071-.024-.167.06-.286.25-.143.191-.346.286-.608.286-.334 0-.56.036-.679.107-.097.045-.24.212-.43.498z" fill="#b3c0c4"/><path d="M-661.615-326.419h-.107l-.429.071c.119.119.322.226.608.322.31.071.512.155.608.25-.191.048-.334.179-.429.393-.119.286-.191.465-.215.536v.179a.273.273 0 0 0-.036.107l.036-.036c.048.191.107.274.179.25.024 0 .083-.036.179-.107a.151.151 0 0 1 0-.143.457.457 0 0 0 .215-.25c0-.072.012-.131.036-.179.024-.262.155-.417.393-.465.167 0 .429.024.786.072h.179c0-.024-.012-.119-.036-.286l-.072-.072-.036-.036c-.31-.141-.93-.344-1.859-.606z" fill="#eff0f0"/><path d="M-662.366-327.027c.046-.07.094-.13.143-.179l.036.036c.044-.305.091-.591.143-.858-.119.318-.226.652-.322 1.001m1.859-2.359v.072c.143 0 .393.131.751.393.286.214.56.25.822.107v-.107c-.286-.238-.751-.512-1.394-.822-.278-.085-.456-.216-.536-.393a1.153 1.153 0 0 1-.179.286.93.93 0 0 1 .143.179c.119.19.25.285.393.285m3.825-3.075v-.071a.815.815 0 0 0-.429-.751l-.214-.072-.215-.072.858.966m-.5-1.716h.071c.262-.024.405-.131.429-.322v-.036l-.036-.465c-.151.144-.294.287-.429.429-.071 0-.119.024-.143.071a.544.544 0 0 1-.286.143 1.727 1.727 0 0 1-.179.25.921.921 0 0 1-.214.215c-.167.143-.31.286-.429.429a.962.962 0 0 1-.5.322l-.322.322-.036.036c.064 0 .135.024.214.072.119.119.143.203.071.25-.13.173-.368.28-.715.322l-.179.357a.176.176 0 0 1-.071.072 5.292 5.292 0 0 0 0 .643c.024 0 .06.012.107.036v-.036c.119-.167.226-.298.322-.393.167-.143.369-.143.608 0 .071-.191.131-.334.179-.429a.986.986 0 0 0 .107-.572l.143-.071h-.072a1.623 1.623 0 0 1-.143-.286c-.048-.119.024-.203.215-.25.191-.072.381-.226.572-.465h.036c0-.024.012-.048.036-.072.167-.309.382-.5.644-.572m2.324-1.036c.095 0 .155-.06.179-.179.048-.191-.072-.286-.358-.286-.249 0-.416-.06-.5-.179-.322.207-.632.422-.93.643.037.03.072.054.107.072v-.036c.024 0 .203-.012.536-.036a.536.536 0 0 1 .429.107h.072c.048 0 .095-.024.143-.072.071-.022.179-.034.322-.034z" fill="#f1f0ef"/><path d="M-658.97-327.563l-.107.179v.107c-.214.572-.381.882-.5.929-.119.072-.453-.024-1.001-.286v-.036l-.072.072c-.095-.095-.167-.143-.214-.143-.405 0-.691-.06-.858-.179a2.495 2.495 0 0 1-.286-.072c-.024-.024-.048-.036-.071-.036a.41.41 0 0 1-.107-.072c-.095.215-.06.357.107.429.071.072.203.143.393.215.024 0 .048.012.071.036.93.262 1.549.465 1.859.608l.036.036c.048 0 .083.012.107.036.238-.191.417-.453.536-.786.024-.072.107-.369.25-.894.048-.048.06-.095.036-.143-.024-.071-.083-.071-.179 0z" fill="#576777"/><path d="M-660.149-327.92v-.036c-.024-.024-.048-.036-.071-.036-.191-.143-.334-.179-.429-.107-.095.048-.191.215-.286.5-.071.191-.048.477.072.858.048 0 .119.048.214.143l.072-.072c.285-.38.428-.797.428-1.25z" fill="#d3dcdc"/><path d="M-659.899-327.992h-.143l-.107.072c0 .453-.143.87-.429 1.251v.036c.548.262.882.357 1.001.286.119-.048.286-.357.5-.929v-.179c-.143 0-.238.095-.286.286a7.17 7.17 0 0 1-.143.322h-.036c-.119-.167-.119-.405 0-.715.048-.238.024-.381-.072-.429-.047-.025-.142-.025-.285-.001z" fill="#f4f4f1"/><path d="M-660.364-328.421c-.095-.143-.262-.203-.5-.179a3.618 3.618 0 0 1-.5 1.072c-.024 0-.048-.012-.072-.036v.107c.024.143 0 .25-.071.322-.024.048-.095.119-.215.215.167.119.453.179.858.179-.119-.381-.143-.667-.072-.858.095-.286.191-.453.286-.5.095-.072.238-.036.429.107-.047-.214-.095-.357-.143-.429z" fill="#f6f5f2"/><path d="M-660.864-328.671l-.143.036-.036.036-.429.5v-.036c-.024.024-.036.048-.036.072v.286c-.024.095 0 .167.071.215.024.024.048.036.072.036.238-.357.405-.715.5-1.072l.001-.073z" fill="#7a8692"/><path d="M-660.507-329.315v-.072c-.143 0-.274-.095-.393-.286a.961.961 0 0 0-.143-.179.681.681 0 0 1-.071.143 8.625 8.625 0 0 0-.93 1.68c-.052.267-.099.553-.143.858.024.048.06.095.107.143.024 0 .048.012.071.036.072.024.167.048.286.072.119-.095.191-.167.215-.215.071-.072.095-.179.071-.322v-.107c-.071-.048-.095-.119-.071-.215v-.286c0-.024.012-.048.036-.072-.143-.286-.203-.489-.179-.608.334-.429.56-.405.679.072l-.036.036.143-.036v.072l.107-.072a.39.39 0 0 1 .071-.215l.072-.143c.049-.093.084-.188.108-.284z" fill="#d5dbdb"/><path d="M-658.147-329.458c-.119.167-.214.262-.286.286-.119.048-.262 0-.429-.143-.548-.405-.846-.62-.894-.644a1.872 1.872 0 0 0-1.001-.286.602.602 0 0 1-.107.107c.08.177.259.308.536.393.643.31 1.108.584 1.394.822l.036.036c.357.191.596.238.715.143.072-.048.095-.203.072-.465a1.103 1.103 0 0 0-.036-.249z" fill="#3e5c60"/><path d="M-658.541-330.494h-.071a1.062 1.062 0 0 0-.143.107v.072a.81.81 0 0 1-.072.25.179.179 0 0 0 0 .215l.358-.179c.024-.024.071-.036.143-.036.024-.024.06-.036.107-.036a2.72 2.72 0 0 1 .572-.107c.405-.048.703-.167.894-.357v-.072c-.024-.143-.083-.191-.179-.143-.215.119-.489.191-.822.215s-.596.047-.787.071z" fill="#5f7582"/><path d="M-659.148-330.852v-.143c-.095-.095-.167-.131-.215-.107-.071.024-.155.107-.25.25-.143.119-.226.143-.25.072.024-.095.036-.179.036-.25h-.107v-.036a5.292 5.292 0 0 1 0-.643c-.251.507-.525.996-.822 1.466.341-.005.675.09 1.001.286.048.024.346.238.894.644.167.143.31.191.429.143.072-.024.167-.119.286-.286.024.095.036.179.036.25a.396.396 0 0 0 .036-.179c0-.143.071-.262.214-.358.167-.119.286-.215.357-.286h-.179l-.322-.036H-658.326c-.071 0-.119.012-.143.036l-.358.179a.179.179 0 0 1 0-.215.818.818 0 0 0 .072-.25v-.072l-.036.036c-.119-.239-.238-.405-.357-.501m2.037-1.144c.191.191.262.369.215.536-.024.167-.167.25-.429.25a5.012 5.012 0 0 0-.643-.072c-.31.095-.512.31-.608.644 0 .048.012.095.036.143.191-.024.453-.048.786-.072s.608-.095.822-.215c.095-.048.155 0 .179.143.024-.024.048-.036.071-.036.262 0 .405-.083.429-.25a2.988 2.988 0 0 1-.072-.536l-1.144-1.358c-.143-.143-.238-.226-.286-.25-.095-.048-.191.012-.286.179a.273.273 0 0 0-.036.107c.095.095.226.203.393.322l.573.465z" fill="#edeeee"/><path d="M-658.898-331.352v-.107c-.238-.143-.441-.143-.608 0a3.15 3.15 0 0 0-.322.393v.036c0 .072-.012.155-.036.25.024.072.107.048.25-.072.095-.143.179-.226.25-.25.048-.024.119.012.215.107l.071.072a.429.429 0 0 1 .107-.072 4.14 4.14 0 0 0 .073-.357z" fill="#506476"/><path d="M-658.97-332.461c.072-.048.048-.131-.071-.25a.441.441 0 0 0-.214-.072 2.13 2.13 0 0 1-.179.286c-.083.11-.166.229-.25.358.346-.041.585-.149.714-.322z" fill="#d4d9da"/><path d="M-656.682-332.532v.071l-.858-.965.215.072-.143-.143c-.024 0-.048-.012-.072-.036h-.357c-.191.238-.381.393-.572.465-.191.048-.262.131-.215.25.024.072.072.167.143.286h.072c.167-.095.286-.191.357-.286l.036.036c0-.024.012-.06.036-.107.095-.167.191-.226.286-.179.048.024.143.107.286.25l1.144 1.358c.286 0 .334-.143.143-.429l-.501-.643z" fill="#3e5053"/><path d="M-657.111-334.177c-.025.001-.048.013-.071.036a.57.57 0 0 1-.072.25.324.324 0 0 0 .358 0c.119-.119.214-.203.286-.25.238-.191.215-.31-.071-.358-.024.191-.167.299-.43.322z" fill="#697989"/><path d="M-654.036-333.926c-.095-.238-.191-.393-.286-.465l-.143.322-.036.036c.119.143.25.358.393.644.143.143.358.048.643-.286a.486.486 0 0 1-.465-.143.251.251 0 0 1-.106-.108z" fill="#425558"/><path d="M-655.502-334.677l-.107-.107-.25-.179c.119-.048.298-.072.536-.072l-.072-.072a.536.536 0 0 0-.429-.107c-.334.024-.512.036-.536.036v.036c0 .238.036.369.107.393.072.048.322.072.751.072z" fill="#4a656a"/><path d="M-655.609-334.784l.071.036c.119.072.322.167.608.286.191.119.346.25.465.393l.143-.322c-.048-.167-.167-.298-.357-.393l-.465-.215-.036-.036h-.143c-.238 0-.417.024-.536.072l.25.179z" fill="#0e1a28"/><path d="M-653.75-336.679c-.024-.024-.036-.048-.036-.072a3.71 3.71 0 0 0-.25.393.555.555 0 0 0-.107.143v.143l-.072.608c.238-.238.393-.429.465-.572.095-.19.095-.405 0-.643z" fill="#6c7d8a"/><path d="M-653.786-336.751c0 .024.012.048.036.072a.852.852 0 0 0 0-.143 2.34 2.34 0 0 1-.358.215c-.13.082-.273.153-.429.214.13.071.261.178.393.322v-.143a.579.579 0 0 1 .107-.143c.096-.167.18-.298.251-.394z" fill="#eff0ef"/><path d="M-636.447-308.937h.036l-.036-.036v.036z" fill="#cbc8cb"/><path d="M-639.879-309.223h-.036c-.143-.024-.238.012-.286.107-.024.024-.036.048-.036.072.167.262.453.358.858.286 0-.286-.048-.465-.143-.536-.19.095-.309.119-.357.071z" fill="#565a63"/><path d="M-639.915-309.223c.024-.024.036-.048.036-.072a21.653 21.653 0 0 0-.071-.894c0-.286.083-.512.25-.679.048-.048.107-.095.179-.143-.048-.191-.119-.31-.214-.358-.119-.048-.214.036-.286.25-.167.5-.262.822-.286.965-.071.381-.048.727.072 1.037h.036c.046-.094.141-.13.284-.106z" fill="#b3b9c1"/><path d="M-637.126-309.616c0 .024-.012.036-.036.036v.465l-.036.036.036.036.322.322.393-.214V-309.4a4.787 4.787 0 0 1-.071-.072l-.036-.036c-.191-.168-.382-.204-.572-.108z" fill="#58646f"/><path d="M-637.984-309.223c-.215 0-.334-.012-.358-.036h-.036l-.322-.143-.036.286-.036.072.071.143c.024 0 .048.012.072.036.167.095.298.143.393.143.167.024.286-.06.357-.25.05-.168.014-.251-.105-.251z" fill="#6c6e79"/><path d="M-639.164-309.259v-.036c.071-.334.107-.596.107-.786.024-.31-.131-.548-.465-.715v1.501c.095.072.143.25.143.536a.336.336 0 0 0 .179-.25l.036-.25z" fill="#b9bac0"/><path d="M-637.984-311.189v.036a1.416 1.416 0 0 0-.179.215c-.119.167-.179.393-.179.679v.965c-.024 0-.036.012-.036.036h.036c.024.024.143.036.358.036.119 0 .155.083.107.25-.072.191-.191.274-.357.25-.095 0-.226-.048-.393-.143.119.358.369.417.751.179l.572-.322.107-.072.036-.036v-.537a9.953 9.953 0 0 1-.036-.715c.024-.167.06-.322.107-.465.024-.095.048-.179.071-.25a.667.667 0 0 0-.429-.143c-.31.025-.489.037-.536.037m-.572.357c0-.072.012-.131.036-.179-.334-.334-.667-.334-1.001 0a1.217 1.217 0 0 0-.179.143c-.167.167-.25.393-.25.679.024.214.048.512.071.894 0 .024-.012.048-.036.072h.036c.048.048.167.024.357-.072v-1.501c.334.167.489.405.465.715 0 .191-.036.453-.107.786.048 0 .095.012.143.036.071.024.167.072.286.143l.036-.286c0-.619.047-1.096.143-1.43m1.68-1.251a.579.579 0 0 0-.143.107c0 .024.167.083.501.179.167.048.167.155 0 .322-.024.024-.072.06-.143.107.238 0 .31.119.214.358.357-.072.536-.203.536-.393a14.373 14.373 0 0 1-.25-.572l-.036-.036c-.048-.024-.071-.048-.071-.072a.384.384 0 0 0-.215-.072c-.024-.024-.048-.036-.071-.036a.396.396 0 0 0-.179.036.384.384 0 0 0-.143.072z" fill="#dddfe1"/><path d="M-638.306-311.332c-.095.024-.167.131-.214.322a.396.396 0 0 0-.036.179c-.095.334-.143.81-.143 1.43l.322.143c0-.024.012-.036.036-.036v-.965c0-.286.06-.512.179-.679.048-.072.107-.143.179-.215v-.036c-.12-.143-.228-.191-.323-.143z" fill="#b4b7bf"/><path d="M-636.518-311.475a.316.316 0 0 0-.143.036l-.358.357a3.096 3.096 0 0 0-.071.25 2.641 2.641 0 0 0-.107.465c0 .167.012.405.036.715l.036.036c.191-.095.381-.06.572.107l.036.036h.071c.143-.167.143-.417 0-.751-.167-.334-.167-.596 0-.786.095-.238.024-.358-.214-.358.07-.048.118-.083.142-.107z" fill="#dadee4"/><path d="M-636.876-312.441h-.036c-.119.167-.143.286-.072.357h.107a.393.393 0 0 1 .143-.072.396.396 0 0 1 .179-.036.935.935 0 0 1-.25-.143.403.403 0 0 0 .071-.107h-.142m1.072.073l.072-.072c0-.119-.072-.238-.215-.358a4.787 4.787 0 0 0-.071.072c.024.024.048.036.071.036-.143.238-.262.393-.357.465a1.257 1.257 0 0 1-.179.071c.072 0 .143.024.215.072h.178l.286-.286z" fill="#776c67"/><path d="M-636.554-313.406c-.048.119-.083.31-.107.572a4.031 4.031 0 0 1-.072.393.438.438 0 0 1-.071.107.923.923 0 0 0 .25.143c.024 0 .048.012.071.036a1.55 1.55 0 0 0 .179-.071c.095-.072.214-.226.357-.465-.024 0-.048-.012-.071-.036a.649.649 0 0 1-.215-.322c-.095-.214-.202-.333-.321-.357z" fill="#ecf0f3"/><path d="M-635.732-312.441l-.072.072c.024 0 .048.012.072.036.095-.119.143-.286.143-.5v-.036c-.024 0-.036-.012-.036-.036-.143-.095-.262-.274-.358-.536a1.644 1.644 0 0 0-.393-.536c-.024 0-.048-.012-.071-.036-.262.167-.393.417-.393.751l-.036.822h.143c.024-.095.048-.226.072-.393.024-.262.06-.453.107-.572.119.024.226.143.322.357.048.143.119.25.215.322l.071-.072c.142.119.214.238.214.357z" fill="#818c84"/><path d="M-646.922-308.651h-.072v.358c.048-.024.107-.048.179-.072.167-.048.357-.107.572-.179.262-.119.477-.238.643-.358a1.146 1.146 0 0 0-.429-.072c-.262 0-.441-.024-.536-.072a.273.273 0 0 1-.036-.107h-.107v.322a.314.314 0 0 1-.214.18z" fill="#95aeb1"/><path d="M-647.815-312.19a.293.293 0 0 1-.036-.107c0 .072.012.144.036.214v-.107m0 .143v-.036a4.157 4.157 0 0 0-.572-.5c-.072.024-.107.072-.107.143 0 .048.012.119.036.215l.036.036c.048.167.179.381.393.643h.036c.213-.096.273-.263.178-.501z" fill="#0b1f2d"/><path d="M-647.744-312.083h-.036l-.036.036c.095.238.036.405-.179.5v.036c.119.31.322.775.608 1.394.238.572.393 1.061.465 1.466a.318.318 0 0 0 .214-.179v-.322h.107a81.58 81.58 0 0 1-.536-1.144c-.191-.5-.286-.941-.286-1.323l.143-.107h-.107c.072-.167.072-.274 0-.322-.047-.023-.166-.035-.357-.035z" fill="#627b86"/><path d="M-644.062-309.473c0-.024-.012-.048-.036-.072-.048-.143-.131-.203-.25-.179-.143.048-.25.072-.322.072a1.437 1.437 0 0 1-.215.143c.167-.048.262-.06.286-.036-.191.31-.489.548-.894.715a.41.41 0 0 1-.107-.072 3.962 3.962 0 0 1-.643.358c-.215.071-.405.131-.572.179l-.179.179c0 .31.143.381.429.215.454-.168 1.288-.668 2.503-1.502z" fill="#485157"/><path d="M-645.313-309.724c.024.238.131.322.322.25a.273.273 0 0 1 .107-.036c.119-.072.191-.119.215-.143.071 0 .179-.024.322-.072.119-.024.203.036.25.179.024.024.036.048.036.072.429-.238.989-.655 1.68-1.251.691-.596 1.239-1.013 1.645-1.251v-.072a1.06 1.06 0 0 1-.036-.179c0-.095.036-.167.107-.215a.396.396 0 0 0-.036-.179h-.036c-1.668 1.336-3.194 2.302-4.576 2.897z" fill="#758790"/><path d="M-646.743-312.226c.238 0 .441-.155.608-.465.191-.286.286-.632.286-1.037-.572.072-1.073.369-1.502.894a.87.87 0 0 0 .608.608z" fill="#9aabb1"/><path d="M-648.173-314.55c.334.119.572.191.715.215.167.024.405 0 .715-.072.334-.048.56-.143.679-.286.143-.143.143-.286 0-.429-.119-.143-.429-.262-.93-.358l-1.251-.143.036.036c.429.119.655.226.679.322.024.119-.048.214-.214.286s-.381.107-.643.107a12.72 12.72 0 0 1-.429.036c.119.072.333.167.643.286m-1.001-1.108l-.465-.143-2.467.322c.859.119 1.836.059 2.932-.179m-4.862.25l-.143.036v.036c-.167.048-.334.012-.5-.107-.215-.119-.369-.179-.465-.179h-.036v.215a.735.735 0 0 0 .357.286.668.668 0 0 0 .214.036c.159 0 .35-.06.572-.179a3.784 3.784 0 0 1 1.287-.393c-.309-.144-.738-.061-1.286.249z" fill="#65797e"/><path d="M-644.169-318.411a.922.922 0 0 1-.286-.036c-.81.429-1.287.679-1.43.751-.643.357-.977.548-1.001.572-.715.477-1.633.918-2.753 1.323l.465.143.965.072-.036-.036 1.251.143c.453-.739 1.096-1.299 1.931-1.68.691-.31 1.037-.548 1.037-.715 0-.31-.048-.489-.143-.537z" fill="#71888f"/><path d="M-644.455-318.447a.922.922 0 0 0 .286.036c.095.048.143.226.143.536 0 .167-.346.405-1.037.715-.834.381-1.478.941-1.931 1.68.5.095.81.215.93.358.143.143.143.286 0 .429-.119.143-.346.238-.679.286-.31.072-.548.095-.715.072 0 .024-.06.203-.179.536a8.938 8.938 0 0 0-.25 1.037c-.002.148.01.291.036.429v.036a.293.293 0 0 0 .036.107c.024.024.048.06.071.107.191 0 .31.012.357.036.072.048.072.155 0 .322h.107c.167-.048.262-.083.286-.107a.296.296 0 0 0 .143-.143l.107-.25a.87.87 0 0 1-.608-.608c.429-.524.93-.822 1.502-.894.786-1.072 1.287-1.787 1.501-2.145l-.071-.215c.739-1.12 1.215-1.99 1.43-2.61-.095-.167-.346-.322-.751-.465l-.214.215c-.763.31-1.144.512-1.144.608l-.322.286-.465.358c.144-.072.621-.323 1.431-.752z" fill="#889ba3"/><path d="M-638.878-313.692a.446.446 0 0 1 .179-.107 91.129 91.129 0 0 0 3.039-2.538c-.381-.119-.846-.024-1.394.286-.572.286-.941.62-1.108 1.001-.095.238-.286.5-.572.786l.036.036a.441.441 0 0 1 0 .25l-.036.036c-.12.119-.168.203-.144.25z" fill="#8ba2aa"/><path d="M-638.699-313.799a.465.465 0 0 0-.179.107c-.024-.048.024-.131.143-.25l.036-.036a.44.44 0 0 0 0-.25c-.882.572-1.561 1.084-2.038 1.537.024.024.036.048.036.072a.396.396 0 0 1 .036.179v.072c.286-.143.608-.346.965-.608.357-.31.632-.536.822-.679l.179-.144z" fill="#5c6172"/><path d="M-640.88-320.413a50.552 50.552 0 0 1-2.109 1.716c-.215.62-.691 1.49-1.43 2.61l.071.215a65.449 65.449 0 0 1 3.432-1.537c.81-.405 1.216-.846 1.216-1.323 0-.167-.394-.727-1.18-1.681z" fill="#c3ccce"/><path d="M-642.096-320.449l-.179-.179c.072-.095-.405.203-1.43.894.215.095.477.107.786.036.286-.072.536-.179.751-.322.048-.048.06-.083.036-.107.025-.143.036-.25.036-.322z" fill="#a0bac1"/><path d="M-642.274-320.806c-.357-.095-.632-.143-.822-.143l-.107.179v.036l.143.036c.048.048.012.131-.107.25-.643.072-1.001.107-1.073.107l-.036.643.071.215.107.036h.107c0-.071.024-.143.072-.214a.381.381 0 0 1 .214-.072c1.025-.691 1.502-.989 1.43-.894l.072-.107-.071-.072z" fill="#c4d0cf"/><path d="M-643.168-321.628a.81.81 0 0 0 .179-.536v-.358c-.596.453-.93.846-1.001 1.18.024.048.072.072.143.072l.215-.107.071-.036a.45.45 0 0 0 .393-.215z" fill="#ebeff0"/><path d="M-642.811-321.628l.072-.143c-.072-.286-.083-.381-.036-.286.024.048.06.083.107.107.072-.095-.036-.167-.322-.215 0 .215-.06.393-.179.536a.447.447 0 0 1-.393.214l-.036.072.072.143.036.036.679-.464z" fill="#526675"/><path d="M-641.595-322.093l-.25.072c-.357.357-.584.536-.679.536l-.286-.143-.679.465-.036.214-.036.036c.072.119.167.143.286.072l.179-.107c.191 0 .465.048.822.143h.143l.786-1.001v-.072a.45.45 0 0 0-.25-.215z" fill="#ecece9"/><path d="M-641.166-321.235c.477-.644.739-1.049.786-1.216l-.5.179c-.048.143-.25.465-.608.965-.334.5-.536.786-.608.858 0 .072-.012.179-.036.322.024.024.012.06-.036.107.192-.166.525-.572 1.002-1.215z" fill="#e7eff1"/><path d="M-640.88-322.272h-.036l-.036.072-.25.358-.143.036-.786 1.001-.071.072-.072.107.179.179c.071-.072.274-.358.608-.858.357-.502.559-.824.607-.967z" fill="#4c656d"/><path d="M-635.947-320.556h-.036c-.071-.024-.155 0-.25.072a1.644 1.644 0 0 0-.214.143c-.262.119-.381.107-.357-.036v-.393h-.036c-.238.167-.56.274-.965.322-.405.048-.643.095-.715.143.572.286 1.061.429 1.466.429.508-.085.877-.311 1.107-.68z" fill="#7f8d99"/><path d="M-650.497-312.834a7.63 7.63 0 0 0-.357-.036l2.395.679v-.036a.969.969 0 0 1-.036-.215c0-.072.036-.119.107-.143 0-.143-.095-.262-.286-.358v.072c-.548-.095-.977-.143-1.287-.143l-.036.036a.531.531 0 0 1-.393.143 4.736 4.736 0 0 1-.107.001z" fill="#313d45"/><path d="M-650.854-313.871c.12.073.239.12.357.143.194.043.409.079.643.107l.107.036c.357.143.655.31.894.501.072.048.131.095.179.143.191.095.286.215.286.358.143.095.334.262.572.5a.663.663 0 0 1-.036-.214v-.036a2.232 2.232 0 0 1-.036-.429 9.15 9.15 0 0 1 .25-1.037c.119-.334.179-.512.179-.536a4.814 4.814 0 0 1-.715-.215 4.687 4.687 0 0 1-.643-.286c-.93.31-1.74.453-2.431.429.001.215.132.393.394.536m-.393-.536l.071-.036h-.071v.036z" fill="#71868c"/><path d="M-651.605-313.978c.035.065.071.124.107.179.095.119.131.191.107.214l1.358.572h.072c.31 0 .739.048 1.287.143v-.072a1.166 1.166 0 0 0-.179-.143 3.489 3.489 0 0 0-.894-.501 3.377 3.377 0 0 1-.107-.036 6.942 6.942 0 0 1-.643-.107 1.07 1.07 0 0 1-.357-.143c-.262-.143-.393-.322-.393-.536v-.036c-.191.143-.298.203-.322.179-.048-.024-.083 0-.107.071l.071.216z" fill="#4d6365"/><path d="M-653.393-313.942h.036l.143.072c1.12.572 1.907.906 2.359 1.001.024 0 .143.012.357.036h.107a.531.531 0 0 0 .393-.143v-.036h-.036l-1.358-.572a16.155 16.155 0 0 1-1.037-.357c-.405-.167-.703-.369-.894-.608-.095.072-.143.238-.143.5l.073.107z" fill="#192a31"/><path d="M-653.5-314.979l.071.143.072.179.036.071v.036c.191.238.489.441.894.608.238.095.584.214 1.037.357.024-.024-.012-.095-.107-.214a2.42 2.42 0 0 1-.107-.179l-.071-.215c.024-.071.06-.095.107-.071.024.024.131-.036.322-.179h.071c.786-.286 1.239-.489 1.359-.608-1.575-.047-2.802-.023-3.684.072z" fill="#37494c"/><path d="M-654.179-314.872c-.286.048-.5-.036-.643-.25a.736.736 0 0 1-.357-.286v-.036h-.036c-.048.024-.083.072-.107.143a.496.496 0 0 0-.036.215 1.126 1.126 0 0 0-.072-.215c-.071.095-.06.179.036.25.143.381.429.632.858.751.238.072.596.155 1.072.25 0-.262.048-.429.143-.5v-.036l-.036-.071-.072-.179-.071-.143-.143.036a2.557 2.557 0 0 1-.536.071z" fill="#283d41"/><path d="M-654.608-315.086a.668.668 0 0 1-.214-.036c.143.214.357.298.643.25.141 0 .32-.024.536-.072l.143-.036c.882-.095 2.109-.119 3.682-.071-.119.119-.572.322-1.359.608l-.071.036c.691.024 1.501-.119 2.431-.429.024 0 .167-.012.429-.036.262 0 .477-.036.643-.107s.238-.167.214-.286c-.024-.095-.25-.203-.679-.322l-.965-.072c-1.096.238-2.073.298-2.932.179l-.643-.179a3.829 3.829 0 0 0-1.287.393c-.221.12-.412.18-.571.18m-.644-1.001c-.071-.143-.203-.214-.393-.214-.048.214.024.548.214 1.001.024.048.048.119.072.215a.5.5 0 0 1 .036-.215c.024-.072.06-.119.107-.143h.036v-.179h.036v-.036a4.583 4.583 0 0 1-.108-.429z" fill="#50696d"/><path d="M-654.143-316.087l-.036.072.036.572.107.036c.548-.31.977-.393 1.287-.25l.643.179 2.467-.322c1.12-.405 2.038-.846 2.753-1.323-1.549.215-2.538.512-2.967.894-.357.31-.989.465-1.895.465-.191 0-.548-.083-1.072-.25-.501-.143-.941-.191-1.323-.143v.07z" fill="#8599a1"/><path d="M-655.538-316.731c-.095.191-.131.334-.107.429.191 0 .322.071.393.214 0 .024.036.167.107.429v.036c.095 0 .25.06.465.179.167.119.334.155.5.107v-.036l.036-.072-.036-.572-.179-.036c-.427-.102-.796-.34-1.108-.715l-.036-.036a.12.12 0 0 0-.035.073m1.323-.5h-.5l-.036.036c.215.381.369.691.465.93l.036.072.107.107v-.072c.381-.048.822 0 1.323.143.524.167.882.25 1.072.25.906 0 1.537-.155 1.895-.465.429-.381 1.418-.679 2.967-.894.024-.024.358-.215 1.001-.572l.465-.358.107-.215v-.143c-1.382.262-2.312.536-2.788.822-.262.143-.87.215-1.823.215-1.645 0-2.669.083-3.075.25l-.107.25-.572.143a.305.305 0 0 0-.036-.036 4.241 4.241 0 0 0-.465-.465l-.036-.036v.038z" fill="#9aacb2"/><path d="M-655.645-316.302c-.024-.095.012-.238.107-.429v-.036c-.119-.119-.214-.095-.286.072-.286.715-.191 1.382.286 2.002.5.643 1.12.906 1.859.786h.286v-.036l-.072-.107a12.73 12.73 0 0 1-1.072-.25c-.429-.119-.715-.369-.858-.751-.095-.072-.107-.155-.036-.25-.19-.452-.261-.786-.214-1.001z" fill="#e5edf0"/><path d="M-655.144-318.518l-.071-.072c-.072.262-.036.524.107.786.095.143.226.334.393.572h.5v-.036a.41.41 0 0 1-.107-.072c-.429-.356-.703-.749-.822-1.178z" fill="#495c66"/><path d="M-656.431-321.45c-.143-.072-.226-.131-.25-.179a9.788 9.788 0 0 0-.393-.25.91.91 0 0 0-.214-.107c-.072.31.107.596.536.858h.25c.119-.024.179-.072.179-.143.023-.071-.013-.131-.108-.179z" fill="#2c444d"/><path d="M-655.323-321.092v-.036c-.191 0-.31.072-.358.215l.036.036c.048.167.155.417.322.751a.41.41 0 0 0 .107-.072c.167-.119.203-.262.107-.429-.166-.215-.238-.37-.214-.465z" fill="#354959"/><path d="M-655.001-321.521h.036c-.024-.024-.048-.036-.072-.036a4.726 4.726 0 0 0-.822-.215v-.036c-.072.048-.226.072-.465.072-.167 0-.286.036-.357.107.024.048.107.107.25.179.095.048.131.107.107.179 0 .072-.06.119-.179.143-.024.048-.095.083-.215.107.191.143.524.191 1.001.143h.071l-.036-.036c.048-.143.167-.215.358-.215v.036h.107l.036-.036-.036-.036c-.048-.143-.06-.226-.036-.25.001-.07.085-.106.252-.106z" fill="#5e767c"/><path d="M-652.856-318.375h.036a3.824 3.824 0 0 0-.358-.679 4.1 4.1 0 0 1-.322-.572c-.167.215-.393.286-.679.215-.357-.119-.62-.179-.786-.179 0 .453.214.62.643.5a1.08 1.08 0 0 1 .858.143c.143.095.334.286.572.572h.036z" fill="#40565b"/><path d="M-653.714-318.268c.048-.238-.036-.369-.25-.393h-.071c-.357-.071-.643-.083-.858-.036a.819.819 0 0 0-.286.107c0 .022.012.046.036.072.119.429.393.822.822 1.18.024.024.06.048.107.072l.036.036c.119.095.274.25.465.465.012.01.024.022.036.036l.572-.143-.107-.036-.107-.107a1.01 1.01 0 0 1-.143-.214l-.286-.501c-.024-.048-.024-.155 0-.322a.622.622 0 0 1 .034-.216z" fill="#a7b7ba"/><path d="M-653.536-319.698c0-.238-.143-.429-.429-.572-.31-.191-.5-.358-.572-.5-.167.095-.31.095-.429 0a3.012 3.012 0 0 1-.214-.358l-.036.036h-.107c-.024.095.048.25.214.465.095.167.06.31-.107.429 0 .024-.012.048-.036.072 0 .31.095.489.286.536.167 0 .429.06.786.179.286.072.512 0 .679-.215-.023-.024-.035-.048-.035-.072z" fill="#9cafb3"/><path d="M-652.82-319.769l.071-.072a.585.585 0 0 1-.143-.036c.024.024.048.06.072.108m14.979-6.114l.036-.072-1.001-.786c.31.524.405.918.286 1.18V-325.453a.723.723 0 0 0 .465-.143c.142-.072.214-.167.214-.287m-4.433 2.539c-.095.31-.083.31.036 0h-.036m-.644-1.037l-.107.071-.5 1.323.572-.072c.143.286.203.369.179.25l-.036-.215c.095.119.107.262.036.429l-.179-.465c-.048.024-.25.179-.608.465-.262.215-.465.298-.608.25-.357.238-.691.31-1.001.214l-.429.393c-.215.882-.786 1.561-1.716 2.038a6.006 6.006 0 0 1-1.502.608c-.048-.048-.203-.417-.465-1.108l.572-.93a79.68 79.68 0 0 0-2.681 1.18l-.429-.036-.036-.786v-.143l-.322-.107-.501-.322c-.191-.119-.346-.024-.465.286l.465 1.037c0 .072-.012.119-.036.143.191.334.298.5.322.5.048.191 0 .381-.143.572l-.071-.143c-.024.024-.036.048-.036.072a.923.923 0 0 1 .143.25c0 .024.012.036.036.036v.072c-.191.119-.31.179-.357.179v-.036h-.036l-.036.036v.071c-.071.119-.203.215-.393.286-.238.072-.393.155-.465.25l.286.501a.986.986 0 0 0 .143.214l.107.107.214-.215c.405-.167 1.43-.25 3.075-.25.953 0 1.561-.072 1.823-.215.477-.286 1.406-.56 2.788-.822v.143l.215-.071c0-.095.381-.298 1.144-.608l.072-.179c-.143-.191-.215-.298-.215-.322l-.107-.036-.071-.215.036-.643c.072 0 .429-.036 1.073-.107l-.036-.286v-.036l-.071-.072c-.119.072-.214.048-.286-.072l.036-.036v-.25l-.072-.143-.036-.036-.215.107c-.071 0-.119-.024-.143-.072.072-.334.405-.727 1.001-1.18v.358c.286.048.393.119.322.215a.236.236 0 0 1-.107-.107c-.048-.095-.036 0 .036.286l.214.286c.095 0 .322-.179.679-.536-.048 0-.131-.083-.25-.25a2.146 2.146 0 0 1-.322-.608c-.071-.191-.024-.346.143-.465-.128-.017-.247-.124-.357-.322a1.597 1.597 0 0 1-.143-.715h-.143z" fill="#b1bec3"/><path d="M-652.713-319.877l-.036.036-.071.072-.036.036h-.036c.048.262.143.524.286.786l.071.143c.143-.191.191-.381.143-.572-.023 0-.131-.167-.321-.501z" fill="#8696a3"/><path d="M-653.965-321.164l-.036-.036c-.095-.095-.25-.155-.465-.179-.238 0-.405-.048-.5-.143h-.036c-.167 0-.25.036-.25.107-.024.024-.012.107.036.25l.036.036c.119.215.191.334.214.358.119.095.262.095.429 0l.036-.036.536-.357z" fill="#394c52"/><path d="M-653.571-320.878l-.25-.25-.036-.036h-.107l-.536.357-.036.036c.071.143.262.31.572.5.286.143.429.334.429.572 0 .024.012.048.036.072a4.1 4.1 0 0 0 .322.572c.167.262.286.489.358.679v.036c.048 0 .167-.06.357-.179v-.072c-.024 0-.036-.012-.036-.036a.908.908 0 0 0-.143-.25c0-.024.012-.048.036-.072a2.627 2.627 0 0 1-.286-.786h.036l-.036-.036-.143-.286c-.192-.356-.37-.63-.537-.821z" fill="#dde7e6"/><path d="M-653.893-321.843l-.036-.072v-.036c-.191-.286-.512-.453-.965-.501-.477-.024-.846.107-1.108.393-.048.048-.036.095.036.143l.107.107v.036c.191.024.465.095.822.215.024 0 .048.012.072.036v-.036l-.072-.107h.036c.048-.072.226-.048.536.072.262.072.453-.011.572-.25z" fill="#d7dddf"/><path d="M-653.857-321.807a.108.108 0 0 1-.036-.072v.036c-.119.238-.31.322-.572.25-.31-.119-.489-.143-.536-.072h-.036l.072.107v.036c.095.095.262.143.5.143.214.024.369.083.465.179l.036.036h.214v-.072l-.107-.571m-2.825-1.144c-.072.119-.155.262-.25.429 0 .024-.012.048-.036.072a1.16 1.16 0 0 0-.143.501c.024.024.036.048.036.071.119.072.25.155.393.25.071-.072.191-.107.357-.107.238 0 .393-.024.465-.072l-.107-.107c-.072-.048-.083-.095-.036-.143.262-.286.632-.417 1.108-.393.453.048.775.215.965.501l.036.036v-.107c.048-.095.095-.119.143-.072l.143.072c0-.143-.119-.369-.358-.679h.036a.95.95 0 0 0-.536-.143c-.286 0-.512-.012-.679-.036-.357.167-.632.262-.822.286-.238.072-.429-.036-.572-.322a1.377 1.377 0 0 1-.072-.179l-.071.142z" fill="#bac5c8"/><path d="M-653.75-322.093c-.048-.048-.095-.024-.143.072v.143c.001.025.013.048.036.072l.107.572c.048.119.107.238.179.357.167.191.346.465.536.822.048.048.095.107.143.179a.585.585 0 0 0 .143.036l.036-.036c.024-.024.036-.072.036-.143l-.465-1.037-.465-.965-.143-.072z" fill="#445863"/><path d="M-651.677-320.52c-.048-.215-.083-.334-.107-.358a.5.5 0 0 0-.036-.215c-.02-.059-.032.001-.036.179v.143l.036.786.429.036a1.084 1.084 0 0 1-.286-.571z" fill="#bbc7c9"/><path d="M-650.747-321.521l-.286-.322c.143-.024-.024-.036-.5-.036-.357.095-.584.107-.679.036l-.036-.036-.143-.286c-.191 0-.298.06-.322.179-.024.072.012.155.107.25l.429.715.322.107c.004-.178.016-.238.036-.179a.496.496 0 0 1 .036.215c.214-.024.346-.048.393-.072.19-.094.405-.285.643-.571z" fill="#7c949d"/><path d="M-653.929-322.701h-.036c.238.31.358.536.358.679l.465.965c.119-.31.274-.405.465-.286l.501.322-.429-.715c-.095-.095-.131-.179-.107-.25.024-.119.131-.179.322-.179v-.072a1.55 1.55 0 0 0 .358-.286c-.024-.024-.048-.036-.072-.036a1.105 1.105 0 0 0-.894-.25c-.143.095-.179.274-.107.536.071.238.024.358-.143.358-.048 0-.095-.131-.143-.393-.072-.262-.214-.393-.429-.393h-.109z" fill="#dae2e0"/><path d="M-652.284-324.488c.071.191.012.31-.179.358a.273.273 0 0 1-.107.036.41.41 0 0 0-.107.072v.143c.095.215.25.334.465.357h.536c.024-.024.036-.048.036-.071a.384.384 0 0 0-.072-.215c-.048-.167-.06-.274-.036-.322.119-.31.119-.477 0-.501-.048-.024-.226.024-.536.143z" fill="#b1bcc0"/><path d="M-653.142-325.525v.143c.119.143.167.393.143.751 0 .358.071.608.214.751 0-.048.036-.095.107-.143a.429.429 0 0 1 .107-.072c.024 0 .06-.012.107-.036.191-.048.25-.167.179-.358-.238-.119-.334-.262-.286-.429 0-.072.06-.191.179-.358v-.036c.024-.025.036-.049.036-.072h-.143l-.107-.107a.344.344 0 0 0-.179-.072c-.095-.048-.179-.048-.25 0h-.036a.114.114 0 0 0-.071.038z" fill="#677782"/><path d="M-653.107-325.597l-.072-.036c-.024.001-.048.025-.071.071a.572.572 0 0 1-.143.215 2.416 2.416 0 0 1-.25.215 17.03 17.03 0 0 1-.5.286c.191 0 .346.072.465.214l.036.072.179.358c0 .024.012.048.036.072.119-.119.167-.322.143-.608-.024-.31.024-.524.143-.643v-.143c.024-.024.048-.036.071-.036v-.036h-.037z" fill="#d1d7d8"/><path d="M-653.25-325.668l.036.036h.036l.072.036h.036l.036.036c.072-.048.155-.048.25 0 .048 0 .107.024.179.072l.143.036a.48.48 0 0 0-.215-.429 2.2 2.2 0 0 1-.429-.143c-.263-.002-.31.118-.144.356z" fill="#346574"/><path d="M-651.891-325.132h-.036l-.107-.036-.322-.179-.036.036v.036c-.119.167-.179.286-.179.358-.048.167.048.31.286.429.31-.119.489-.167.536-.143.119.024.119.191 0 .501-.024.048-.012.155.036.322a.384.384 0 0 1 .072.215c0 .024-.012.048-.036.071h-.036c.024.119.143.25.357.393.03.045.042.093.036.143l.036.072-.286.286c.334-.167.679-.441 1.037-.822l.679-.679-.608-.143a2.134 2.134 0 0 1-.143-.036 1.188 1.188 0 0 1-.608-.357.41.41 0 0 1-.107-.072c-.309-.24-.5-.371-.571-.395z" fill="#e4e6e4"/><path d="M-651.391-325.847c.024 0 .048-.012.071-.036-.024-.024-.06-.036-.107-.036l-.429-.358h-.071a.485.485 0 0 0-.179.322l.036.036c.214.119.346.215.393.286.071.119-.012.262-.25.429 0 .024.012.048.036.072.071.024.262.155.572.393.191-.024.286-.095.286-.215 0-.072-.06-.191-.179-.357h.143c-.119-.262-.226-.44-.322-.536z" fill="#627986"/><path d="M-651.176-326.276c-.024.024-.036.048-.036.072 0 .143-.036.25-.107.322-.024.024-.048.036-.071.036.095.095.203.274.322.536.215-.024.381-.072.5-.143-.119-.286-.179-.465-.179-.536a.49.49 0 0 1 .179-.465h.036c-.167-.215-.31-.298-.429-.25-.072.047-.143.19-.215.428m1.502-4.469l-.036.036a2.39 2.39 0 0 1-.608.393 1.986 1.986 0 0 1-.715.25.99.99 0 0 0-.214.179c-.143.119-.31.322-.501.608-.143.286-.119.548.072.786.095.167.143.274.143.322v.072c-.072.048-.107.095-.107.143-.048 0-.083.012-.107.036-.31.119-.441.262-.393.429.024.095.155.262.393.5h.072l.357-.143c.191-.048.262-.179.215-.393a1.62 1.62 0 0 1 .107-1.001v-.036l.357-.751c.027-.049.051-.097.071-.143.262-.238.453-.429.572-.572.191-.214.298-.441.322-.679v-.036m3.36 2.396c.024-.024-.071-.131-.286-.322a3.53 3.53 0 0 0-.393-.358v.036c-.048.286-.095.405-.143.357l-.036.036a.755.755 0 0 0 .25.357l.286.072.322-.178m1.215-3.182l-.286.072v.215l.071.036c.477.262.846.381 1.108.358 0-.191-.095-.358-.286-.5a1.002 1.002 0 0 0-.607-.181m-3.146-.072a.273.273 0 0 0-.107-.036c-.072-.048-.119-.048-.143 0v.036c-.095.167-.286.322-.572.465-.262.095-.441.215-.536.358-.024.025-.036.049-.036.072.262-.024.417.012.465.107.048.072.012.226-.107.465a.204.204 0 0 1-.072.072c-.214.334-.262.643-.143.93l.286.107.786-1.394c.548.596.977 1.025 1.287 1.287l.322-.215.25-.286.536.393-.107.143.608.215c0-.048-.06-.191-.179-.429-.143-.215-.214-.465-.214-.751s.048-.441.143-.465h.322l.107-.679-.036-.036c-.095 0-.381-.095-.858-.286.024.119.107.274.25.465l-.143.215-.429-.215-.179.179.036.357c-.191-.024-.453-.143-.786-.357-.381-.238-.548-.417-.5-.536l-.143-.107a1.01 1.01 0 0 0-.108-.074z" fill="#d0d7d6"/><path d="M-655.144-322.88c.167.024.393.036.679.036a.95.95 0 0 1 .536.143h.107c.215 0 .357.131.429.393.048.262.095.393.143.393.167 0 .214-.119.143-.358-.072-.262-.036-.441.107-.536.334-.048.632.036.894.25l.393-.179c.048-.014.096-.026.143-.036l.286-.143-.036-.072a.207.207 0 0 0-.036-.143c-.214-.143-.334-.274-.357-.393h-.5c-.214-.024-.369-.143-.465-.357v-.143c-.071.048-.107.095-.107.143-.143-.143-.214-.393-.214-.751.024-.357-.024-.608-.143-.751-.119.119-.167.334-.143.643.024.286-.024.489-.143.608-.024-.024-.036-.048-.036-.072-.143.143-.25.155-.322.036-.119-.214-.25-.286-.393-.214h-.072c-.167.071-.25.167-.25.286v.036c-.048.143-.155.346-.322.608-.19.24-.297.43-.321.573z" fill="#f4f2f0"/><path d="M-652.856-326.991h-.036c-.048.119 0 .262.143.429.072.095.095.191.071.286a4.787 4.787 0 0 0-.071.072c.143.024.357.119.643.286v-.036a.481.481 0 0 1 .179-.322c-.095-.476-.405-.715-.929-.715z" fill="#889ca3"/><path d="M-653.893-327.098a1.377 1.377 0 0 0-.072.179c.095.215.274.369.536.465.143.072.369.155.679.25l.071-.072c.024-.095 0-.191-.071-.286-.143-.167-.191-.31-.143-.429h.036l-.215-.143a.108.108 0 0 0-.071-.036 6.615 6.615 0 0 1-.465-.072.298.298 0 0 0-.25.036c-.024.024-.036.048-.036.072v.036z" fill="#36464f"/><path d="M-653.714-327.599h-.071a1.094 1.094 0 0 1-.429-.179 1.477 1.477 0 0 1-.179-.215 5.4 5.4 0 0 0-.286-.107c0 .334.036.596.107.786.024.024.036.048.036.072a.31.31 0 0 1 .322.036c.048.048.107.131.179.25a.343.343 0 0 1 .143-.179c0-.024.012-.048.036-.072a.299.299 0 0 1 .25-.036c.119.024.274.048.465.072h.036c-.002-.308-.204-.451-.609-.428z" fill="#89a4ac"/><path d="M-653.714-327.599a.365.365 0 0 0 .107-.036c-.358-.167-.524-.417-.501-.751 0-.191.048-.405.143-.643a.902.902 0 0 0-.286.25 1.166 1.166 0 0 0-.143.179 3.557 3.557 0 0 0-.215.429c.048.048.119.107.215.179.048.072.107.143.179.215.143.095.286.155.429.179h.072m.107-2.396l-.072.215-.286.751c.429-.405.751-1.096.965-2.073l-.107-.036-.072-.036-.428 1.179z" fill="#b1bdc2"/><path d="M-650.533-333.998a.458.458 0 0 0-.107-.179.579.579 0 0 0-.107-.143 2.203 2.203 0 0 0-.179-.215 1.94 1.94 0 0 1-.107-.25c-.286.429-.119.727.5.894v-.107z" fill="#798fa1"/><path d="M-643.561-322.594c.357-.286.56-.441.608-.465l-.572.072.5-1.323c-.381.93-.763 1.585-1.144 1.966.143.048.346-.035.608-.25z" fill="#a3b5bb"/><path d="M-636.447-323.595l.322-.429c-.286.334-.393.405-.322.215s.048-.262-.071-.215l-.393.5.464-.071z" fill="#88a1ac"/><path d="M-639.057-325.454l.393.5.107-.036.036-.465v-.036l-.072-.072-.608-.536.144.645z" fill="#556e7e"/><path d="M-636.769-325.918c-.191.167-.477.465-.858.894l-.107-.179c0-.405-.024-.643-.072-.715l-.036.036c0 .119-.072.215-.215.286a.723.723 0 0 1-.465.143l-.036.465-.107.036c.119.167.203.358.25.572.048.214.095.334.143.357.191-.048.393-.155.608-.322.143-.095.31-.226.5-.393l.358.286c-.024-.143 0-.369.071-.679.095-.334.143-.536.143-.608l-.143-.357-.034.178z" fill="#9dacb3"/><path d="M-639.951-322.808l-.25-.107c0 .191-.036.322-.107.393l-.071.072c-.048.167-.31.572-.786 1.216-.477.643-.81 1.049-1.001 1.215-.215.143-.465.25-.751.322-.31.072-.572.06-.786-.036a.381.381 0 0 0-.214.072.384.384 0 0 0-.072.214l.25.286c.405.143.655.298.751.465a50.552 50.552 0 0 0 2.109-1.716l.322-.608.036-.072c.308-.644.499-1.216.57-1.716z" fill="#425b64"/><path d="M-640.094-324.202l-.107-.036h-.036l-.036.965.107.25-.036.107.25.107c.049-.476.001-.94-.142-1.393z" fill="#7c8d9a"/><path d="M-642.274-324.238c.215.381.512.834.894 1.359l.643-.286v-.036c-.006-.266-.161-.505-.465-.715-.286-.215-.643-.322-1.072-.322z" fill="#ccd5d3"/><path d="M-642.382-322.808l-.036-.072c.072.214.179.417.322.608.119.167.203.25.25.25l.25-.072a.452.452 0 0 1 .25.214l.143.036.25-.358.036-.072h.036l.5-.179.071-.072c.072-.072.107-.203.107-.393l.036-.107-.107-.25c-.095-.453-.191-.751-.286-.894l-.071.036c.071.119.071.25 0 .393l-.072.072-.036-.036v.537l-.643.286c-.072.119-.143.167-.215.143l-.143-.071c-.07.096-.284.096-.642.001z" fill="#aebfc4"/><path d="M-642.274-323.344c-.167.119-.214.274-.143.465l.036.072c.357.095.572.095.643 0l-.5-.536c-.12.309-.132.309-.036-.001z" fill="#e9ebeb"/><path d="M-641.452-324.524c-.286 0-.512.048-.679.143l-.143.143c.429 0 .786.107 1.073.322.304.21.459.449.465.715v-.501a9.263 9.263 0 0 1-.215-.608c-.048-.143-.215-.214-.501-.214z" fill="#dae6e6"/><path d="M-641.523-324.917c-.31 0-.56.06-.751.179a2.533 2.533 0 0 1-.5.358c0 .286.048.524.143.715.11.198.229.305.357.322h.036l.5.536.143.071c.072.024.143-.024.215-.143a14.42 14.42 0 0 1-.894-1.359l.143-.143c.167-.095.393-.143.679-.143s.453.072.5.214c.119.358.191.56.215.608l.036.036.072-.072c.071-.143.071-.274 0-.393-.167-.31-.274-.512-.322-.608-.096-.119-.287-.178-.572-.178z" fill="#415b67"/><path d="M-639.807-325.454c-.095.024-.274.012-.536-.036-.238-.048-.429-.036-.572.036l.715 1.215.107.036.071-.25c.167.143.393.477.679 1.001.143-.048.322-.441.536-1.18l-.25-.286-.215.179v.25l-.071.072c-.047-.024-.202-.369-.464-1.037m.178.108l-.036-.036.072.107-.036-.071z" fill="#95a8b0"/><path d="M-639.629-325.346l.036.072.322.536.215-.179-.143-.322-.036-.072-.143-.215a11.25 11.25 0 0 1-.536-.643l.179.608.106.215z" fill="#738095"/><path d="M-639.665-325.382l-.107-.143-.071-.036.036.107c.262.667.417 1.013.465 1.037l.071-.072v-.25l-.322-.536-.072-.107m4.505-4.934a.7.7 0 0 0-.107-.036c-.715 0-1.335-.131-1.859-.393s-.798-.584-.822-.965a4.759 4.759 0 0 1-.179-.215.547.547 0 0 0-.465-.25c.038.132.145.299.322.5.214.286.346.477.393.572l.071.357c-.262-.072-.56-.357-.894-.858l-.036-.072a4.54 4.54 0 0 0-.143-.322c-.095-.143-.238-.107-.429.107a2.774 2.774 0 0 0-.358-.501.316.316 0 0 0 .143-.036l-.036-.036c-.048-.048-.083-.071-.107-.071-.381-.358-.667-.62-.858-.786a3.22 3.22 0 0 0-1.001-.608.908.908 0 0 0 .143.25c.143.215.214.334.214.358a.983.983 0 0 0 .357.465c.095.095.238.203.429.322l.071.143c.024 0 .048.012.072.036.221.194.388.396.5.608l.214.536.429.894c-.07-.048-.273-.072-.608-.072-.238 0-.358.107-.358.322 0 .191-.119.286-.357.286-.286 0-.548-.083-.786-.25-.167-.191-.286-.31-.357-.357.071.334.31.596.715.786.167.048.465.191.894.429.477.262.798.477.965.644.072.238.31.453.715.643h.107a.384.384 0 0 1-.214-.072c-.143-.072-.215-.25-.215-.536 0-.258.012-.39.036-.393a.756.756 0 0 1-.179-.393c.834.834 1.12 1.227.858 1.18.024.238.393.965 1.108 2.181l.036-.179.143.357c0 .072-.048.274-.143.608-.071.31-.095.536-.071.679l-.358-.286a4.961 4.961 0 0 1-.5.393 1.678 1.678 0 0 1-.608.322c-.048-.024-.095-.143-.143-.357a1.556 1.556 0 0 0-.25-.572l-.393-.5-.143.179v.036l.143.322.25.286c-.214.739-.393 1.132-.536 1.18-.286-.524-.512-.858-.679-1.001l-.071.25c.143.453.191.918.143 1.394-.072.5-.262 1.072-.572 1.716l.071.036c.048-.048.274-.381.679-1.001.31-.477.632-.763.965-.858l.071.608.143.072.536-.286c.143.024.25.131.322.322-.286.119-.536.226-.751.322.048.191.179.298.393.322.262.024.751-.024 1.466-.143l.179-.107c.184-.072.303-.107.357-.107.215 0 .381.215.5.643h-.036l.036.107h-.036l.071.071c.024-.071.167-.524.429-1.358v-.036c-.238-.143-.322-.31-.25-.501a.268.268 0 0 1-.107-.036c0-.105-.036-.236-.107-.393l-.036-.036c-.31.072-.512.06-.608-.036.405.024.417 0 .036-.072l-.25-.036-.465.071.393-.5c.119-.048.143.024.071.215s.036.119.322-.215l.536-.572.036.286c.072-.5.262-.786.572-.858l.071-.071c.024-.023.036-.047.036-.072v-.072l-.071-.072-.179-.25c-.143.238-.214.119-.214-.358 0-.715.131-1.823.393-3.325a.268.268 0 0 0 .071-.107c.024-.095.048-.167.071-.214v-.215c-.018-.189-.137-.32-.352-.392m-4.219-1.394a.674.674 0 0 1-.036-.215c.094.072.177.155.25.25l.322.572.143.751c-.309-.547-.536-1-.679-1.358z" fill="#c5cecf"/><path d="M-641.059-325.561l.143.107c.143-.072.334-.083.572-.036.262.048.441.06.536.036l-.036-.107a9.19 9.19 0 0 0-1.788-.929l-.179.143.752.786z" fill="#5d7887"/><path d="M-639.057-328.349l.071-.179c-.167-.167-.489-.381-.965-.644-.429-.238-.727-.381-.894-.429h-.5c0 .167.036.298.107.393.072.119.155.179.25.179l.071.036c.669.167 1.288.382 1.86.644z" fill="#a0b1b8"/><path d="M-638.556-328.886v.036c.03.048.066.096.107.143l.572.608c.262.048-.024-.346-.858-1.18a.749.749 0 0 0 .179.393z" fill="#a3adb7"/><path d="M-638.556-328.85v-.036c-.024.004-.036.135-.036.393 0 .286.072.465.215.536.069.046.141.07.214.072h-.107l-.143.036.071.036c.31.095.226.143-.25.143a5.381 5.381 0 0 0-1.287-.608c-1.001-.334-1.919-.322-2.753.036v.036c.048.143.012.322-.107.536-.191.238-.31.405-.357.5.095.048.584.274 1.466.679a9.19 9.19 0 0 1 1.788.929l.071.036.036-.036-.179-.608c.048.072.226.286.536.643l.143.215.036.036.143-.179-.143-.643.608.536h.072c.119-.262.024-.655-.286-1.18l1.001.786-.036.072.036-.036c.048.072.072.31.072.715l.107.179c.381-.429.667-.727.858-.894-.715-1.216-1.084-1.942-1.108-2.181l-.572-.608a.834.834 0 0 1-.109-.141m-1.251 1.216c-.143.429-.465.667-.965.715.167.143.417.405.751.786l-.822-.322a6.552 6.552 0 0 1-1.501-.822c.286-.119.691-.215 1.216-.286.546-.071.987-.095 1.321-.071z" fill="#d6dcdc"/><path d="M-640.773-326.919l-1.573-.357c.453.334.953.608 1.501.822l.822.322c-.333-.382-.583-.644-.75-.787z" fill="#8996a0"/><path d="M-640.773-326.919c.5-.048.822-.286.965-.715-.334-.024-.775 0-1.323.072-.524.072-.93.167-1.216.286l1.574.357z" fill="#f4f2f1"/><path d="M-643.919-324.417a.384.384 0 0 0 .036.358c.31-.31.608-.417.894-.322H-642.775c.143-.072.31-.191.5-.358.191-.119.441-.179.751-.179.286 0 .477.06.572.179.048.095.155.298.322.608l.071-.036c.095.143.191.441.286.894l.036-.965h.036l-.715-1.215-.179-.072c-.262.095-.667.143-1.215.143l-.465.036c-.262.262-.643.572-1.144.929z" fill="#eef0ef"/><path d="M-643.883-324.059a.386.386 0 0 1-.036-.358l-.751.393c-.024.048-.119.143-.286.286-.191.143-.31.203-.358.179a79.09 79.09 0 0 1-1.466 1.287 7.456 7.456 0 0 1-1.823 1.108l-.107.036-.572.93c.262.691.417 1.061.465 1.108a6.022 6.022 0 0 0 1.502-.608c.93-.477 1.501-1.156 1.716-2.038l.429-.393c.31.095.644.024 1.001-.214.381-.381.763-1.037 1.144-1.966l.036-.071c-.286-.096-.584.011-.894.321z" fill="#c4cdcf"/><path d="M-645.921-324.059v-.358l-.715-.679-.286.143.429.572.107.071.465.251z" fill="#5d7e8d"/><path d="M-645.921-324.059c0 .119.203.286.608.5.048.024.167-.036.358-.179.167-.143.262-.238.286-.286-.119-.238-.119-.429 0-.572l.036-.036c-.143-.143-.512-.25-1.108-.322-.024.262-.083.441-.179.536v.359z" fill="#849da7"/><path d="M-645.599-326.097l-.25-.393-.072-.072-.357-.072-.25-.072c0 .238.06.441.179.608.143.167.298.25.465.25l.179-.072.106-.177z" fill="#dde5e1"/><path d="M-644.026-326.24c-.119.072-.31.107-.572.107-.262-.024-.417-.024-.465 0l-.036.036c.334.143.524.322.572.536.405 0 .679.036.822.107.143-.048.405-.203.786-.465l-1.107-.321z" fill="#94abb1"/><path d="M-643.955-325.239l-.429.357-.25.25-.036.036c-.119.143-.119.334 0 .572l.751-.393c.5-.358.882-.667 1.144-.93v-.036l-.036-.143-.107-.036c-.381.311-.727.418-1.037.323z" fill="#516570"/><path d="M-643.704-325.454l-.25.215c.31.095.655-.012 1.037-.322l.072-.071-.072-.286c-.382.262-.644.417-.787.464z" fill="#bbd6da"/><path d="M-643.955-325.239l.25-.215c-.143-.072-.417-.107-.822-.107-.524-.191-.977-.25-1.358-.179h-.036l.143.286 1.394.572.429-.357z" fill="#6a7e88"/><path d="M-643.383-326.455l-.286-.107c-.119.048-.286.024-.5-.072a15.91 15.91 0 0 0-.679-.179l.179.25.643.322 1.108.322.072.286.036.107.036.143.393-.215c.048 0 .167-.024.357-.072.167-.048.274-.107.322-.179-.787-.355-1.347-.558-1.681-.606z" fill="#637a83"/><path d="M-643.526-326.562l.143-.215-.286-.107c-.31-.072-.691-.072-1.144 0-.453.048-.798.143-1.037.286l.786.465c.048-.024.203-.024.465 0 .262 0 .453-.036.572-.107l-.643-.322-.179-.25c.381.095.608.155.679.179.214.095.381.119.5.072h.144z" fill="#d8dfde"/><path d="M-647.422-322.737c-.119-.119-.334-.179-.644-.179-.62 0-1.144.083-1.573.25-.93.334-1.787.608-2.574.822.095.072.322.06.679-.036.477 0 .643.012.5.036l.286.322c-.238.286-.453.477-.643.572-.048.024-.179.048-.393.072.024.024.06.143.107.358.048.238.143.429.286.572.5-.238 1.394-.632 2.681-1.18l.107-.036c.715-.62 1.144-1.013 1.287-1.18l.071-.143a.52.52 0 0 0-.177-.25z" fill="#9aacb3"/><path d="M-646.886-325.632l-.107-.036c0 .167.119.358.358.572l.715.679c.095-.095.155-.274.179-.536.596.072.965.179 1.108.322l.25-.25-1.394-.572-1.109-.179z" fill="#ccd8d8"/><path d="M-646.922-325.918c0-.286-.131-.536-.393-.751a1.425 1.425 0 0 0-.93-.322l1.323 1.073z" fill="#d4d1d0"/><path d="M-647.422-325.311a26.49 26.49 0 0 0-.822.465c-.286.191-.56.286-.822.286-.286 0-.536-.107-.751-.322a5.42 5.42 0 0 0-.322-.393 2.387 2.387 0 0 0-.429-.179c-.119.072-.286.119-.5.143h-.143c.119.167.179.286.179.357 0 .119-.095.191-.286.215.024.024.06.048.107.072.143.167.346.286.608.357.047.013.094.025.143.036l.608.143-.679.679c-.357.381-.703.655-1.037.822l.286-.286-.286.143c-.047.01-.095.022-.143.036l-.393.179c.024 0 .048.012.072.036a1.53 1.53 0 0 1-.358.286v.072c.1-.018.219-.042.358-.072a5.279 5.279 0 0 0 1.966-.429c.572-.262.953-.393 1.144-.393l.214-.036c.191-.286.334-.453.429-.5.119-.072.346-.107.679-.107.262 0 .465-.095.608-.286.119-.191.215-.274.286-.25l.214-.143-.429-.572-.501-.359z" fill="#c9d1d2"/><path d="M-648.817-326.919l-.608-.751c0 .334-.095.62-.286.858a.916.916 0 0 1-.751.357H-650.57a.49.49 0 0 0-.179.465c0 .072.06.25.179.536.191.064.334.123.429.179.048.048.155.179.322.393.214.215.465.322.751.322.262 0 .536-.095.822-.286.453-.262.727-.417.822-.465-.048-.095-.203-.274-.465-.536a6.733 6.733 0 0 1-.894-1.108l-.034.036z" fill="#dadedd"/><path d="M-648.602-327.098c-.119.072-.179.119-.179.143.262.405.56.775.894 1.108.262.262.417.441.465.536l.5.357.286-.143c-.238-.214-.358-.405-.358-.572l.107.036-.036-.286-1.323-1.073-.107-.179c-.07-.022-.154.001-.249.073z" fill="#a8b7bb"/><path d="M-647.136-329.136c-.31-.262-.739-.691-1.287-1.287l-.786 1.394-.286-.107c.167.262.441.548.822.858.357.286.632.453.822.5l.536-.179c0-.072.036-.143.107-.215a.505.505 0 0 1 .286-.072.748.748 0 0 1-.25-.357l.036-.036c.048.048.095-.072.143-.357l-.143-.142z" fill="#a9b6bd"/><path d="M-646.6-327.956a1.738 1.738 0 0 0-.036-.215l-.286-.072a.505.505 0 0 0-.286.072c-.072.072-.107.143-.107.215.316.014.53.014.643 0a.664.664 0 0 0-.143.25c.142.018.214-.066.215-.25z" fill="#748a94"/><path d="M-646.028-326.919c0-.167-.072-.238-.214-.215l-.25.072-.143.072c-.93-.048-1.418-.095-1.466-.143-.191-.262-.62-.62-1.287-1.072l-.107.179.072.358.608.751.036-.036c0-.024.06-.072.179-.143.095-.072.179-.095.25-.072l.107.179c.357 0 .667.107.93.322.262.215.393.465.393.751l.036.286 1.108.179-.143-.286h.036v-.107c-.167 0-.322-.083-.465-.25a1.02 1.02 0 0 1-.179-.608l.036-.036c-.002-.122.153-.181.463-.181z" fill="#94a2ae"/><path d="M-645.563-328.242v-.107l-.679-.679-.572-.322-.322.215.143.143v-.036c.072.048.203.167.393.358.215.191.31.298.286.322l.751.106z" fill="#e9ebe8"/><path d="M-645.563-328.349v.107c.238.524.763.786 1.573.786.477 0 .798-.024.965-.072l-2.073-.536-.072-.072-.071-.036-.322-.177z" fill="#798992"/><path d="M-645.242-328.778l.107.072c.405.215.822.369 1.251.465l-1.359.072.071.036.072.072 2.073.536c-.167.048-.489.072-.965.072-.81 0-1.335-.262-1.573-.786l-.751-.107-.322.179c.018.086.03.157.036.215-.001.185-.073.268-.214.25a.664.664 0 0 1 .143-.25 4.655 4.655 0 0 1-.643 0l-.536.179c-.191-.048-.465-.215-.822-.5-.381-.31-.655-.596-.822-.858-.119-.286-.071-.596.143-.93a.205.205 0 0 0 .072-.072c.119-.238.155-.393.107-.465-.048-.095-.203-.131-.465-.107 0-.022.012-.046.036-.072l-.071.072a1.195 1.195 0 0 1-.322.679c-.119.143-.31.334-.572.572-.02.046-.044.094-.071.143l-.357.751v.036a1.62 1.62 0 0 0-.107 1.001c.048.215-.024.346-.215.393l-.357.143h-.036a.529.529 0 0 0 .143.465c.024 0 .131.072.322.215l.036.036h.036c.072-.238.143-.381.214-.429.119-.048.262.036.429.25h.072c.31 0 .56-.119.751-.357.191-.238.286-.524.286-.858l-.072-.358.107-.179c.667.453 1.096.81 1.287 1.072.048.048.536.095 1.466.143l.143-.072.25-.072c.143-.024.214.048.214.215-.31 0-.465.06-.465.179l.215.107.357.072.072.072.25.393-.107.179-.179.072v.107c.381-.072.834-.012 1.358.179-.048-.214-.238-.393-.572-.536l.036-.036-.786-.465c.238-.143.584-.238 1.037-.286.453-.072.834-.072 1.144 0l.286.107-.143.215.143.107c.334.048.894.25 1.68.608-.048.072-.155.131-.322.179-.191.048-.31.072-.357.072l.072.215c.548 0 .953-.048 1.215-.143l.036-.036-.751-.786.179-.143c-.882-.405-1.37-.632-1.466-.679.048-.095.167-.262.357-.5.119-.215.155-.393.107-.536l-.036-.036-2.145-.608-.072-.036-.358.101z" fill="#c1ccce"/><path d="M-645.134-328.707l-.25-.072-.143-.107-.608-.215-.107.072.679.679.322.179 1.359-.072a4.888 4.888 0 0 1-1.252-.464z" fill="#6a7a8a"/><path d="M-646.028-329.243l-.536-.393-.25.286.572.322.107-.072.107-.143z" fill="#8c9da9"/><path d="M-644.562-329.386h.036c.095-.167.191-.238.286-.215l.143.072.036-.036.25-.25c.048-.191-.167-.381-.643-.572-.453-.167-.751-.226-.894-.179l-.107.036h-.322c-.095.024-.143.179-.143.465s.072.536.214.751c.119.238.179.381.179.429l.143.107h.143l.357-.107h.036l-.25-.429c.357-.573.536-.596.536-.072z" fill="#e0e3e2"/><path d="M-644.527-329.386V-329.278c.215.167.501.31.858.429s.643.167.858.143l-1.251-.786-.036-.036-.143-.072c-.095-.024-.19.047-.286.214z" fill="#acb4bd"/><path d="M-644.527-329.35l-.036-.036c0-.524-.179-.501-.536.072l.25.429.036.036 2.145.608h.036c.834-.357 1.752-.369 2.753-.036.5.167.93.369 1.287.608.477 0 .56-.048.25-.143l-.071-.036-.643-.5a10.609 10.609 0 0 0-1.859-.643h-.036c-.143 0-.62-.119-1.43-.358-.81-.238-1.287-.393-1.43-.465l-.25.25v.072l1.251.786c-.214.024-.5-.024-.858-.143-.357-.119-.643-.262-.858-.429v-.072z" fill="#efeeeb"/><path d="M-643.669-331.924l-.465-.214.501.429c.667.548 1.204 1.108 1.609 1.68l-.143.036c-.715-.667-1.311-1.168-1.788-1.501l.107.322c.334.429.536.786.608 1.073l-.036.036-.93-.786c-.262.024-.632-.095-1.108-.358h-.036l-.107.679.107-.036c.143-.048.441.012.894.179.477.191.691.381.643.572.143.072.62.226 1.43.465.81.238 1.287.358 1.43.358l-.036-.036c-.095 0-.179-.06-.25-.179a.644.644 0 0 1-.107-.393c-.167-.286-.608-.858-1.323-1.716a6.175 6.175 0 0 0-1-.61z" fill="#b5c0c5"/><path d="M-643.955-332.639l-.107.107.107-.072v-.035m-1.215-.858a.316.316 0 0 0-.036.143c.477.405.894.643 1.251.715v-.322l-1.001-.679a.242.242 0 0 0-.179.072c-.023.023-.035.047-.035.071z" fill="#98a9b1"/><path d="M-646.385-332.818l-.072-.072c-.191.024-.274.095-.25.215.005.014.005.026 0 .036l1.323 1.18.286-.072c-.024-.072-.215-.31-.572-.715-.144-.238-.382-.429-.715-.572z" fill="#bec9cb"/><path d="M-645.528-333.283l.536.715a.63.63 0 0 0 .465.179.529.529 0 0 0 .465-.143l.107-.107c-.357-.072-.775-.31-1.251-.715-.048 0-.167-.06-.358-.179v.072a.48.48 0 0 0 .036.178m7.794.393c-.238-.191-.453-.286-.643-.286v.036c-.119.095-.131.191-.036.286l.25.215c.214.024.405.131.572.322.119.119.25.286.393.501h.036c.024-.024.048-.036.072-.036.143-.167.143-.346 0-.536l-.072-.072c-.095-.048-.286-.191-.572-.43m-5.219-1.93c.095.119.346.226.751.322.357.072.584.226.679.465v.107a3.22 3.22 0 0 1 1.001.608c.191.167.477.429.858.786.024 0 .06.024.107.071.143-.119.226-.214.25-.286v-.072a1.507 1.507 0 0 0-.286-.215c-.715-.381-1.251-.763-1.609-1.144.786.071 1.502.405 2.145 1.001.048.048.095.072.143.072.071 0 .119-.048.143-.143l-.072-.143h.072a1.377 1.377 0 0 1-.072-.179.753.753 0 0 1-.357-.465c.143.048.369.06.679.036.262 0 .489.036.679.107a.575.575 0 0 0 .143.036c0-.024.012-.036.036-.036l-.036-.036c-.072-.119-.095-.191-.072-.215-.024-.024-.06-.048-.107-.072s-.072-.06-.072-.107c-.048-.072-.06-.179-.036-.322.024-.215-.036-.358-.179-.429-1.716-.81-3.027-1.311-3.932-1.501-.548-.119-1.275-.155-2.181-.107-1.192.048-1.919.06-2.181.036-.62-.048-1.323.06-2.109.322-.858.31-1.501.524-1.93.643a.947.947 0 0 0-.25.179.812.812 0 0 0-.286.286l.143.143c.024 0 .06.012.107.036.167-.119.322-.107.465.036.262.453.739.679 1.43.679a.39.39 0 0 0 .107-.286v-.107c0-.048-.012-.083-.036-.107-.143-.238-.214-.417-.214-.536.143.119.441.31.894.572l.071.072h.036a.652.652 0 0 1 .465.286c.071.095.143.262.214.501.238 0 .524-.107.858-.322.024-.024.048-.036.072-.036.357-.262.667-.203.93.179h.107c.095.048.214.191.357.429a.236.236 0 0 0-.107.107.242.242 0 0 1 .179-.072l1.001.679 1.93 1.001.286-.25a.203.203 0 0 0 .036-.072c0-.095-.06-.191-.179-.286l-1.787-1.108a4.459 4.459 0 0 1-.357-.25.728.728 0 0 1-.215-.536c.167 0 .417.048.751.143.262.024.441-.143.537-.5m1.68-.858c-.072 0-.572.012-1.502.036-.596.024-1.096-.048-1.501-.215 1.096-.31 2.097-.25 3.003.179m-7.079-.286c.071.024.167.06.286.107.024 0 .25-.024.679-.072.262-.048.453.036.572.25.024.072.06.167.107.286.024.095-.012.179-.107.25a4.72 4.72 0 0 1-.751.179 1.281 1.281 0 0 1-.786-.179c-.262-.262-.346-.477-.25-.643.048-.166.131-.226.25-.178z" fill="#faf6f5"/><path d="M-645.385-334.105h-.107a.5.5 0 0 0-.215.036c-.119.024-.167.083-.143.179.048.095.143.238.286.429v-.072c.191.119.31.179.358.179 0-.048.012-.095.036-.143 0-.024.012-.048.036-.072a.236.236 0 0 1 .107-.107c-.143-.238-.262-.381-.358-.429z" fill="#c8d1d4"/><path d="M-647.744-331.746l-.25.322c-.048.119.119.298.5.536.334.214.596.334.786.357l-.036-.357-1-.858m.429-2.037h.036c.048.143.215.298.501.465.238.167.369.334.393.5.334.143.572.334.715.572l.679-.322-.536-.715a.444.444 0 0 1-.036-.179 3.313 3.313 0 0 1-.286-.429c-.024-.095.024-.155.143-.179a.496.496 0 0 1 .215-.036c-.262-.381-.572-.441-.93-.179 0 .024-.012.036-.036.036-.167.12-.453.275-.858.466m0 0v-.072c-.024-.024-.036-.048-.036-.072-.071-.238-.143-.405-.214-.501a.652.652 0 0 0-.465-.286c.095.31-.095.548-.572.715-.691.167-1.311.191-1.859.072l-.072-.072v.107c-.62-.167-.786-.465-.5-.894l.143-.179v-.107l-.143-.143a.799.799 0 0 0-.429.358c-.071.119-.107.286-.107.5v.036a.597.597 0 0 0 .036.179c0 .477-.119.763-.357.858a.108.108 0 0 0-.036.072c-.262.238-.441.429-.536.572-.143.143-.143.215 0 .215.477-.143.524-.024.143.357-.072.215 0 .501.214.858.191.334.357.453.5.358.167-.095.62-.215 1.359-.358.572-.095.977-.334 1.216-.715.095-.214.226-.357.393-.429.238-.119.465-.048.679.215a.236.236 0 0 0 .107-.107 5.366 5.366 0 0 0-.107-.357c-.072-.143-.072-.262 0-.358a.316.316 0 0 1-.036-.143c.071-.024.191-.036.357-.036.119-.048.155-.155.107-.322-.095-.191-.036-.298.179-.322h.036z" fill="#f2efed"/><path d="M-647.958-332.961c-.072.095-.072.215 0 .358.048.143.083.262.107.357a.316.316 0 0 1-.036.143.42.42 0 0 0 .072.179l.036.072.036.107 1.001.858.179-.179c-.31-.381-.643-.751-1.001-1.108a1.89 1.89 0 0 1-.394-.787z" fill="#b8c0c6"/><path d="M-647.315-333.783h-.036c-.214.024-.274.131-.179.322.048.167.012.274-.107.322-.167 0-.286.012-.357.036 0 .048.012.095.036.143.057.268.188.53.393.786.357.358.691.727 1.001 1.108l.429.215.143-.215c-.143-.191-.226-.346-.25-.465.477.191.763.286.858.286v-.215l-1.323-1.18c.005-.01.005-.022 0-.036-.024-.119.06-.191.25-.215l.072.072c-.024-.167-.155-.334-.393-.5-.286-.167-.453-.322-.501-.465h-.036z" fill="#e2e5e2"/><path d="M-648.03-334.713h-.036a4.787 4.787 0 0 1-.071-.072c-.453-.262-.751-.453-.894-.572 0 .119.071.298.214.536.024.024.036.06.036.107.071.143.083.262.036.357a.316.316 0 0 0-.143.036c-.691 0-1.168-.226-1.43-.679-.143-.143-.298-.155-.465-.036-.024 0-.048.012-.071.036l-.036.036-.143.179c.024.072.06.155.107.25.048.048.107.119.179.215a.555.555 0 0 1 .107.143.446.446 0 0 1 .107.179l.072.072c.548.119 1.168.095 1.859-.072.477-.167.667-.405.572-.715z" fill="#ced3d3"/><path d="M-638.163-332.639c.024.238.155.477.393.715l.179.179c.214.262.381.393.5.393l-.072-.393v-.072h-.036a3.37 3.37 0 0 0-.393-.501.88.88 0 0 0-.571-.321z" fill="#c1cacb"/><path d="M-637.698-333.926l.036.036c-.024 0-.036.012-.036.036a.575.575 0 0 1-.143-.036 1.924 1.924 0 0 0-.679-.107c-.31.024-.536.012-.679-.036a.76.76 0 0 0 .357.465c.024 0 .048.012.072.036a.906.906 0 0 1 .214.215l.179.179v-.036c.191 0 .405.095.643.286.286.238.477.381.572.429l.072.072v-.608a.429.429 0 0 0-.107-.072c0-.024-.072-.119-.215-.286-.119-.143-.095-.286.072-.429a2.394 2.394 0 0 0-.215-.358 1.166 1.166 0 0 0-.143-.179c-.023 0-.035.012-.036.036-.024 0-.036.012-.036.036-.024 0-.024.036 0 .107-.024.023 0 .095.072.214z" fill="#cecfd0"/><path d="M-641.166-333.068c-.167.191-.095.393.214.608l1.43 1.251-.214-.536a2.172 2.172 0 0 0-.5-.608c-.024-.024-.048-.036-.072-.036a15.854 15.854 0 0 1-.858-.679z" fill="#eff0ee"/><path d="M-641.953-331.889l-.072-.072-1.93-1.001v.358c.191.072.608.286 1.251.643.667.357 1.049.584 1.144.679l-.393-.607z" fill="#b8bec4"/><path d="M-642.203-334.498c-.405-.095-.655-.203-.751-.322-.095.358-.274.524-.536.501-.334-.095-.584-.143-.751-.143 0 .215.072.393.215.536.024.024.143.107.357.25l1.787 1.108.072.036c.191.119.25.226.179.322l-.036.036-.286.286.393.608c-.095-.095-.477-.322-1.144-.679-.643-.358-1.061-.572-1.251-.643l-.107.072a.529.529 0 0 1-.465.143.63.63 0 0 1-.465-.179l-.679.322c.357.405.548.643.572.715.238 0 .441.06.608.179.191.143.286.31.286.5l.93.786.036-.036c-.072-.286-.274-.644-.608-1.073l-.107-.322c.477.334 1.073.834 1.788 1.501l.143-.036c-.405-.572-.941-1.132-1.609-1.68l-.501-.429.465.214c.381.191.715.393 1.001.608l-.107-.107 1.216 1.037c.071.048.191.167.357.357.238.167.5.25.786.25.238 0 .357-.095.357-.286 0-.215.119-.322.358-.322.335 0 .538.024.608.072l-.429-.894-1.43-1.251c-.31-.214-.381-.417-.214-.608.191.167.477.393.858.679l-.071-.143a2.413 2.413 0 0 1-.429-.322.977.977 0 0 1-.357-.465c0-.024-.072-.143-.214-.358a.923.923 0 0 1-.143-.25v-.107c-.098-.237-.324-.392-.682-.463z" fill="#d9dddd"/><path d="M-648.066-335.857a5.088 5.088 0 0 0-.286-.107c-.119-.048-.203.012-.25.179-.095.167-.012.381.25.643.238.143.5.203.786.179.191-.024.441-.083.751-.179.095-.072.131-.155.107-.25a5.4 5.4 0 0 1-.107-.286c-.119-.214-.31-.298-.572-.25-.428.047-.655.071-.679.071z" fill="#e3e3e1"/><path d="M-642.775-335.642c.93-.024 1.43-.036 1.502-.036-.906-.429-1.907-.489-3.003-.179.405.167.905.239 1.501.215z" fill="#e3e3e2"/><path d="M-635.303-316.373v-.107l-.286.107c-.024 0-.048.012-.071.036a90.12 90.12 0 0 1-3.039 2.538l-.179.143c-.191.143-.465.369-.822.679a6.925 6.925 0 0 1-.965.608v-.072a.242.242 0 0 0-.107.215c0 .024.012.083.036.179v.072c1.454-.93 3.015-2.157 4.683-3.682.238-.239.488-.478.75-.716z" fill="#4f565b"/><path d="M-635.375-317.231l-.072.036c0 .191-.048.31-.143.358l-.071-.143v.143c-.405-.119-.846-.012-1.323.322-.596.381-.989.584-1.18.608-.221.092-.364.128-.429.107-1.811 0-3.372.524-4.683 1.573-1.311 1.073-1.966 2.348-1.966 3.825-.147.19-.171.405-.072.643v.036c1.382-.596 2.908-1.561 4.576-2.896h.036c0-.024-.012-.048-.036-.072.477-.453 1.156-.965 2.038-1.537l-.036-.036c.286-.286.477-.548.572-.786.167-.381.536-.715 1.108-1.001.548-.31 1.013-.405 1.394-.286.024-.024.048-.036.071-.036l.286-.107.072-.036c.001-.334-.046-.572-.142-.715z" fill="#a1b2b8"/><path d="M-635.553-318.339c-.143-.572-.226-.93-.25-1.073l-.143-.179h-.071a1.728 1.728 0 0 0 0 .858c.119.5.179.798.179.894.095.334.155.62.179.858l.071.143c.095-.048.143-.167.143-.358.023-.309-.013-.69-.108-1.143z" fill="#919ea9"/><path d="M-635.661-321.128v-.036c-.191.048-.286.238-.286.572l-.036.036h.036c-.23.368-.6.595-1.108.679-.405 0-.894-.143-1.466-.429-.596-.334-.953-.62-1.073-.858l.858-1.001v-.143l-.071-.608c-.334.095-.655.381-.965.858-.405.62-.632.953-.679 1.001l-.107.036-.322.608c.786.953 1.18 1.513 1.18 1.68 0 .477-.405.918-1.216 1.323a66.291 66.291 0 0 0-3.432 1.537c-.214.358-.715 1.073-1.501 2.145 0 .405-.095.751-.286 1.037-.167.31-.369.465-.608.465l-.107.25a.296.296 0 0 1-.143.143c-.024.024-.119.06-.286.107l-.143.107c0 .381.095.822.286 1.323.119.262.298.643.536 1.144 0 .024.012.06.036.107.095.048.274.072.536.072.167 0 .31.024.429.072.024.024.06.048.107.072.405-.167.703-.405.894-.715-.024-.024-.119-.012-.286.036a.268.268 0 0 0-.107.036c-.191.072-.298-.012-.322-.25v-.036c-.099-.239-.076-.453.072-.643 0-1.478.655-2.753 1.966-3.825 1.311-1.049 2.872-1.573 4.683-1.573.065.021.208-.015.429-.107.191-.024.584-.226 1.18-.608.477-.334.918-.441 1.323-.322v-.143a5 5 0 0 0-.179-.858c0-.095-.06-.393-.179-.894a1.728 1.728 0 0 1 0-.858v-.036c.071-.549.191-1.05.357-1.503m-10.76 10.225c0 .215-.083.369-.25.465-.095.048-.143.012-.143-.107l-.072-.25c-.119-.143-.107-.274.036-.393.162-.13.27-.225.322-.286l.071.215.036.356z" fill="#b1bec2"/><path d="M-646.672-310.439c.167-.095.25-.25.25-.465-.012-.127-.023-.246-.036-.357l-.071-.215a2.659 2.659 0 0 1-.322.286c-.143.119-.155.25-.036.393l.072.25c0 .12.048.156.143.108z" fill="#cdd5d3"/><path d="M-635.625-321.271h.036c-.119-.429-.286-.643-.5-.643-.054 0-.173.036-.357.107l-.179.107.036.25a.724.724 0 0 0 .393.107c.285.025.476.048.571.072z" fill="#838f9c"/><path d="M-635.625-321.164h.036l-.036-.107a4.367 4.367 0 0 0-.572-.072.733.733 0 0 1-.393-.107l-.036-.25c-.715.119-1.204.167-1.466.143-.215-.024-.346-.131-.393-.322.214-.095.465-.203.751-.322-.072-.191-.179-.298-.322-.322l-.536.286-.143.072-.858 1.001c.119.238.477.524 1.073.858.071-.048.31-.095.715-.143.405-.048.727-.155.965-.322h.036v.393c-.024.143.095.155.357.036.095-.072.167-.119.214-.143.095-.072.179-.095.25-.072l.036-.036c0-.334.095-.524.286-.572h.036z" fill="#9fafb5"/><path d="M-635.017-323.237a2.056 2.056 0 0 0-.214.179.41.41 0 0 0-.107.072h-.036c-.072.191.012.358.25.501h.036l.572-.715-.036-.036a.331.331 0 0 0-.286-.072c-.048-.001-.107.023-.179.071z" fill="#565c69"/><path d="M-635.553-324.31l-.036-.286-.536.572-.322.429.25.036c.405-.333.62-.584.644-.751z" fill="#6b637a"/><path d="M-634.338-324.31a6.939 6.939 0 0 1-.643.143 1.004 1.004 0 0 0-.322.143l-.322.572.036.036a.986.986 0 0 1 .107.393.273.273 0 0 0 .107.036h.036a.429.429 0 0 1 .107-.072c.048-.048.119-.107.214-.179a.347.347 0 0 1 .179-.072c.095-.024.191 0 .286.072.214-.215.381-.548.5-1.001v-.143c-.023.025-.118.049-.285.072z" fill="#89a1a9"/><path d="M-634.517-325.454c.022 0 .046-.012.072-.036.31-.238.429-.632.357-1.18a3.156 3.156 0 0 0-.143-.608c.024.31-.095.929-.357 1.859.024.001.048-.011.071-.035z" fill="#ececde"/><path d="M-633.802-324.953v.107a1.156 1.156 0 0 0-.143.5.236.236 0 0 0-.107.107c-.119.453-.286.786-.5 1.001l.036.036-.572.715h-.036v.036c-.262.834-.405 1.287-.429 1.358l-.071-.071h-.036v.036a6.891 6.891 0 0 0-.357 1.501v.036h.071l.143.179c.119-.238.334-.882.643-1.931.238-.834.584-1.442 1.037-1.823 0-.024.012-.048.036-.072 0-.024.012-.036.036-.036a9.353 9.353 0 0 0 .465-1.573.236.236 0 0 0-.107-.107h-.109z" fill="#3e5155"/><path d="M-633.873-327.134c0-.167-.012-.25-.036-.25-.024-.024-.107.012-.25.107.048.214.071.417.071.608.071.548-.048.941-.357 1.18l-.072.072a1.653 1.653 0 0 0-.357.215h-.036l-.071.036c-.31.072-.5.358-.572.858-.024.167-.238.417-.643.751.381.072.369.095-.036.072.095.095.298.107.608.036l.322-.572c.088-.062.195-.109.322-.143.262-.048.477-.095.643-.143.167-.024.262-.048.286-.071v.143a.236.236 0 0 1 .107-.107c0-.143.048-.31.143-.5v-.107a25.547 25.547 0 0 1-.072-2.185z" fill="#b3c2c7"/><path d="M-634.874-329.493a.283.283 0 0 1-.071.107c-.262 1.501-.393 2.61-.393 3.325 0 .477.071.596.214.358h.143c.048-.62.119-1.204.214-1.752l.072-.608c.032-.107.056-.202.071-.286a1.474 1.474 0 0 0-.25-1.144z" fill="#a4b0b8"/><path d="M-635.267-330.351a.7.7 0 0 1 .107.036c.215.072.334.203.357.393v.215a1.056 1.056 0 0 0-.071.214c.238.334.322.715.25 1.144-.015.084-.039.18-.071.286l-.072.608a18.416 18.416 0 0 0-.214 1.752h-.143l.179.25.25-1.001c.181-.671.288-1.123.322-1.358.143-.906.072-1.704-.214-2.395l-.036.072a6.675 6.675 0 0 0-2.467-2.86v.608c.143.191.143.369 0 .536l-.072.072v.036l.072.393c-.119 0-.286-.131-.5-.393l-.179-.179c-.238-.238-.369-.477-.393-.715l-.25-.215c-.095-.095-.083-.191.036-.286l-.179-.179a.381.381 0 0 0-.214-.072h-.072l.072.143c.024.072.024.119 0 .143-.024.024-.072.024-.143 0-.048 0-.095-.024-.143-.072-.643-.596-1.359-.93-2.145-1.001.357.381.894.763 1.609 1.144.119.072.214.143.286.215.167.167.095.298-.215.393a.316.316 0 0 1-.143.036c.095.095.215.262.358.501.191-.215.334-.25.429-.107.042.084.09.191.143.322l.036.072c.334.501.632.786.894.858l-.071-.357a5.195 5.195 0 0 0-.393-.572c-.177-.201-.284-.368-.322-.5.191 0 .346.083.465.25.076.095.136.167.179.215.024.381.298.703.822.965.521.259 1.141.39 1.856.39m-4.147-1.573c0 .071.012.143.036.215.143.358.369.81.679 1.358l-.143-.751-.322-.572a1.345 1.345 0 0 0-.25-.25z" fill="#dce0df"/><path d="M-634.481-330.494v-.107a1.601 1.601 0 0 0-.5-.894c-.5-.548-1.287-1.311-2.359-2.288-.167.143-.191.286-.072.429.143.167.215.262.215.286a.41.41 0 0 1 .107.072 6.681 6.681 0 0 1 2.467 2.86l.036-.072.106-.286z" fill="#a2aab3"/><path d="M-634.481-330.602v.107l-.107.286c.286.691.357 1.49.214 2.395-.034.235-.141.688-.322 1.358l-.25 1.001.071.072c.095.048.191.036.286-.036.262-.93.381-1.549.357-1.859.072.214.119.417.143.608a2.85 2.85 0 0 0-.071-.608c.143-.095.226-.131.25-.107.024 0 .036.083.036.25 0 .93.024 1.656.072 2.181h.214c.119-1.525-.167-3.408-.858-5.648h-.035z" fill="#87929e"/></g></g></svg>