<?xml version="1.0" encoding="utf-8"?>
<!-- Generator: Adobe Illustrator 17.1.0, SVG Export Plug-In . SVG Version: 6.00 Build 0)  -->
<!DOCTYPE svg PUBLIC "-//W3C//DTD SVG 1.1//EN" "http://www.w3.org/Graphics/SVG/1.1/DTD/svg11.dtd">
<svg version="1.1" id="Layer_1" xmlns="http://www.w3.org/2000/svg" xmlns:xlink="http://www.w3.org/1999/xlink" x="0px" y="0px"
	 viewBox="0 0 236 284" enable-background="new 0 0 236 284" xml:space="preserve">
<rect y="0" fill="none" width="236" height="284"/>
<g>
	<ellipse fill="#0a91bc" cx="115.7" cy="270.8" rx="62.2" ry="3.9"/>
	<g>
		<polygon fill="#7DBF43" points="101.8,241.3 104.8,266.7 109,266.7 111.6,244.1 		"/>
		<path fill="#7DBF43" d="M108.3,266c0,0-24.6-0.5-18.8,1.7c5.8,2.2,12.9,2.5,9.5,3.7c-3.4,1.2-2.7,1.8,6.8,1.7
			C115.3,273,109.8,267.3,108.3,266z"/>
	</g>
	<g>
		<polygon fill="#7DBF43" points="128.9,241.3 125.9,266.7 121.7,266.7 119.1,244.1 		"/>
		<path fill="#7DBF43" d="M122.4,266c0,0,24.6-0.5,18.8,1.7c-5.8,2.2-12.9,2.5-9.5,3.7c3.4,1.2,2.7,1.8-6.8,1.7
			C115.4,273,120.9,267.3,122.4,266z"/>
	</g>
	<g>
		<path fill="#7DBF43" d="M107.5,190.7c0,0-34.3,45.4-32.8,48.9c1.4,3.5,5,6.8,8.2,5.5c3.2-1.3,26.6-50.5,26.6-50.5L107.5,190.7z"/>
	</g>
	<g>
		<path fill="#7DBF43" d="M121.6,190.7c0,0,34.3,45.4,32.8,48.9c-1.4,3.5-5,6.8-8.2,5.5c-3.2-1.3-26.6-50.5-26.6-50.5L121.6,190.7z"
			/>
	</g>
	<path fill="#7DBF43" d="M118.9,183.4l-4,0.1l-4-0.1c0,0-53.9,70.2,3.9,70.2C172.5,253.6,118.9,183.4,118.9,183.4z"/>
	<g>
		<g>
			<path fill="#7DBF43" d="M133.3,125.3c0,0-5.3-34.4,17.7-28.1c23,6.3,25.2,22,11,39.6c-14.2,17.5-29.3-10.2-29.3-10.2L133.3,125.3
				z"/>
			<path fill="#7DBF43" d="M104.3,125.3c0,0,5.3-34.4-17.7-28.1c-23,6.3-25.2,22-11,39.6c14.2,17.5,29.3-10.2,29.3-10.2L104.3,125.3
				z"/>
			<path fill="#7DBF43" d="M57.6,159.2c-2.9-11.6,2.1-24.6,15.6-31.3c1.4-0.8,2.9-1.5,4.4-2.2c6.1-2.7,13.3-4.3,20.8-4.6
				c1.9-0.2,3.8-0.3,5.7-0.4c2-0.2,4.1-0.3,6.2-0.4c2.1-0.1,4.2-0.2,6.4-0.3c2.1-0.1,4.3-0.1,6.4-0.1c1.7,0,3.5,0.1,5.2,0.2
				c19.3,0.8,39.7,9.4,45.4,24.5c0.6,1.5,1,3,1.3,4.6c0.5,3.1,0.4,6.4-0.6,9.6c-0.3,1.9-0.8,3.8-1.4,5.5
				c-5.6,15.5-23,22.6-42.7,23.7c-2.4,0.1-4.9,0.2-7.4,0.2c-2.4,0.1-4.9,0.1-7.4,0.1c-2.5,0-5.1-0.1-7.7-0.2c-8-0.3-16-1.8-23.2-4.3
				c-1.8-0.6-3.5-1.3-5.2-2.1c-1.6-0.7-3.1-1.6-4.5-2.4c-1.2-0.8-2.4-1.6-3.5-2.4c-1.8-1.3-3.5-2.8-5.2-4.3
				c-0.8-0.8-1.6-1.6-2.3-2.4c-1.9-2.6-3.6-5.3-5.1-7.9C58.3,161.2,57.9,160.2,57.6,159.2z"/>
			<g>
				<g>
					<path fill="#3C3B42" d="M97.1,120.2c0,1.9-0.7,3.8-1.9,5c-1.3,1.2-3.1,1.8-5,1.8c-1.9,0-3.5-0.9-4.8-2.2
						c-1.2-1.3-2.3-2.9-2.3-4.8c0-1.9,1.3-3.5,2.5-4.7c1.3-1.2,2.9-2,4.8-2c1.9,0,3.3,1,4.6,2.3C96.1,116.9,97.1,118.3,97.1,120.2z"
						/>
					<path fill="#FFFFFF" d="M90,117.8c0,1.1-0.9,1.9-2,1.9c-1.1,0-1.9-0.9-1.9-2c0-1.1,0.9-1.9,2-1.9
						C89.2,115.8,90.1,116.7,90,117.8z"/>
				</g>
				<g>
					<path fill="#3C3B42" d="M84.6,107.6c-0.2,0.7-1.6,1.2-3.4,2.1c-1.8,1-3.4,1.9-3.9,1.4c-0.4-0.4,0.6-2.2,2.8-3.5
						C82.4,106.4,84.8,107,84.6,107.6z"/>
				</g>
				<g>
					<path fill="#3C3B42" d="M155.7,120.6c0,1.9-0.7,3.8-1.9,5c-1.3,1.2-3.1,1.8-5.1,1.8c-1.9,0-3.5-0.9-4.8-2.2
						c-1.2-1.3-2.4-2.9-2.3-4.8c0-1.9,1.3-3.5,2.5-4.7c1.3-1.2,2.9-2,4.8-2c1.9,0,3.3,1,4.6,2.3
						C154.7,117.3,155.7,118.7,155.7,120.6z"/>
					<path fill="#FFFFFF" d="M148.6,118.2c0,1.1-0.9,1.9-2,1.9c-1.1,0-1.9-0.9-1.9-2c0-1.1,0.9-1.9,2-1.9
						C147.8,116.3,148.6,117.1,148.6,118.2z"/>
				</g>
				<g>
					<path fill="#3C3B42" d="M154.5,108.2c0.1,0.7,1.5,1.2,3.3,2.3c1.8,1.1,3.4,2,3.9,1.5c0.4-0.4-0.5-2.3-2.7-3.6
						C156.8,107.1,154.4,107.6,154.5,108.2z"/>
				</g>
			</g>
			<g>
				<g>
					<path fill="#3C3B42" d="M111.4,169.9c1.1,2.2,3.5,3.1,6.1,3l0,0c2.5-0.1,5-1.3,6.2-3.4l0,0l0,0c0.3-0.4,0.9-0.7,1.4-0.4l0,0
						c0.5,0.2,0.8,0.7,0.5,1.2l0,0c-1.6,2.8-4.8,4.3-8,4.4l0,0c-3.2,0.2-6.6-1.1-8.1-4l0,0c-0.2-0.4,0-1,0.6-1.2l0,0
						c0.1,0,0.3-0.1,0.4-0.1l0,0C110.8,169.4,111.2,169.6,111.4,169.9L111.4,169.9z"/>
				</g>
			</g>
		</g>
		<g>
			<path fill="#3C3B42" d="M119.9,156c-0.1,0.7-0.7,1.2-1.3,1.1c-0.6-0.1-1.1-0.7-1-1.4c0.1-0.7,0.7-1.2,1.3-1.1
				C119.5,154.6,120,155.3,119.9,156z"/>
			<path fill="#3C3B42" d="M116,156c-0.1,0.7-0.7,1.2-1.3,1.1c-0.6-0.1-1.1-0.7-1-1.4c0.1-0.7,0.7-1.2,1.3-1.1
				C115.6,154.6,116.1,155.3,116,156z"/>
		</g>
		<circle fill="#6CA33D" cx="75.1" cy="151.1" r="7.5"/>
		<circle fill="#6CA33D" cx="90.1" cy="141.1" r="4.5"/>
		<circle fill="#6CA33D" cx="153.1" cy="167.1" r="4.5"/>
		<circle fill="#6CA33D" cx="153.6" cy="176.6" r="2"/>
		<circle fill="#6CA33D" cx="162.1" cy="171" r="2.8"/>
	</g>
	<g>
		<path fill="#6CA33D" d="M106.6,241.3c0-6.5-5.3-11.8-11.8-11.8c-2.5,0-4.9,0.8-6.8,2.2c-0.6,8.9,2.4,16.4,12.5,19.8
			C104.2,249.6,106.6,245.7,106.6,241.3z"/>
	</g>
	<circle fill="#6CA33D" cx="120.7" cy="197.6" r="3.9"/>
	<circle fill="#6CA33D" cx="127.1" cy="202.2" r="2.6"/>
	<circle fill="#6CA33D" cx="131" cy="238.9" r="5.6"/>
	<path fill="#FBEEA0" d="M131.5,225.8c0,5.5-0.7,12.1-7.7,17.1c-1.3,0.9-2.7,1.5-4.1,2c-1.5,0.5-3,0.7-4.6,0.7
		c-9.5,0-17.2-8.8-17.2-19.7c0-10.9,7.7-19.7,17.2-19.7c3.2,0,6.1,1,8.7,2.7c1.3,0.9,2.4,1.9,3.5,3.1c2.1,2.8,3.5,5.4,4,8.6
		C131.6,222.3,131.6,224,131.5,225.8z"/>
</g>
</svg>
