<svg 
    xmlns="http://www.w3.org/2000/svg" viewBox="0 0 171 53.82">
    <g id="Layer_2" data-name="Layer 2">
        <g id="Layer_1-2" data-name="Layer 1">
            <g id="Wordmark" class="logo-wordmark">
                <path id="Fill-7" d="M167,44.44h-1V43h1V41.46l2-.64V43h1.8v1.46h-1.8V48c0,.65.18,1.26,1,1.26a1.84,1.84,0,0,0,.92-.21l.06,1.58a5.46,5.46,0,0,1-1.5.18A2.27,2.27,0,0,1,167,48.34V44.44" fill="#54585a"></path>
                <polyline id="Fill-8" points="116 40.82 118 40.82 118 44.86 122 44.86 122 40.82 124 40.82 124 50.82 122 50.82 122 46.43 118 46.43 118 50.82 116 50.82 116 40.82" fill="#54585a"></polyline>
                <path id="Fill-9" d="M128.21,49.36a1.72,1.72,0,0,0,1.42-.68,2.5,2.5,0,0,0,.42-1.57h-.87c-.9,0-2.24.15-2.24,1.32C126.93,49.08,127.48,49.36,128.21,49.36Zm-2.36-6a7,7,0,0,1,2.69-.58c2.36,0,3.34,1,3.34,3.22v1c0,.77,0,1.35,0,1.91s0,1.11.09,1.71h-1.78a9.31,9.31,0,0,1-.09-1.14h0a2.78,2.78,0,0,1-2.39,1.32A2.46,2.46,0,0,1,125,48.55a2.24,2.24,0,0,1,1.32-2.18,6.21,6.21,0,0,1,2.61-.45H130c0-1.23-.56-1.65-1.75-1.65a4.09,4.09,0,0,0-2.39.83Z" fill="#54585a"></path>
                <path id="Fill-10" d="M133,43h1.57v1.78h0c.08-.73.8-2,1.86-2a1.68,1.68,0,0,1,.54.06v2a1.6,1.6,0,0,0-.79-.17c-1.44,0-1.44,2.06-1.44,3.19v2.87H133V43" fill="#54585a"></path>
                <path id="Fill-11" d="M143.67,44.64a3.24,3.24,0,0,0-1.41-.28,2.15,2.15,0,0,0-2.1,2.42c0,1.41.7,2.49,2.15,2.49a4.56,4.56,0,0,0,1.59-.36l.09,1.65a7.06,7.06,0,0,1-2.07.25c-2.61,0-3.93-1.71-3.93-4a3.68,3.68,0,0,1,3.85-4,7,7,0,0,1,2,.25l-.19,1.57" fill="#54585a"></path>
                <path id="Fill-12" d="M148,49.27c1.53,0,1.93-1.37,1.93-2.64a1.95,1.95,0,1,0-3.84,0C146.08,47.89,146.48,49.27,148,49.27Zm0-6.46a3.83,3.83,0,0,1,4,4.05,4,4,0,0,1-8,0A3.82,3.82,0,0,1,148,42.82Z" fill="#54585a"></path>
                <path id="Fill-13" d="M160,50.63h-1.88V49.57h0a3.15,3.15,0,0,1-2.5,1.24c-1.81,0-2.59-1.31-2.59-3.07V42.82h2V47c0,1,0,2.25,1.29,2.25,1.44,0,1.75-1.59,1.75-2.6V42.82h2v7.82" fill="#54585a"></path>
                <path id="Fill-14" d="M161,43h1.57v1.78h0c.08-.73.81-2,1.86-2a1.68,1.68,0,0,1,.54.06v2a1.6,1.6,0,0,0-.79-.17c-1.44,0-1.44,2.06-1.44,3.19v2.87H161V43" fill="#54585a"></path>
                <polyline id="Fill-15" points="69 40.82 72.15 40.82 74.49 48.4 74.51 48.4 76.85 40.82 80 40.82 80 50.82 78.11 50.82 78.11 42.56 78.09 42.56 75.44 50.82 73.56 50.82 70.91 42.56 70.89 42.59 70.89 50.82 69 50.82 69 40.82" fill="#54585a"></polyline>
                <path id="Fill-16" d="M94,41.32a1.5,1.5,0,0,1,.84.26L95,40a6.81,6.81,0,0,0-1.41-.16,2.27,2.27,0,0,0-2.37,2.53v1H88.36v-.92c0-.58.2-1.14.85-1.14a1.5,1.5,0,0,1,.84.26L90.2,40a6.82,6.82,0,0,0-1.41-.16,2.27,2.27,0,0,0-2.36,2.53v1H85V44.8h1.43v6h1.93v-6h2.86v6h1.93v-6h1.69V43.38H93.16v-.92c0-.58.2-1.14.85-1.14" fill="#54585a"></path>
                <polyline id="Fill-17" points="96 44.65 96 39.82 98 39.82 98 50.82 96 50.82 96 44.65" fill="#54585a"></polyline>
                <path id="Fill-18" d="M103,43h1.88v1.06h0a2.82,2.82,0,0,1,2.5-1.25c1.81,0,2.59,1.31,2.59,3.07v4.93h-2V46.64c0-1,0-2.25-1.29-2.25C105.29,44.4,105,46,105,47v3.83h-2V43" fill="#54585a"></path>
                <g id="Group">
                    <polyline id="Fill-19" points="82 46.06 82 43.82 84 43.82 84 50.82 82 50.82 82 46.06" fill="#54585a"></polyline>
                    <path id="Fill-20" d="M84,41.82a1,1,0,1,1-1-1,1,1,0,0,1,1,1" fill="#54585a"></path>
                </g>
                <g id="Group-2">
                    <polyline id="Fill-21" points="100 45.85 100 43.82 102 43.82 102 50.82 100 50.82 100 45.85" fill="#54585a"></polyline>
                    <path id="Fill-22" d="M102,41.82a1,1,0,1,1-1-1,1,1,0,0,1,1,1" fill="#54585a"></path>
                </g>
                <polyline id="Fill-23" points="0 40.82 2 40.82 2 44.86 6 44.86 6 40.82 8 40.82 8 50.82 6 50.82 6 46.43 2 46.43 2 50.82 0 50.82 0 40.82" fill="#54585a"></polyline>
                <path id="Fill-24" d="M13,49.27c1.53,0,1.93-1.36,1.93-2.64A2,2,0,0,0,13,44.36a2,2,0,0,0-1.91,2.27C11.08,47.89,11.48,49.27,13,49.27Zm0-6.46a3.83,3.83,0,0,1,4,4.05,3.78,3.78,0,0,1-4,3.95,3.77,3.77,0,0,1-4-3.95A3.83,3.83,0,0,1,13,42.82Z" fill="#54585a"></path>
                <path id="Fill-25" d="M25,50.63H23.12V49.57h0a3.15,3.15,0,0,1-2.5,1.24c-1.81,0-2.59-1.31-2.59-3.07V42.82h2V47c0,1,0,2.25,1.29,2.25,1.44,0,1.75-1.59,1.75-2.6V42.82h2v7.82" fill="#54585a"></path>
                <path id="Fill-27" d="M31.15,46.69c0-1.29-.47-2.35-1.55-2.35-1.26,0-1.66,1.23-1.66,2.39S28.45,49,29.51,49,31.15,48,31.15,46.69ZM33,43v6.83c0,2.05-.77,4-3.76,4a5.94,5.94,0,0,1-2.46-.51l.15-1.67a5.12,5.12,0,0,0,2.08.66c2,0,2.14-1.63,2.14-2.94h0a2.51,2.51,0,0,1-2.21,1.2c-2.1,0-2.91-1.79-2.91-3.82,0-1.82.89-3.92,3-3.92A2.33,2.33,0,0,1,31.2,44h0V43Z" fill="#54585a"></path>
                <path id="Fill-29" d="M35,39.82h2v4.47h0a2.84,2.84,0,0,1,2.4-1.2c1.81,0,2.59,1.26,2.59,3v4.77H40v-4c0-.92,0-2.17-1.29-2.17-1.44,0-1.75,1.54-1.75,2.51v3.7H35v-11" fill="#54585a"></path>
                <path id="Fill-30" d="M44,44.44H43V43h1V41.46l2-.64V43h1.8v1.46h-1.8V48c0,.65.18,1.26,1,1.26a1.84,1.84,0,0,0,.92-.21L48,50.64a5.46,5.46,0,0,1-1.5.18A2.27,2.27,0,0,1,44,48.34V44.44" fill="#54585a"></path>
                <path id="Fill-31" d="M52,49.27c1.53,0,1.93-1.36,1.93-2.64a1.95,1.95,0,1,0-3.84,0C50.08,47.89,50.48,49.27,52,49.27Zm0-6.46a3.83,3.83,0,0,1,4,4.05,4,4,0,0,1-8,0A3.83,3.83,0,0,1,52,42.82Z" fill="#54585a"></path>
                <path id="Fill-32" d="M57,43h1.88v1.06h0a2.82,2.82,0,0,1,2.5-1.25c1.81,0,2.59,1.31,2.59,3.07v4.93H62V46.64c0-1,0-2.25-1.29-2.25C59.29,44.4,59,46,59,47v3.83H57V43" fill="#54585a"></path>
            </g>
            <g id="Group-6" class="logo-icon">
                <path id="Fill-3" d="M134.73,14.85A14.51,14.51,0,1,1,120.23.37a14.5,14.5,0,0,1,14.51,14.48" fill="#f2a900"></path>
                <polyline id="Fill-5" points="57.68 0 41 28.65 74.11 28.65 57.68 0" fill="#898d8d"></polyline>
                <path id="Fill-1" d="M102.05.09,76.59,4.18c3.75-.57,9.43,2,14.3,6.9s7.54,10.68,6.88,14.42h0L102.05.09" fill="#898d8d"></path>
                <path id="Fill-2" d="M90.89,11.08C86,6.22,80.34,3.61,76.59,4.18h0l-.1,0a4.58,4.58,0,0,0-2.51,1.23c-3.12,3.11-.59,10.69,5.65,16.93s13.83,8.76,17,5.64a4.57,4.57,0,0,0,1.23-2.5c.66-3.74-2-9.5-6.88-14.42" fill="#f2a900"></path>
            </g>
        </g>
    </g>
</svg>