<?xml version="1.0" encoding="utf-8"?>
<!-- Generator: Adobe Illustrator 17.1.0, SVG Export Plug-In . SVG Version: 6.00 Build 0)  -->
<!DOCTYPE svg PUBLIC "-//W3C//DTD SVG 1.1//EN" "http://www.w3.org/Graphics/SVG/1.1/DTD/svg11.dtd">
<svg version="1.1" id="Layer_1" xmlns="http://www.w3.org/2000/svg" xmlns:xlink="http://www.w3.org/1999/xlink" x="0px" y="0px"
	 viewBox="0 0 236 284" enable-background="new 0 0 236 284" xml:space="preserve">
<rect y="0" fill="none" width="236" height="284"/>
<g>
	<ellipse fill="#0a91bc" cx="116.1" cy="270.5" rx="62.2" ry="3.9"/>
	<path fill="#D88E4C" d="M119.8,239.3l-2.7,0l1.1,9.1l1.6,0.4c7.9,1.7,34.1,0.1,48.9-13.9c8.9-8.4,12.3-19.7,10.1-33.6
		c-0.2-1-0.4-2.2-0.6-3.4c-1.5-8.2-4.2-23.5,1.2-28.8c2.8-2.7,7.2-3,10.4-2c1.6,0.5,6.6,2.5,5,7.8c-0.3,0.9-1,1.8-2,2.3
		c-0.8,0.4-1.6,0.5-2,0.3c-1.1-0.6-1.1-1.2-1-2.6c0-1,0.2-3.5-2.3-4.2c-0.5-0.2-1.1-0.2-1.8-0.1c-2.1,0.2-3.7,1.7-4.2,3.8
		c-0.7,3.1,1.1,6.9,4.6,9.1c0.7,0.5,1.5,0.9,2.4,1.1c3.3,1,7,0.3,9.8-1.8c3-2.3,4.6-6,4.4-10.5c-0.2-5.6-4.6-10.3-11.1-12.3h0
		c-6.5-2-13-0.7-17.2,3.3c-7.5,7.3-6.4,15.1-4.9,24.9c0.3,1.8,0.5,3.6,0.8,5.5c0.2,1.7,0.4,3.3,0.7,4.9c1.6,11.3,3.1,21-7.2,30.2
		C151.7,239.4,120.1,239.3,119.8,239.3z"/>
	<g>
		<polygon fill="#D88E4C" points="102.2,241.1 105.2,266.5 109.4,266.5 112,243.8"/>
		<path fill="#EDDDCE" d="M108.7,265.8c0,0-24.6-0.5-18.8,1.7c5.8,2.2,12.9,2.5,9.5,3.7c-3.4,1.2-2.7,1.8,6.8,1.7
			C115.7,272.8,110.2,267.1,108.7,265.8z"/>
	</g>
	<g>
		<polygon fill="#D88E4C" points="129.3,241.1 126.3,266.5 122.1,266.5 119.5,243.8"/>
		<path fill="#EDDDCE" d="M122.8,265.8c0,0,24.6-0.5,18.8,1.7c-5.8,2.2-12.9,2.5-9.5,3.7c3.4,1.2,2.7,1.8-6.8,1.7
			C115.8,272.8,121.3,267.1,122.8,265.8z"/>
	</g>
	<g>
		<path fill="#D88E4C" d="M107.9,190.5c0,0-34.3,45.4-32.8,48.9c1.4,3.5,5,6.8,8.2,5.5c3.2-1.3,26.6-50.5,26.6-50.5L107.9,190.5z"/>
		<g>
			<path fill="#EDDDCE" d="M75.1,239.4c1.4,3.5,5,6.8,8.2,5.5c0.8-0.3,2.8-3.5,5.3-8c-1.4-3.5-4.9-6.1-9.1-6.3
				C76.5,235.1,74.7,238.5,75.1,239.4z"/>
		</g>
	</g>
	<g>
		<path fill="#D88E4C" d="M122,190.5c0,0,34.3,45.4,32.8,48.9c-1.4,3.5-5,6.8-8.2,5.5c-3.2-1.3-26.6-50.5-26.6-50.5L122,190.5z"/>
		<g>
			<path fill="#EDDDCE" d="M154.8,239.4c-1.4,3.5-5,6.8-8.2,5.5c-0.8-0.3-2.8-3.5-5.3-8c1.4-3.5,4.9-6.1,9.1-6.3
				C153.4,235.1,155.2,238.5,154.8,239.4z"/>
		</g>
	</g>
	<path fill="#D88E4C" d="M119.2,183.2l-4,0.1l-4-0.1c0,0-53.9,70.2,3.9,70.2S119.2,183.2,119.2,183.2z"/>
	<g>
		<g>
			<path fill="#D88E4C" d="M167.8,123.7c0,0,26.2-22.8,33.2,0c6.9,22.8-5.2,33-27.6,30.4c-22.4-2.7-7-30.2-7-30.2L167.8,123.7z"/>
			<path fill="#C97D31" d="M173.4,130.7l2.3,12.2c0,0,16.5,1,13-8.6C185.1,124.7,173.4,130.7,173.4,130.7z"/>
		</g>
		<g>
			<path fill="#D88E4C" d="M66.4,123.7c0,0-26.2-22.8-33.2,0c-6.9,22.8,5.2,33,27.6,30.4c22.4-2.7,7-30.2,7-30.2L66.4,123.7z"/>
			<path fill="#C97D31" d="M60.8,130.7l-2.3,12.2c0,0-16.5,1-13-8.6C49.1,124.7,60.8,130.7,60.8,130.7z"/>
		</g>
		<g>
			<path fill="#D88E4C" d="M58.1,149.2c-2.8-15.6,2.2-33.2,15.8-42.4c1.4-1.1,2.9-2.1,4.4-3c6.2-3.7,13.3-5.9,20.8-6.3
				c1.9-0.3,3.8-0.5,5.7-0.6c2-0.2,4.1-0.5,6.2-0.6c2.1-0.2,4.2-0.3,6.4-0.4c2.1-0.1,4.3-0.2,6.4-0.1c1.7,0,3.5,0.1,5.2,0.2
				c19.3,1,39.7,12.5,45.3,32.8c0.6,2,1,4.1,1.3,6.2c0.5,4.2,0.3,8.6-0.7,13c-0.3,2.6-0.8,5.1-1.5,7.4c-5.7,21-23.1,30.7-42.8,32.2
				c-2.4,0.2-4.9,0.3-7.4,0.2c-2.4,0.1-4.9,0.2-7.4,0.2c-2.5,0-5.1-0.1-7.7-0.3c-8-0.4-16-2.3-23.2-5.7c-1.8-0.9-3.5-1.8-5.2-2.8
				c-1.6-1-3.1-2.1-4.5-3.3c-1.2-1-2.4-2.1-3.5-3.2c-1.8-1.8-3.5-3.8-5.2-5.8c-0.8-1-1.6-2.1-2.3-3.2c-1.8-3.6-3.5-7.1-5-10.7
				C58.9,151.8,58.4,150.5,58.1,149.2z"/>
			<path fill="#D88E4C" d="M110.9,107.3c0,0-22.6-17.1-14.6-15.1c8,2,11.7,7,11.7,7s-0.4-13,2.7-13c3.1,0,4.2,9.4,4.2,9.4
				s4.4-4.9,10.6-4.8c6.2,0.1,2.4,6.9,2.4,6.9s5.7-6.1,9.9,0.2c4.2,6.3-8.8,9.8-8.8,9.8L110.9,107.3z"/>
			<path fill="#EDDDCE" d="M156.7,137.7c-2.9-18.5-14.1-23.3-23-23.1c-7.8,0.2-15.6,7.6-17.4,7.6c-1.8,0-9.3-7.3-17.7-6.9
				c-8.8,0.4-19.9,5.4-22,24c-2.7,23.1,12,31.8,25.4,34.1c2.7,4.9,10,9.1,16.1,8.9c6.2-0.1,13.5-4.7,15.9-9.8
				C146.7,169.5,160.3,159.9,156.7,137.7z"/>
			<path fill="#3C3B42" d="M116.9,157.8c1.2,0,4.9-2.8,5-3.6c0.1-0.9-8.9-0.5-9.4,0.2C112.1,155.1,115.7,157.8,116.9,157.8z"/>
			<g>
				<g>
					<path fill="#3C3B42" d="M111.3,139.9c0,1.9-0.7,3.8-1.9,5c-1.3,1.2-3.1,1.8-5,1.8c-1.9,0-3.5-0.9-4.8-2.2
						c-1.2-1.3-2.3-2.9-2.3-4.8c0-1.9,1.3-3.5,2.5-4.7c1.3-1.2,2.9-2,4.8-2c1.9,0,3.3,1,4.6,2.3C110.4,136.5,111.4,138,111.3,139.9z
						"/>
					<path fill="#FFFFFF" d="M104.3,137.5c0,1.1-0.9,1.9-2,1.9c-1.1,0-1.9-0.9-1.9-2c0-1.1,0.9-1.9,2-1.9
						C103.5,135.5,104.3,136.4,104.3,137.5z"/>
				</g>
				<g>
					<path fill="#3C3B42" d="M98.9,127.3c-0.2,0.7-1.6,1.2-3.4,2.1c-1.8,1-3.4,1.9-3.9,1.4c-0.4-0.4,0.6-2.2,2.8-3.5
						C96.6,126.1,99.1,126.6,98.9,127.3z"/>
				</g>
				<g>
					<path fill="#3C3B42" d="M135.4,140.3c0,1.9-0.7,3.8-1.9,5c-1.3,1.2-3.1,1.8-5.1,1.8c-1.9,0-3.5-0.9-4.8-2.2
						c-1.2-1.3-2.4-2.9-2.3-4.8c0-1.9,1.3-3.5,2.5-4.7c1.3-1.2,2.9-2,4.8-2c1.9,0,3.3,1,4.6,2.3
						C134.5,136.9,135.5,138.4,135.4,140.3z"/>
					<path fill="#FFFFFF" d="M128.4,137.9c0,1.1-0.9,1.9-2,1.9c-1.1,0-1.9-0.9-1.9-2c0-1.1,0.9-1.9,2-1.9
						C127.5,135.9,128.4,136.8,128.4,137.9z"/>
				</g>
				<g>
					<path fill="#3C3B42" d="M134.3,127.9c0.1,0.7,1.5,1.2,3.3,2.3c1.8,1.1,3.4,2,3.9,1.5c0.4-0.4-0.5-2.3-2.7-3.6
						C136.6,126.7,134.1,127.2,134.3,127.9z"/>
				</g>
			</g>
			<g>
				<g>
					<path fill="#3C3B42" d="M111.8,169.7c1.1,2.2,3.5,3.1,6.1,3l0,0c2.5-0.1,5-1.3,6.2-3.4l0,0l0,0c0.3-0.4,0.9-0.7,1.4-0.4l0,0
						c0.5,0.2,0.8,0.7,0.5,1.2l0,0c-1.6,2.8-4.8,4.3-8,4.4l0,0c-3.2,0.2-6.6-1.1-8.1-4l0,0c-0.2-0.4,0-1,0.6-1.2l0,0
						c0.1,0,0.3-0.1,0.4-0.1l0,0C111.2,169.2,111.6,169.4,111.8,169.7L111.8,169.7z"/>
				</g>
			</g>
		</g>
	</g>
	<path fill="#EDDDCE" d="M131.9,225.6c0,5.5-0.7,12.1-7.7,17.1c-1.3,0.9-2.7,1.5-4.1,2c-1.5,0.5-3,0.7-4.6,0.7
		c-9.5,0-17.2-8.8-17.2-19.7c0-10.9,7.7-19.7,17.2-19.7c3.2,0,6.1,1,8.7,2.7c1.3,0.9,2.4,1.9,3.5,3.1c2.1,2.8,3.5,5.4,4,8.6
		C131.9,222,132,223.8,131.9,225.6z"/>
</g>
</svg>
