<?xml version="1.0" encoding="utf-8"?>
<!-- Generator: Adobe Illustrator 17.1.0, SVG Export Plug-In . SVG Version: 6.00 Build 0)  -->
<!DOCTYPE svg PUBLIC "-//W3C//DTD SVG 1.1//EN" "http://www.w3.org/Graphics/SVG/1.1/DTD/svg11.dtd">
<svg version="1.1" id="Layer_1" xmlns="http://www.w3.org/2000/svg" xmlns:xlink="http://www.w3.org/1999/xlink" x="0px" y="0px"
	 viewBox="0 0 236 284" enable-background="new 0 0 236 284" xml:space="preserve">
<rect y="0" fill="none" width="236" height="284"/>
<g>
	<path fill="#FAB8DC" d="M119.3,247c-5.8-3.3-9.6-6.8-9.8-7l4.6-5.1c0.1,0.1,9.1,9,20.5,11.6c12.2,2.7,23.8,4,32.5-10.4
		c5.5-9.1,4.9-20.1,4.3-30.8c-0.5-9.1-1-17.7,2.6-24.2c4.2-7.6,11.4-12.2,20.3-12.9c9.9-0.8,27.6,7.3,26.1,10.6
		c-1.2,2.6-29.6-15.7-41,5.3c-2.7,5-2.3,12.7-1.9,20.9c0.6,11.1,1.3,23.6-5.2,34.4c-4.9,8.1-11.1,12.9-19,14.5
		c-6.8,1.4-13.8,0.2-20.3-1.2C127.9,251.4,123.1,249.2,119.3,247z"/>
	<ellipse fill="#0a91bc" cx="115.7" cy="271.2" rx="62.2" ry="3.9"/>
	<g>
		<polygon fill="#B3B3B3" points="104.4,241.7 107.4,267.1 111.6,267.1 114.2,244.5 		"/>
		<path fill="#B3B3B3" d="M117.3,272.3c0.1-4.4-2-7.7-9.2-7.8c-7.3-0.1-7,7.6-7,7.6L117.3,272.3z"/>
	</g>
	<g>
		<polygon fill="#B3B3B3" points="131.9,241.7 128.9,267.1 124.7,267.1 122,244.5 		"/>
		<path fill="#B3B3B3" d="M119,272.3c-0.1-4.4,2-7.7,9.2-7.8c7.3-0.1,7,7.6,7,7.6L119,272.3z"/>
	</g>
	<g>
		<path fill="#B3B3B3" d="M110.5,191.1c0,0-34.3,45.4-32.8,48.9c1.4,3.5,5,6.8,8.2,5.5c3.2-1.3,26.6-50.5,26.6-50.5L110.5,191.1z"/>
		<g>
			<path fill="#FAB8DC" d="M82.4,235.6c-2,3.6,8.1,8.3,7.8,2.1c-0.1-2.8-4.3-4.6-6.5-3.3C83,234.7,82.6,235.1,82.4,235.6z"/>
			<path fill="#FAB8DC" d="M82.2,242c0.2-0.2,0.4-0.4,0.5-0.6c1-2.7-3.8-1.1-3.5,0.7C79.4,243.4,81.3,242.8,82.2,242z"/>
			<path fill="#FAB8DC" d="M86.5,242.5c-0.6-1.3-3.8-0.3-3.2,1.3c0.5,1.3,3.2,0.4,3.3-0.7C86.6,242.8,86.5,242.6,86.5,242.5z"/>
			<path fill="#FAB8DC" d="M80.5,238.3c0.1-0.9-1-1.7-1.8-0.2c-0.7,1.2,0.4,1.9,1.4,1.1C80.3,238.9,80.4,238.6,80.5,238.3z"/>
		</g>
	</g>
	<g>
		<path fill="#B3B3B3" d="M124.5,191.1c0,0,34.3,45.4,32.8,48.9c-1.4,3.5-5,6.8-8.2,5.5c-3.2-1.3-26.6-50.5-26.6-50.5L124.5,191.1z"
			/>
		<g>
			<path fill="#FAB8DC" d="M152.6,235.6c2,3.6-8.1,8.3-7.8,2.1c0.1-2.8,4.3-4.6,6.5-3.3C152,234.7,152.4,235.1,152.6,235.6z"/>
			<path fill="#FAB8DC" d="M152.8,242c-0.2-0.2-0.4-0.4-0.5-0.6c-1-2.7,3.8-1.1,3.5,0.7C155.6,243.4,153.7,242.8,152.8,242z"/>
			<path fill="#FAB8DC" d="M148.5,242.5c0.6-1.3,3.8-0.3,3.2,1.3c-0.5,1.3-3.2,0.4-3.3-0.7C148.4,242.8,148.4,242.6,148.5,242.5z"/>
			<path fill="#FAB8DC" d="M154.5,238.3c-0.1-0.9,1-1.7,1.8-0.2c0.7,1.2-0.4,1.9-1.4,1.1C154.7,238.9,154.6,238.6,154.5,238.3z"/>
		</g>
	</g>
	<path fill="#B3B3B3" d="M121.8,183.8l-4,0.1l-4-0.1c0,0-53.9,70.2,3.9,70.2S121.8,183.8,121.8,183.8z"/>
	<g>
		<g>
			<path fill="#B3B3B3" d="M154.1,104c0,0-0.7-17.2,12.1-32.9c12.9-15.9,56.8,20.3,53.9,40.7c-2.9,20.5-45.8,24.6-45.8,24.6
				L154.1,104z"/>
			<path fill="#FAB8DC" d="M162.2,114.6c0,0,0.2-11.9,7.7-20.3c7.5-8.5,30.3,6.9,28.6,17.9c-1.6,11-27.7,13.5-27.7,13.5L162.2,114.6
				z"/>
			<path fill="#B3B3B3" d="M83.2,104c0,0,0.7-17.2-12.1-32.9c-12.9-15.9-56.8,20.3-53.9,40.7c2.9,20.5,45.8,24.6,45.8,24.6L83.2,104
				z"/>
			<path fill="#FAB8DC" d="M75.1,114.6c0,0-0.2-11.9-7.7-20.3c-7.5-8.5-30.3,6.9-28.6,17.9c1.6,11,27.7,13.5,27.7,13.5L75.1,114.6z"
				/>
			<g>
				<path fill="#B3B3B3" d="M60.7,149.8c-2.8-15.6,2.2-33.2,15.8-42.4c1.4-1.1,2.9-2.1,4.4-3c6.2-3.7,13.3-5.9,20.8-6.3
					c1.9-0.3,3.8-0.5,5.7-0.6c2-0.2,4.1-0.5,6.2-0.6c2.1-0.2,4.2-0.3,6.4-0.4c2.1-0.1,4.3-0.2,6.4-0.1c1.7,0,3.5,0.1,5.2,0.2
					c19.3,1,39.7,12.5,45.3,32.8c0.6,2,1,4.1,1.3,6.2c0.5,4.2,0.3,8.6-0.7,13c-0.3,2.6-0.8,5.1-1.5,7.4c-5.7,21-23.1,30.7-42.8,32.2
					c-2.4,0.2-4.9,0.3-7.4,0.2c-2.4,0.1-4.9,0.2-7.4,0.2c-2.5,0-5.1-0.1-7.7-0.3c-8-0.4-16-2.3-23.2-5.7c-1.8-0.9-3.5-1.8-5.2-2.8
					c-1.6-1-3.1-2.1-4.5-3.3c-1.2-1-2.4-2.1-3.5-3.2c-1.8-1.8-3.5-3.8-5.2-5.8c-0.8-1-1.6-2.1-2.3-3.2c-1.8-3.6-3.5-7.1-5-10.7
					C61.4,152.4,61,151.1,60.7,149.8z"/>
				<path fill="#B3B3B3" d="M113.5,108c0,0-22.6-17.1-14.6-15.1c8,2,11.7,7,11.7,7s-0.4-13,2.7-13c3.1,0,4.2,9.4,4.2,9.4
					s4.4-4.9,10.6-4.8c6.2,0.1,2.4,6.9,2.4,6.9s5.7-6.1,9.9,0.2c4.2,6.3-8.8,9.8-8.8,9.8L113.5,108z"/>
				<g>
					<g>
						<path fill="#3C3B42" d="M113.9,140.5c0,1.9-0.7,3.8-1.9,5c-1.3,1.2-3.1,1.8-5,1.8c-1.9,0-3.5-0.9-4.8-2.2
							c-1.2-1.3-2.3-2.9-2.3-4.8c0-1.9,1.3-3.5,2.5-4.7c1.3-1.2,2.9-2,4.8-2c1.9,0,3.3,1,4.6,2.3C113,137.1,114,138.6,113.9,140.5z"
							/>
						<path fill="#FFFFFF" d="M106.9,138.1c0,1.1-0.9,1.9-2,1.9c-1.1,0-1.9-0.9-1.9-2c0-1.1,0.9-1.9,2-1.9
							C106.1,136.1,106.9,137,106.9,138.1z"/>
					</g>
					<g>
						<path fill="#3C3B42" d="M101.5,127.9c-0.2,0.7-1.6,1.2-3.4,2.1c-1.8,1-3.4,1.9-3.9,1.4c-0.4-0.4,0.6-2.2,2.8-3.5
							C99.2,126.7,101.7,127.2,101.5,127.9z"/>
					</g>
					<g>
						<path fill="#3C3B42" d="M138,140.9c0,1.9-0.7,3.8-1.9,5c-1.3,1.2-3.1,1.8-5.1,1.8c-1.9,0-3.5-0.9-4.8-2.2
							c-1.2-1.3-2.4-2.9-2.3-4.8c0-1.9,1.3-3.5,2.5-4.7c1.3-1.2,2.9-2,4.8-2c1.9,0,3.3,1,4.6,2.3C137,137.5,138,139,138,140.9z"/>
						<path fill="#FFFFFF" d="M131,138.5c0,1.1-0.9,1.9-2,1.9c-1.1,0-1.9-0.9-1.9-2c0-1.1,0.9-1.9,2-1.9
							C130.1,136.5,131,137.4,131,138.5z"/>
					</g>
					<g>
						<path fill="#3C3B42" d="M136.9,128.5c0.1,0.7,1.5,1.2,3.3,2.3c1.8,1.1,3.4,2,3.9,1.5c0.4-0.4-0.5-2.3-2.7-3.6
							C139.2,127.3,136.7,127.8,136.9,128.5z"/>
					</g>
				</g>
			</g>
			<path fill="#D1D1D1" d="M142.1,164c0,7.5-18,15.5-22.6,15.5s-22.6-8-22.6-15.5c0-7.5,10.1-11.5,22.6-11.5
				C132,152.5,142.1,156.5,142.1,164z"/>
			<g>
				<g>
					<path fill="#3C3B42" d="M114.6,173.1c0.9,1.7,2.8,2.5,4.8,2.4l0,0c2-0.1,4-1,4.9-2.6l0,0l0,0c0.2-0.4,0.7-0.5,1.1-0.3l0,0
						c0.4,0.2,0.6,0.6,0.4,0.9l0,0c-1.3,2.2-3.9,3.3-6.4,3.4l0,0c-2.6,0.1-5.2-1-6.4-3.3l0,0c-0.2-0.4,0-0.8,0.5-0.9l0,0
						c0.1,0,0.2-0.1,0.3-0.1l0,0C114.1,172.7,114.4,172.9,114.6,173.1L114.6,173.1z"/>
				</g>
			</g>
			<circle fill="#3C3B42" cx="119.6" cy="155.7" r="6.3"/>
		</g>
		<g>
			<circle fill="#B3B3B3" cx="102.1" cy="162.1" r="0.8"/>
			<circle fill="#B3B3B3" cx="107.1" cy="160.1" r="0.8"/>
			<circle fill="#B3B3B3" cx="106.1" cy="164.1" r="0.8"/>
			<circle fill="#B3B3B3" cx="136.1" cy="162.1" r="0.8"/>
			<circle fill="#B3B3B3" cx="131.1" cy="160.1" r="0.8"/>
			<circle fill="#B3B3B3" cx="132.1" cy="164.1" r="0.8"/>
		</g>
	</g>
</g>
</svg>
