<?xml version="1.0" encoding="utf-8"?>
<!-- Generator: Adobe Illustrator 17.1.0, SVG Export Plug-In . SVG Version: 6.00 Build 0)  -->
<!DOCTYPE svg PUBLIC "-//W3C//DTD SVG 1.1//EN" "http://www.w3.org/Graphics/SVG/1.1/DTD/svg11.dtd">
<svg version="1.1" id="Layer_1" xmlns="http://www.w3.org/2000/svg" xmlns:xlink="http://www.w3.org/1999/xlink" x="0px" y="0px"
	 viewBox="0 0 236 284" enable-background="new 0 0 236 284" xml:space="preserve">
<rect y="0" fill="none" width="236" height="284"/>
<g>
	<ellipse fill="#0a91bc" cx="116.6" cy="271.2" rx="62.4" ry="3.9"/>
	<g>
		<polygon fill="#FFFFFF" points="104,241.6 107,267.1 111.2,267.1 113.8,244.4 		"/>
		<path fill="#FFFFFF" d="M116.9,272.4c0.1-4.4-2-7.7-9.2-7.8c-7.3-0.1-7,7.6-7,7.6L116.9,272.4z"/>
	</g>
	<g>
		<polygon fill="#FFFFFF" points="131.5,241.6 128.5,267.1 124.3,267.1 121.6,244.4 		"/>
		<path fill="#FFFFFF" d="M118.6,272.4c-0.1-4.4,2-7.7,9.2-7.8c7.3-0.1,7,7.6,7,7.6L118.6,272.4z"/>
	</g>
	<g>
		<path fill="#FFFFFF" d="M110.1,190.9c0,0-34.4,45.6-32.9,49.1c1.4,3.5,5,6.8,8.2,5.5c3.2-1.3,26.7-50.7,26.7-50.7L110.1,190.9z"/>
		<g>
			<path fill="#F1B6D3" d="M81.8,235.5c-2,3.6,8.1,8.3,7.8,2.1c-0.1-2.8-4.3-4.6-6.5-3.3C82.5,234.6,82.1,235,81.8,235.5z"/>
			<path fill="#F1B6D3" d="M81.7,241.9c0.2-0.2,0.4-0.4,0.5-0.6c1-2.7-3.8-1.1-3.5,0.7C78.9,243.3,80.7,242.7,81.7,241.9z"/>
			<path fill="#F1B6D3" d="M86,242.4c-0.6-1.3-3.8-0.3-3.2,1.3c0.5,1.3,3.2,0.4,3.3-0.7C86,242.8,86,242.6,86,242.4z"/>
			<path fill="#F1B6D3" d="M79.9,238.2c0.1-0.9-1-1.7-1.8-0.2c-0.7,1.2,0.4,1.9,1.4,1.1C79.8,238.8,79.9,238.5,79.9,238.2z"/>
		</g>
	</g>
	<g>
		<path fill="#FFFFFF" d="M124.2,190.9c0,0,34.4,45.6,32.9,49.1c-1.4,3.5-5,6.8-8.2,5.5c-3.2-1.3-26.7-50.7-26.7-50.7L124.2,190.9z"
			/>
		<g>
			<path fill="#F1B6D3" d="M152.4,235.5c2,3.6-8.1,8.3-7.8,2.1c0.1-2.8,4.3-4.6,6.5-3.3C151.7,234.6,152.1,235,152.4,235.5z"/>
			<path fill="#F1B6D3" d="M152.6,241.9c-0.2-0.2-0.4-0.4-0.5-0.6c-1-2.7,3.8-1.1,3.5,0.7C155.4,243.3,153.5,242.7,152.6,241.9z"/>
			<path fill="#F1B6D3" d="M148.2,242.4c0.6-1.3,3.8-0.3,3.2,1.3c-0.5,1.3-3.2,0.4-3.3-0.7C148.1,242.8,148.1,242.6,148.2,242.4z"/>
			<path fill="#F1B6D3" d="M154.3,238.2c-0.1-0.9,1-1.7,1.8-0.2c0.7,1.2-0.4,1.9-1.4,1.1C154.5,238.8,154.3,238.5,154.3,238.2z"/>
		</g>
	</g>
	<path fill="#FFFFFF" d="M121.4,183.5l-4,0.1l-4-0.1c0,0-54.1,70.5,3.9,70.5C175.3,253.9,121.4,183.5,121.4,183.5z"/>
	<g>
		<g>
			<path fill="#FFFFFF" d="M88.7,113c-2.2-22.5-9.4-45.4-22.9-61.7C50,32.1,19.2,18.7,25.4,42.6C27,48.6,49.2,62,63.9,82.4
				c6.9,9.6,12.4,20.6,16.6,29.9"/>
			<path fill="#F1B6D3" d="M25.4,42.6c1.7,6,23.8,19.4,38.5,39.7c6.9,9.6,12.4,20.6,16.6,29.9c1.4-1.5,4,0.9-1.3-15.8
				c-1.1-3.4-4.9-14.8-12.1-25.9C56.5,54.4,37.5,36,25.4,42.6L25.4,42.6z"/>
		</g>
		<g>
			<path fill="#FFFFFF" d="M144.1,108c2.9-22.4,10.9-45.1,24.9-60.9c16.5-18.8,47.8-31.1,40.7-7.4c-1.8,5.9-24.4,18.6-39.8,38.4
				c-7.2,9.3-13.1,20.2-17.6,29.3"/>
			<path fill="#F1B6D3" d="M209.7,39.8c-1.9,5.9-24.5,18.6-39.8,38.4c-7.2,9.3-13.1,20.2-17.6,29.3c-1.4-1.5-4,0.8,1.8-15.8
				c1.2-3.4,5.4-14.6,12.9-25.5C178.2,50.5,197.8,32.8,209.7,39.8L209.7,39.8z"/>
		</g>
		<g>
			<path fill="#FFFFFF" d="M60.1,149.4c-2.8-15.7,2.2-33.3,15.9-42.6c1.4-1.1,2.9-2.1,4.4-3c6.2-3.7,13.3-5.9,20.9-6.3
				c1.9-0.3,3.8-0.5,5.7-0.6c2-0.2,4.1-0.5,6.2-0.6c2.1-0.2,4.2-0.3,6.4-0.4c2.1-0.1,4.3-0.2,6.4-0.1c1.7,0,3.5,0.1,5.2,0.2
				c19.4,1,39.8,12.5,45.5,32.9c0.6,2,1,4.1,1.3,6.2c0.5,4.2,0.3,8.6-0.7,13c-0.3,2.6-0.8,5.1-1.5,7.4c-5.7,21.1-23.2,30.8-43,32.3
				c-2.4,0.2-4.9,0.3-7.4,0.2c-2.4,0.1-4.9,0.2-7.4,0.2s-5.1-0.1-7.7-0.3c-8-0.4-16.1-2.3-23.3-5.7c-1.8-0.9-3.5-1.8-5.2-2.8
				c-1.6-1-3.1-2.1-4.5-3.3c-1.2-1-2.4-2.1-3.5-3.2c-1.8-1.8-3.5-3.8-5.2-5.8c-0.8-1-1.6-2.1-2.3-3.2c-1.8-3.6-3.5-7.1-5-10.7
				C60.8,152,60.4,150.7,60.1,149.4z"/>
			<path fill="#FFFFFF" d="M113.1,107.4c0,0-22.7-17.2-14.7-15.2s11.7,7,11.7,7s-0.4-13,2.7-13c3.1,0,4.2,9.4,4.2,9.4
				s4.4-4.9,10.6-4.8c6.2,0.1,2.4,6.9,2.4,6.9s5.7-6.1,9.9,0.2c4.2,6.3-8.8,9.8-8.8,9.8L113.1,107.4z"/>
			<g>
				<g>
					<path fill="#3D3C44" d="M113.5,140.1c0,1.9-0.7,3.8-1.9,5c-1.3,1.2-3.1,1.8-5,1.8s-3.5-0.9-4.8-2.2c-1.2-1.3-2.3-2.9-2.3-4.8
						s1.3-3.5,2.5-4.7c1.3-1.2,2.9-2,4.8-2s3.3,1,4.6,2.3C112.5,136.7,113.5,138.2,113.5,140.1z"/>
					<path fill="#FFFFFF" d="M106.5,137.7c0,1.1-0.9,1.9-2,1.9s-1.9-0.9-1.9-2s0.9-1.9,2-1.9C105.6,135.7,106.5,136.6,106.5,137.7z"
						/>
				</g>
				<g>
					<path fill="#3D3C44" d="M101,127.4c-0.2,0.7-1.6,1.2-3.4,2.1c-1.8,1-3.4,1.9-3.9,1.4c-0.4-0.4,0.6-2.2,2.8-3.5
						C98.8,126.2,101.2,126.7,101,127.4z"/>
				</g>
				<g>
					<path fill="#3D3C44" d="M137.7,140.5c0,1.9-0.7,3.8-1.9,5c-1.3,1.2-3.1,1.8-5.1,1.8c-1.9,0-3.5-0.9-4.8-2.2
						c-1.2-1.3-2.4-2.9-2.3-4.8c0-1.9,1.3-3.5,2.5-4.7c1.3-1.2,2.9-2,4.8-2s3.3,1,4.6,2.3C136.7,137.1,137.7,138.6,137.7,140.5z"/>
					<path fill="#FFFFFF" d="M130.6,138.1c0,1.1-0.9,1.9-2,1.9c-1.1,0-1.9-0.9-1.9-2s0.9-1.9,2-1.9
						C129.8,136.1,130.7,137,130.6,138.1z"/>
				</g>
				<g>
					<path fill="#3D3C44" d="M136.6,128c0.1,0.7,1.5,1.2,3.3,2.3s3.4,2,3.9,1.5c0.4-0.4-0.5-2.3-2.7-3.6
						C138.8,126.8,136.4,127.3,136.6,128z"/>
				</g>
			</g>
		</g>
		<path fill="#F1B6D3" d="M118.1,160c2.4,0.1,8.5-4,8.1-5.7c-0.4-1.7-14.6-0.9-16-0.2C108.9,154.6,115.7,159.9,118.1,160z"/>
		<g>
			<g>
				<path fill="#3D3C44" d="M113.5,171.8c0.9,1.7,2.8,2.5,4.8,2.4l0,0c2-0.1,4-1,4.9-2.6l0,0l0,0c0.2-0.4,0.7-0.5,1.1-0.3l0,0
					c0.4,0.2,0.6,0.6,0.4,0.9l0,0c-1.3,2.2-3.9,3.3-6.4,3.4l0,0c-2.6,0.1-5.2-1-6.4-3.3l0,0c-0.2-0.4,0-0.8,0.5-0.9l0,0
					c0.1,0,0.2-0.1,0.3-0.1l0,0C113,171.4,113.3,171.5,113.5,171.8L113.5,171.8z"/>
			</g>
		</g>
	</g>
</g>
</svg>
